<svg id="Layer_1" data-name="Layer 1" xmlns="http://www.w3.org/2000/svg" xmlns:xlink="http://www.w3.org/1999/xlink" viewBox="0 0 217.8 113.41"><defs><style>.cls-1,.cls-10,.cls-21,.cls-3,.cls-30,.cls-33{fill:none;}.cls-2{fill:#92d050;}.cls-3,.cls-33{stroke:#fff;}.cls-10,.cls-21,.cls-3,.cls-30,.cls-33{stroke-miterlimit:8;}.cls-3{stroke-width:0.96px;}.cls-31,.cls-4{fill:red;}.cls-5,.cls-7{font-size:14.04px;}.cls-11,.cls-34,.cls-5,.cls-7{font-family:Calibri;}.cls-6,.cls-7{letter-spacing:0em;}.cls-8{letter-spacing:0em;}.cls-9{clip-path:url(#clip-path);}.cls-10,.cls-21,.cls-30{stroke:#000;}.cls-10,.cls-21,.cls-33{stroke-width:0.48px;}.cls-10{stroke-dasharray:0.48 0.48;}.cls-11{font-size:6px;}.cls-12{letter-spacing:0em;}.cls-13{letter-spacing:0em;}.cls-14{letter-spacing:0.01em;}.cls-15{letter-spacing:0em;}.cls-16{letter-spacing:0.01em;}.cls-17{letter-spacing:-0.01em;}.cls-18{letter-spacing:-0.01em;}.cls-19{letter-spacing:0em;}.cls-20{letter-spacing:-0.01em;}.cls-22{font-size:8.04px;font-family:Calibri-Bold, Calibri;font-weight:700;}.cls-23{letter-spacing:0em;}.cls-24{letter-spacing:0em;}.cls-25{letter-spacing:0.01em;}.cls-26{letter-spacing:0em;}.cls-27{letter-spacing:0em;}.cls-28{letter-spacing:0em;}.cls-29{letter-spacing:0em;}.cls-30{stroke-width:2.04px;}.cls-31,.cls-32{fill-rule:evenodd;}.cls-32,.cls-34{fill:#fff;}.cls-34{font-size:15.96px;}</style><clipPath id="clip-path" transform="translate(-198.84 -161.18)"><rect class="cls-1" width="960" height="540"/></clipPath></defs><title>Deadline</title><rect class="cls-2" x="33.12" y="53.98" width="28.32" height="28.32"/><rect class="cls-3" x="33.12" y="53.98" width="28.32" height="28.32"/><rect class="cls-2" x="61.44" y="53.98" width="28.32" height="28.32"/><rect class="cls-3" x="61.44" y="53.98" width="28.32" height="28.32"/><rect class="cls-2" x="89.76" y="53.98" width="28.44" height="28.32"/><rect class="cls-3" x="89.76" y="53.98" width="28.44" height="28.32"/><rect class="cls-2" x="117.84" y="53.98" width="28.32" height="28.32"/><rect class="cls-3" x="117.84" y="53.98" width="28.32" height="28.32"/><rect class="cls-2" x="146.16" y="53.98" width="28.32" height="28.32"/><rect class="cls-3" x="146.16" y="53.98" width="28.32" height="28.32"/><rect class="cls-4" x="174.24" y="53.98" width="28.32" height="28.32"/><rect class="cls-3" x="174.24" y="53.98" width="28.32" height="28.32"/><rect class="cls-4" x="4.8" y="53.98" width="28.32" height="28.32"/><rect class="cls-3" x="4.8" y="53.98" width="28.32" height="28.32"/><text class="cls-5" transform="translate(9.18 44.84)">Mo</text><text class="cls-5" transform="translate(41.41 44.84)">Di</text><text class="cls-5" transform="translate(67.94 44.78)">Mi</text><text class="cls-5" transform="translate(95.57 44.78)">Do</text><text class="cls-5" transform="translate(125.94 44.78)"><tspan class="cls-6">F</tspan><tspan x="6.46" y="0">r</tspan></text><text class="cls-7" transform="translate(153.67 44.78)">S<tspan class="cls-8" x="6.46" y="0">a</tspan></text><text class="cls-7" transform="translate(182.06 44.78)">S<tspan class="cls-8" x="6.46" y="0">o</tspan></text><g class="cls-9"><path d="M251.19,161.42a.52.52,0,0,1,.07.12l0,.09v.06a.08.08,0,0,1,0,0l-.07,0-.11,0-.13,0-.14.06a.57.57,0,0,0-.14.13.82.82,0,0,0-.11.21,1.94,1.94,0,0,0-.07.32,2.76,2.76,0,0,0,0,.44l1.16,2a.13.13,0,0,1,0,.06.17.17,0,0,1,0,.05.29.29,0,0,1-.08.07l-.13.09a.9.9,0,0,1-.14.07l-.1,0a.11.11,0,0,1-.06,0,.08.08,0,0,1,0,0l-1.77-3.06a.17.17,0,0,1,0-.05.14.14,0,0,1,0-.06l.07-.07.12-.08.13-.06.09,0,.06,0,0,0,.25.45a3.71,3.71,0,0,1,.07-.44,1.75,1.75,0,0,1,.1-.3.78.78,0,0,1,.14-.2,1.1,1.1,0,0,1,.18-.14l.11,0,.13-.05.12,0s.07,0,.09,0h0l0,0s0,0,.05.06l.07.13m-1.14,4.47a.08.08,0,0,1,0,.05.09.09,0,0,1,0,.06.45.45,0,0,1-.07.07l-.13.08-.15.08-.09,0h-.07l0,0-1-1.79a1.8,1.8,0,0,0-.29-.4,1,1,0,0,0-.27-.21.81.81,0,0,0-.31-.06.83.83,0,0,0-.66.5,2.64,2.64,0,0,0-.18.69l1.23,2.14a.07.07,0,0,1,0,.06.17.17,0,0,1,0,.05.29.29,0,0,1-.08.07.48.48,0,0,1-.13.09.9.9,0,0,1-.14.07l-.1,0a.11.11,0,0,1-.06,0l0,0-2.62-4.55a.08.08,0,0,1,0-.05.09.09,0,0,1,0-.06.45.45,0,0,1,.07-.07.74.74,0,0,1,.13-.08l.15-.08.09,0h.07l0,0,1.06,1.83a2.22,2.22,0,0,1,.26-.66,1.49,1.49,0,0,1,.42-.41,1.46,1.46,0,0,1,.58-.19,1.2,1.2,0,0,1,.5.08,1.48,1.48,0,0,1,.42.3,3.67,3.67,0,0,1,.38.53Zm-4.62.61a2.23,2.23,0,0,1,.3.78,1.78,1.78,0,0,1,0,.73,1.5,1.5,0,0,1-.34.63,2.45,2.45,0,0,1-.64.53,2.25,2.25,0,0,1-.73.27,1.6,1.6,0,0,1-.69,0,1.57,1.57,0,0,1-.63-.32,2.72,2.72,0,0,1-.53-.65l-1.57-2.73a.14.14,0,0,1,0-.06l0-.06.08-.07a.56.56,0,0,1,.14-.09l.14-.07.1,0h.07l0,0,1.53,2.66a2,2,0,0,0,.39.49,1.3,1.3,0,0,0,.43.26,1.23,1.23,0,0,0,.47,0,1.68,1.68,0,0,0,.5-.18,1.77,1.77,0,0,0,.41-.34,1.08,1.08,0,0,0,.2-.91,1.85,1.85,0,0,0-.23-.56l-1.55-2.69a.13.13,0,0,1,0-.06.11.11,0,0,1,0-.06l.08-.07a.48.48,0,0,1,.13-.09l.14-.07.1,0h.07s0,0,0,0Zm-6.29,2.91c-.13-.22-.25-.41-.37-.58s-.23-.3-.34-.42a1.57,1.57,0,0,0-.31-.28,1.08,1.08,0,0,0-.32-.13.65.65,0,0,0-.31,0,1.66,1.66,0,0,0-.32.13.9.9,0,0,0-.39.41,1.06,1.06,0,0,0-.07.54,2.54,2.54,0,0,0,.19.64,6.61,6.61,0,0,0,.35.71,6.87,6.87,0,0,0,.54.8,2.12,2.12,0,0,0,.49.47.78.78,0,0,0,.46.16.89.89,0,0,0,.47-.15.84.84,0,0,0,.3-.25.67.67,0,0,0,.15-.32.91.91,0,0,0,0-.37,1.76,1.76,0,0,0-.09-.42,4,4,0,0,0-.19-.45c-.07-.16-.16-.32-.25-.48m.57-.39a4.88,4.88,0,0,1,.45,1,2.4,2.4,0,0,1,.15.88,1.36,1.36,0,0,1-.21.74,1.67,1.67,0,0,1-.64.59,1.75,1.75,0,0,1-.79.26,1.4,1.4,0,0,1-.71-.17,2.4,2.4,0,0,1-.65-.57,6.66,6.66,0,0,1-.63-.92,6,6,0,0,1-.45-1,2.35,2.35,0,0,1-.15-.87,1.51,1.51,0,0,1,.21-.75,1.84,1.84,0,0,1,.64-.59,1.73,1.73,0,0,1,.79-.25,1.31,1.31,0,0,1,.71.17,2.35,2.35,0,0,1,.65.56,6.66,6.66,0,0,1,.63.92m-4.11,2.43c-.12-.22-.25-.41-.36-.58s-.23-.3-.34-.42a1.6,1.6,0,0,0-.32-.28,1,1,0,0,0-.31-.13.55.55,0,0,0-.31,0,1,1,0,0,0-.32.12.9.9,0,0,0-.39.41,1.06,1.06,0,0,0-.07.54,2.14,2.14,0,0,0,.18.64c.1.22.22.46.36.71a6.87,6.87,0,0,0,.54.8,2.1,2.1,0,0,0,.48.47.88.88,0,0,0,.47.16.89.89,0,0,0,.47-.15.84.84,0,0,0,.3-.25.94.94,0,0,0,.15-.32,1.13,1.13,0,0,0,0-.37,2.44,2.44,0,0,0-.28-.87c-.08-.16-.16-.32-.26-.48m.58-.39a6.44,6.44,0,0,1,.45,1,2.31,2.31,0,0,1,.15.87,1.55,1.55,0,0,1-.21.74,1.64,1.64,0,0,1-.65.59,1.68,1.68,0,0,1-.78.26,1.38,1.38,0,0,1-.71-.17,2.26,2.26,0,0,1-.65-.57,6.66,6.66,0,0,1-.63-.92,4.64,4.64,0,0,1-.45-1,2.6,2.6,0,0,1-.16-.87,1.52,1.52,0,0,1,.22-.75,1.76,1.76,0,0,1,.64-.59,1.73,1.73,0,0,1,.78-.25,1.27,1.27,0,0,1,.71.17,2.24,2.24,0,0,1,.66.56,6.66,6.66,0,0,1,.63.92m-2.74,4.05a1.59,1.59,0,0,1,.09.2.26.26,0,0,1,0,.15.24.24,0,0,1-.07.13.74.74,0,0,1-.16.12.87.87,0,0,1-.19.08.19.19,0,0,1-.15,0,.24.24,0,0,1-.12-.09,1.06,1.06,0,0,1-.13-.18,1.54,1.54,0,0,1-.09-.19.3.3,0,0,1,0-.16.25.25,0,0,1,.07-.12.8.8,0,0,1,.16-.13,1,1,0,0,1,.19-.08.26.26,0,0,1,.15,0,.28.28,0,0,1,.12.08l.13.18m-1.37-2.36a.92.92,0,0,1,.1.2.38.38,0,0,1,0,.15.26.26,0,0,1-.08.13.55.55,0,0,1-.16.12.6.6,0,0,1-.19.08h-.14a.38.38,0,0,1-.13-.09.83.83,0,0,1-.12-.17,1.89,1.89,0,0,1-.1-.21.38.38,0,0,1,0-.15.24.24,0,0,1,.07-.13.83.83,0,0,1,.17-.12.67.67,0,0,1,.18-.08h.15a.22.22,0,0,1,.13.09,1.4,1.4,0,0,1,.12.18m-1.87,1.82c-.13-.22-.25-.41-.37-.58s-.23-.3-.33-.42a1.94,1.94,0,0,0-.32-.28,1.14,1.14,0,0,0-.31-.13.69.69,0,0,0-.32,0,1.37,1.37,0,0,0-.31.13.81.81,0,0,0-.39.41,1,1,0,0,0-.07.54,2.14,2.14,0,0,0,.18.64c.1.22.22.46.36.71a8.53,8.53,0,0,0,.53.8,2.12,2.12,0,0,0,.49.47.8.8,0,0,0,.46.16.93.93,0,0,0,.48-.15,1.05,1.05,0,0,0,.3-.25.77.77,0,0,0,.14-.32,1.12,1.12,0,0,0,0-.37,2.53,2.53,0,0,0-.1-.42q-.07-.21-.18-.45c-.08-.16-.17-.32-.26-.48m.57-.39a6,6,0,0,1,.46,1,2.4,2.4,0,0,1,.15.88,1.46,1.46,0,0,1-.22.74,1.6,1.6,0,0,1-.64.59,1.75,1.75,0,0,1-.78.26,1.36,1.36,0,0,1-.71-.17,2.29,2.29,0,0,1-.66-.57,6.66,6.66,0,0,1-.63-.92,6,6,0,0,1-.45-1,2.35,2.35,0,0,1-.15-.87,1.62,1.62,0,0,1,.21-.75,1.84,1.84,0,0,1,.64-.59,1.73,1.73,0,0,1,.79-.25,1.29,1.29,0,0,1,.71.17,2.21,2.21,0,0,1,.65.56,6.66,6.66,0,0,1,.63.92" transform="translate(-198.84 -161.18)"/></g><line class="cls-10" x1="33.12" y1="47.65" x2="33.12" y2="19.3"/><line class="cls-10" x1="174.36" y1="47.65" x2="174.36" y2="19.3"/><text class="cls-11" transform="translate(20.37 110.7)"><tspan class="cls-12">N</tspan><tspan class="cls-13" x="3.84" y="0">e</tspan><tspan class="cls-12" x="6.84" y="0">u</tspan><tspan class="cls-13" x="9.96" y="0">e</tspan><tspan class="cls-14" x="12.96" y="0"> </tspan><tspan class="cls-15" x="14.39" y="0">A</tspan><tspan class="cls-12" x="17.87" y="0">uf</tspan><tspan class="cls-16" x="22.8" y="0">g</tspan><tspan x="25.67" y="0">a</tspan><tspan class="cls-12" x="28.55" y="0">b</tspan><tspan class="cls-13" x="31.67" y="0">e</tspan><tspan class="cls-14" x="34.67" y="0"> </tspan><tspan class="cls-17" x="36.1" y="0">f</tspan><tspan class="cls-18" x="37.9" y="0">r</tspan><tspan class="cls-19" x="39.95" y="0">e</tspan><tspan class="cls-20" x="42.94" y="0">i</tspan><tspan class="cls-16" x="44.27" y="0">g</tspan><tspan class="cls-13" x="47.15" y="0">e</tspan><tspan class="cls-16" x="50.14" y="0">g</tspan><tspan class="cls-13" x="53.02" y="0">e</tspan><tspan class="cls-12" x="56.02" y="0">b</tspan><tspan class="cls-19" x="59.14" y="0">e</tspan><tspan x="62.14" y="0">n</tspan></text><line class="cls-21" x1="33.12" y1="101.4" x2="33.12" y2="87.22"/><text class="cls-22" transform="translate(168.44 110.61)"><tspan class="cls-23">D</tspan><tspan class="cls-24" x="5.04" y="0">E</tspan><tspan class="cls-25" x="9" y="0">A</tspan><tspan class="cls-26" x="13.92" y="0">D</tspan><tspan class="cls-27" x="18.96" y="0">L</tspan><tspan class="cls-28" x="22.33" y="0">I</tspan><tspan class="cls-29" x="24.48" y="0">N</tspan><tspan x="29.77" y="0">E</tspan></text><line class="cls-30" x1="174.66" y1="101.57" x2="174.66" y2="51.28"/><polygon class="cls-31" points="196.68 63.7 208.92 63.7 208.92 59.26 217.8 68.14 208.92 77.02 208.92 72.58 196.68 72.58 196.68 63.7"/><polygon class="cls-32" points="0.24 63.7 12.36 63.7 12.36 59.26 21.24 68.14 12.36 77.02 12.36 72.58 0.24 72.58 0.24 63.7"/><polygon class="cls-33" points="0.24 63.7 12.36 63.7 12.36 59.26 21.24 68.14 12.36 77.02 12.36 72.58 0.24 72.58 0.24 63.7"/><text class="cls-34" transform="translate(43.36 73.45)">1</text><text class="cls-34" transform="translate(72.17 73.45)">2</text><text class="cls-34" transform="translate(99.78 73.45)">3</text><text class="cls-34" transform="translate(127.66 73.45)">4</text><text class="cls-34" transform="translate(156.63 73.45)">5</text></svg>