<?xml version="1.0" encoding="UTF-8"?>
<svg id="Layer_2" data-name="Layer 2" xmlns="http://www.w3.org/2000/svg" xmlns:xlink="http://www.w3.org/1999/xlink" viewBox="0 0 458.16 98.88">
  <defs>
    <style>
      .cls-1 {
        font-family: ArialMT, Arial;
      }

      .cls-1, .cls-2, .cls-3, .cls-4, .cls-5 {
        fill: #000;
      }

      .cls-1, .cls-4 {
        font-size: 8.4px;
      }

      .cls-6 {
        fill: #f2f2f2;
      }

      .cls-6, .cls-7, .cls-8, .cls-2, .cls-9, .cls-10, .cls-11, .cls-12 {
        stroke-width: 0px;
      }

      .cls-7 {
        fill: #e2efda;
      }

      .cls-13 {
        letter-spacing: 0em;
      }

      .cls-14 {
        letter-spacing: -.01em;
      }

      .cls-15 {
        letter-spacing: -.04em;
      }

      .cls-8 {
        fill: #b4c6e7;
      }

      .cls-16 {
        letter-spacing: 0em;
      }

      .cls-17 {
        letter-spacing: 0em;
      }

      .cls-18 {
        letter-spacing: 0em;
      }

      .cls-19 {
        letter-spacing: 0em;
      }

      .cls-20 {
        letter-spacing: -.04em;
      }

      .cls-21 {
        letter-spacing: 0em;
      }

      .cls-22 {
        letter-spacing: 0em;
      }

      .cls-23 {
        letter-spacing: 0em;
      }

      .cls-24 {
        letter-spacing: .08em;
      }

      .cls-25 {
        clip-path: url(#clippath-2);
      }

      .cls-26 {
        letter-spacing: 0em;
      }

      .cls-27 {
        letter-spacing: 0em;
      }

      .cls-28 {
        letter-spacing: -.04em;
      }

      .cls-29 {
        letter-spacing: 0em;
      }

      .cls-30 {
        clip-path: url(#clippath-6);
      }

      .cls-31 {
        letter-spacing: 0em;
      }

      .cls-9 {
        fill: none;
      }

      .cls-32 {
        letter-spacing: 0em;
      }

      .cls-33 {
        letter-spacing: 0em;
      }

      .cls-34 {
        clip-path: url(#clippath-7);
      }

      .cls-35 {
        clip-path: url(#clippath-1);
      }

      .cls-36 {
        clip-path: url(#clippath-4);
      }

      .cls-37 {
        letter-spacing: .02em;
      }

      .cls-3 {
        font-size: 10.08px;
      }

      .cls-3, .cls-4, .cls-5 {
        font-family: Arial-BoldMT, Arial;
        font-weight: 700;
      }

      .cls-38 {
        letter-spacing: 0em;
      }

      .cls-39 {
        letter-spacing: -.01em;
      }

      .cls-40 {
        letter-spacing: 0em;
      }

      .cls-41 {
        letter-spacing: -.02em;
      }

      .cls-42 {
        letter-spacing: 0em;
      }

      .cls-43 {
        letter-spacing: .02em;
      }

      .cls-44 {
        letter-spacing: 0em;
      }

      .cls-45 {
        letter-spacing: .01em;
      }

      .cls-46 {
        letter-spacing: .01em;
      }

      .cls-47 {
        clip-path: url(#clippath);
      }

      .cls-48 {
        letter-spacing: -.07em;
      }

      .cls-49 {
        letter-spacing: -.02em;
      }

      .cls-50 {
        clip-path: url(#clippath-3);
      }

      .cls-10 {
        fill: #c6e0b4;
      }

      .cls-51 {
        letter-spacing: 0em;
      }

      .cls-52 {
        letter-spacing: 0em;
      }

      .cls-53 {
        letter-spacing: 0em;
      }

      .cls-54 {
        letter-spacing: -.02em;
      }

      .cls-55 {
        letter-spacing: 0em;
      }

      .cls-56 {
        letter-spacing: -.04em;
      }

      .cls-57 {
        letter-spacing: 0em;
      }

      .cls-58 {
        letter-spacing: 0em;
      }

      .cls-11 {
        fill: #fff;
      }

      .cls-59 {
        letter-spacing: 0em;
      }

      .cls-60 {
        letter-spacing: 0em;
      }

      .cls-61 {
        letter-spacing: 0em;
      }

      .cls-62 {
        clip-path: url(#clippath-5);
      }

      .cls-63 {
        letter-spacing: 0em;
      }

      .cls-64 {
        letter-spacing: 0em;
      }

      .cls-65 {
        letter-spacing: 0em;
      }

      .cls-66 {
        letter-spacing: 0em;
      }

      .cls-67 {
        letter-spacing: 0em;
      }

      .cls-12 {
        fill: #d9e1f2;
      }

      .cls-5 {
        font-size: 6.72px;
      }
    </style>
    <clipPath id="clippath">
      <rect class="cls-9" x="1.2" y="62.16" width="456.48" height="10.56"/>
    </clipPath>
    <clipPath id="clippath-1">
      <rect class="cls-9" x="1.2" y="1.2" width="456.48" height="97.2"/>
    </clipPath>
    <clipPath id="clippath-2">
      <rect class="cls-9" x="74.88" y="61.68" width="174.96" height="11.52"/>
    </clipPath>
    <clipPath id="clippath-3">
      <rect class="cls-9" x="74.88" y="1.2" width="174.96" height="12.24"/>
    </clipPath>
    <clipPath id="clippath-4">
      <rect class="cls-9" x="74.88" y="24.24" width="174.96" height="12.72"/>
    </clipPath>
    <clipPath id="clippath-5">
      <rect class="cls-9" x="249.84" y="1.2" width="207.36" height="12.24"/>
    </clipPath>
    <clipPath id="clippath-6">
      <rect class="cls-9" x="249.84" y="61.68" width="207.36" height="11.52"/>
    </clipPath>
    <clipPath id="clippath-7">
      <rect class="cls-9" x="249.84" y="24.24" width="207.36" height="12.72"/>
    </clipPath>
  </defs>
  <g id="Layer_1-2" data-name="Layer 1">
    <rect class="cls-11" x="1.2" y="1.2" width="456.24" height="36"/>
    <rect class="cls-11" x="1.2" y="36.96" width="73.92" height="24.96"/>
    <rect class="cls-10" x="74.88" y="36.96" width="24" height="24.96"/>
    <rect class="cls-7" x="98.64" y="36.96" width="24" height="24.96"/>
    <rect class="cls-10" x="122.4" y="36.96" width="26.16" height="24.96"/>
    <rect class="cls-7" x="148.32" y="36.96" width="26.16" height="24.96"/>
    <rect class="cls-10" x="174.24" y="36.96" width="26.16" height="24.96"/>
    <rect class="cls-7" x="200.16" y="36.96" width="24" height="24.96"/>
    <rect class="cls-10" x="223.92" y="36.96" width="26.16" height="24.96"/>
    <rect class="cls-8" x="249.84" y="36.96" width="26.16" height="24.96"/>
    <rect class="cls-12" x="275.76" y="36.96" width="26.16" height="24.96"/>
    <rect class="cls-8" x="301.68" y="36.96" width="26.16" height="24.96"/>
    <rect class="cls-12" x="327.6" y="36.96" width="26.16" height="24.96"/>
    <rect class="cls-8" x="353.52" y="36.96" width="26.16" height="24.96"/>
    <rect class="cls-12" x="379.44" y="36.96" width="26.16" height="24.96"/>
    <rect class="cls-8" x="405.36" y="36.96" width="26.16" height="24.96"/>
    <rect class="cls-12" x="431.28" y="36.96" width="26.16" height="24.96"/>
    <rect class="cls-11" x="1.2" y="61.68" width="456.24" height="11.76"/>
    <rect class="cls-11" x="1.2" y="73.2" width="73.92" height="12.24"/>
    <rect class="cls-10" x="74.88" y="73.2" width="24" height="12.24"/>
    <rect class="cls-7" x="98.64" y="73.2" width="24" height="12.24"/>
    <rect class="cls-10" x="122.4" y="73.2" width="26.16" height="12.24"/>
    <rect class="cls-7" x="148.32" y="73.2" width="26.16" height="12.24"/>
    <rect class="cls-10" x="174.24" y="73.2" width="26.16" height="12.24"/>
    <rect class="cls-7" x="200.16" y="73.2" width="24" height="12.24"/>
    <rect class="cls-10" x="223.92" y="73.2" width="26.16" height="12.24"/>
    <rect class="cls-6" x="249.84" y="73.2" width="207.6" height="12.24"/>
    <rect class="cls-11" x="1.2" y="85.2" width="73.92" height="12.96"/>
    <rect class="cls-10" x="74.88" y="85.2" width="24" height="12.96"/>
    <rect class="cls-7" x="98.64" y="85.2" width="24" height="12.96"/>
    <rect class="cls-10" x="122.4" y="85.2" width="26.16" height="12.96"/>
    <rect class="cls-7" x="148.32" y="85.2" width="26.16" height="12.96"/>
    <rect class="cls-10" x="174.24" y="85.2" width="26.16" height="12.96"/>
    <rect class="cls-7" x="200.16" y="85.2" width="24" height="12.96"/>
    <rect class="cls-10" x="223.92" y="85.2" width="52.08" height="12.96"/>
    <rect class="cls-7" x="275.76" y="85.2" width="26.16" height="12.96"/>
    <rect class="cls-10" x="301.68" y="85.2" width="26.16" height="12.96"/>
    <rect class="cls-7" x="327.6" y="85.2" width="26.16" height="12.96"/>
    <rect class="cls-10" x="353.52" y="85.2" width="26.16" height="12.96"/>
    <rect class="cls-7" x="379.44" y="85.2" width="26.16" height="12.96"/>
    <rect class="cls-10" x="405.36" y="85.2" width="26.16" height="12.96"/>
    <rect class="cls-7" x="431.28" y="85.2" width="26.16" height="12.96"/>
    <text class="cls-5" transform="translate(37.92 21.12)"><tspan class="cls-37" x="0" y="0">W</tspan><tspan class="cls-33" x="6.48" y="0">o</tspan><tspan class="cls-43" x="10.56" y="0">c</tspan><tspan class="cls-33" x="14.4" y="0">h</tspan><tspan class="cls-43" x="18.48" y="0">e</tspan><tspan class="cls-58" x="22.32" y="0"> </tspan><tspan class="cls-51" x="24.24" y="0">N</tspan><tspan class="cls-26" x="29.05" y="0">r</tspan><tspan class="cls-66" x="31.68" y="0">.</tspan><tspan x="33.6" y="0"> </tspan></text>
    <text class="cls-5" transform="translate(85.2 21.12)"><tspan x="0" y="0">1</tspan></text>
    <text class="cls-5" transform="translate(108.96 21.12)"><tspan x="0" y="0">2</tspan></text>
    <text class="cls-5" transform="translate(133.92 21.12)"><tspan x="0" y="0">3</tspan></text>
    <text class="cls-5" transform="translate(159.84 21.12)"><tspan x="0" y="0">4</tspan></text>
    <text class="cls-5" transform="translate(185.76 21.12)"><tspan x="0" y="0">5</tspan></text>
    <text class="cls-5" transform="translate(210.48 21.12)"><tspan x="0" y="0">6</tspan></text>
    <text class="cls-5" transform="translate(235.44 21.12)"><tspan x="0" y="0">7</tspan></text>
    <text class="cls-5" transform="translate(261.36 21.12)"><tspan x="0" y="0">8</tspan></text>
    <text class="cls-5" transform="translate(287.28 21.12)"><tspan x="0" y="0">9</tspan></text>
    <text class="cls-5" transform="translate(311.28 21.12)"><tspan class="cls-45" x="0" y="0">1</tspan><tspan x="3.83" y="0">0</tspan></text>
    <text class="cls-5" transform="translate(337.2 21.12)"><tspan class="cls-45" x="0" y="0">1</tspan><tspan x="3.83" y="0">1</tspan></text>
    <text class="cls-5" transform="translate(363.11 21.12)"><tspan class="cls-45" x="0" y="0">1</tspan><tspan x="3.83" y="0">2</tspan></text>
    <text class="cls-5" transform="translate(389.03 21.12)"><tspan class="cls-45" x="0" y="0">1</tspan><tspan x="3.83" y="0">3</tspan></text>
    <text class="cls-5" transform="translate(414.95 21.12)"><tspan class="cls-45" x="0" y="0">1</tspan><tspan x="3.83" y="0">4</tspan></text>
    <text class="cls-5" transform="translate(440.87 21.12)"><tspan class="cls-45" x="0" y="0">1</tspan><tspan x="3.83" y="0">5</tspan></text>
    <text class="cls-3" transform="translate(29.04 34.08)"><tspan x="0" y="0">M</tspan><tspan class="cls-52" x="8.4" y="0">I</tspan><tspan class="cls-13" x="11.27" y="0">B</tspan></text>
    <text class="cls-1" transform="translate(2.4 46.56)"><tspan class="cls-39" x="0" y="0">2</tspan><tspan class="cls-60" x="4.56" y="0"> </tspan><tspan class="cls-67" x="6.96" y="0">S</tspan><tspan class="cls-24" x="12.49" y="0">W</tspan><tspan class="cls-27" x="21.12" y="0">S</tspan><tspan class="cls-32" x="26.65" y="0"> </tspan><tspan class="cls-27" x="29.05" y="0">V</tspan><tspan class="cls-20" x="34.58" y="0">o</tspan><tspan class="cls-61" x="38.91" y="0">r</tspan><tspan class="cls-49" x="41.78" y="0">l</tspan><tspan class="cls-20" x="43.46" y="0">e</tspan><tspan class="cls-46" x="47.79" y="0">s</tspan><tspan class="cls-39" x="52.11" y="0">un</tspan><tspan x="61.23" y="0">g</tspan></text>
    <text class="cls-1" transform="translate(2.4 58.56)"><tspan class="cls-39" x="0" y="0">2</tspan><tspan class="cls-60" x="4.56" y="0"> </tspan><tspan class="cls-67" x="6.96" y="0">S</tspan><tspan class="cls-24" x="12.49" y="0">W</tspan><tspan class="cls-27" x="21.12" y="0">S</tspan><tspan class="cls-32" x="26.65" y="0"> </tspan><tspan class="cls-42" x="29.05" y="0">Ü</tspan><tspan class="cls-39" x="35.06" y="0">bun</tspan><tspan class="cls-44" x="48.75" y="0">g</tspan></text>
    <g class="cls-47">
      <text class="cls-3" transform="translate(8.64 70.32)"><tspan class="cls-57" x="0" y="0">O</tspan><tspan x="7.91" y="0">M</tspan><tspan class="cls-22" x="16.31" y="0">B</tspan><tspan class="cls-65" x="23.51" y="0"> </tspan><tspan class="cls-64" x="26.39" y="0">&amp;</tspan><tspan class="cls-65" x="33.59" y="0"> </tspan><tspan class="cls-13" x="36.47" y="0">M</tspan><tspan class="cls-64" x="44.86" y="0">K</tspan><tspan x="52.06" y="0">B</tspan></text>
    </g>
    <text class="cls-1" transform="translate(2.4 82.8)"><tspan class="cls-39" x="0" y="0">1</tspan><tspan class="cls-60" x="4.56" y="0"> </tspan><tspan class="cls-67" x="6.96" y="0">S</tspan><tspan class="cls-24" x="12.49" y="0">W</tspan><tspan class="cls-27" x="21.12" y="0">S</tspan><tspan class="cls-32" x="26.65" y="0"> </tspan><tspan class="cls-27" x="29.05" y="0">V</tspan><tspan class="cls-20" x="34.58" y="0">o</tspan><tspan class="cls-61" x="38.91" y="0">r</tspan><tspan class="cls-49" x="41.78" y="0">l</tspan><tspan class="cls-20" x="43.46" y="0">e</tspan><tspan class="cls-46" x="47.79" y="0">s</tspan><tspan class="cls-39" x="52.11" y="0">un</tspan><tspan x="61.23" y="0">g</tspan></text>
    <g class="cls-35">
      <text class="cls-1" transform="translate(2.4 94.8)"><tspan class="cls-39" x="0" y="0">2</tspan><tspan class="cls-60" x="4.56" y="0"> </tspan><tspan class="cls-67" x="6.96" y="0">S</tspan><tspan class="cls-24" x="12.49" y="0">W</tspan><tspan class="cls-27" x="21.12" y="0">S</tspan><tspan class="cls-32" x="26.65" y="0"> </tspan><tspan class="cls-42" x="29.05" y="0">Ü</tspan><tspan class="cls-39" x="35.06" y="0">bun</tspan><tspan class="cls-44" x="48.75" y="0">g</tspan></text>
    </g>
    <g class="cls-25">
      <text class="cls-4" transform="translate(110.16 70.32)"><tspan class="cls-31" x="0" y="0">M</tspan><tspan class="cls-59" x="6.96" y="0">od</tspan><tspan class="cls-39" x="17.06" y="0">e</tspan><tspan class="cls-41" x="21.62" y="0">lli</tspan><tspan class="cls-56" x="28.12" y="0">n</tspan><tspan class="cls-16" x="32.92" y="0">g</tspan><tspan class="cls-60" x="37.97" y="0"> </tspan><tspan class="cls-59" x="40.37" y="0">T</tspan><tspan class="cls-15" x="45.42" y="0">h</tspan><tspan class="cls-14" x="50.22" y="0">e</tspan><tspan class="cls-16" x="54.78" y="0">o</tspan><tspan class="cls-53" x="59.83" y="0">r</tspan><tspan class="cls-54" x="63.18" y="0">i</tspan><tspan class="cls-39" x="65.35" y="0">e</tspan><tspan class="cls-60" x="69.91" y="0"> </tspan><tspan class="cls-42" x="72.31" y="0">&amp;</tspan><tspan class="cls-32" x="78.32" y="0"> </tspan><tspan class="cls-27" x="80.72" y="0">P</tspan><tspan class="cls-53" x="86.25" y="0">r</tspan><tspan class="cls-39" x="89.6" y="0">ax</tspan><tspan class="cls-54" x="98.72" y="0">i</tspan><tspan x="100.89" y="0">s</tspan></text>
    </g>
    <g class="cls-50">
      <text class="cls-3" transform="translate(121.2 10.56)"><tspan class="cls-64" x="0" y="0">1</tspan><tspan class="cls-52" x="5.53" y="0">.</tspan><tspan class="cls-65" x="8.4" y="0"> </tspan><tspan x="11.28" y="0">S</tspan><tspan class="cls-64" x="18" y="0">emes</tspan><tspan x="43.46" y="0">t</tspan><tspan class="cls-64" x="46.82" y="0">er</tspan><tspan class="cls-29" x="56.18" y="0">h</tspan><tspan class="cls-19" x="62.42" y="0">ä</tspan><tspan class="cls-57" x="67.95" y="0">l</tspan><tspan x="70.82" y="0">fte</tspan></text>
    </g>
    <g class="cls-36">
      <text class="cls-4" transform="translate(110.16 34.08)"><tspan class="cls-31" x="0" y="0">M</tspan><tspan class="cls-59" x="6.96" y="0">od</tspan><tspan class="cls-39" x="17.06" y="0">e</tspan><tspan class="cls-41" x="21.62" y="0">lli</tspan><tspan class="cls-56" x="28.12" y="0">n</tspan><tspan class="cls-16" x="32.92" y="0">g</tspan><tspan class="cls-60" x="37.97" y="0"> </tspan><tspan class="cls-59" x="40.37" y="0">T</tspan><tspan class="cls-15" x="45.42" y="0">h</tspan><tspan class="cls-14" x="50.22" y="0">e</tspan><tspan class="cls-16" x="54.78" y="0">o</tspan><tspan class="cls-53" x="59.83" y="0">r</tspan><tspan class="cls-54" x="63.18" y="0">i</tspan><tspan class="cls-39" x="65.35" y="0">e</tspan><tspan class="cls-60" x="69.91" y="0"> </tspan><tspan class="cls-42" x="72.31" y="0">&amp;</tspan><tspan class="cls-32" x="78.32" y="0"> </tspan><tspan class="cls-27" x="80.72" y="0">P</tspan><tspan class="cls-53" x="86.25" y="0">r</tspan><tspan class="cls-39" x="89.6" y="0">ax</tspan><tspan class="cls-54" x="98.72" y="0">i</tspan><tspan x="100.89" y="0">s</tspan></text>
    </g>
    <g class="cls-62">
      <text class="cls-3" transform="translate(312.48 10.56)"><tspan class="cls-19" x="0" y="0">2</tspan><tspan class="cls-52" x="5.53" y="0">.</tspan><tspan class="cls-38" x="8.4" y="0"> </tspan><tspan x="11.28" y="0">S</tspan><tspan class="cls-19" x="18" y="0">emes</tspan><tspan x="43.46" y="0">t</tspan><tspan class="cls-19" x="46.82" y="0">er</tspan><tspan class="cls-38" x="56.18" y="0">h</tspan><tspan class="cls-19" x="62.42" y="0">ä</tspan><tspan class="cls-52" x="67.95" y="0">l</tspan><tspan x="70.82" y="0">fte</tspan></text>
    </g>
    <g class="cls-30">
      <text class="cls-4" transform="translate(304.8 70.32)"><tspan class="cls-67" x="0" y="0">P</tspan><tspan class="cls-53" x="5.53" y="0">r</tspan><tspan class="cls-59" x="8.88" y="0">od</tspan><tspan class="cls-28" x="18.97" y="0">u</tspan><tspan class="cls-39" x="23.78" y="0">k</tspan><tspan class="cls-63" x="28.34" y="0">t</tspan><tspan class="cls-41" x="31.21" y="0">i</tspan><tspan class="cls-59" x="33.38" y="0">o</tspan><tspan class="cls-15" x="38.43" y="0">n</tspan><tspan class="cls-21" x="43.23" y="0"> </tspan><tspan class="cls-39" x="45.63" y="0">3</tspan><tspan class="cls-40" x="50.19" y="0">D</tspan><tspan class="cls-63" x="56.2" y="0">-</tspan><tspan class="cls-48" x="59.07" y="0">A</tspan><tspan class="cls-15" x="64.59" y="0">n</tspan><tspan class="cls-41" x="69.4" y="0">i</tspan><tspan class="cls-23" x="71.56" y="0">m</tspan><tspan class="cls-39" x="79.01" y="0">a</tspan><tspan class="cls-63" x="83.57" y="0">t</tspan><tspan class="cls-41" x="86.44" y="0">i</tspan><tspan class="cls-59" x="88.61" y="0">o</tspan><tspan x="93.65" y="0">n</tspan></text>
    </g>
    <g class="cls-34">
      <text class="cls-4" transform="translate(296.64 34.08)"><tspan class="cls-39" x="0" y="0">3</tspan><tspan class="cls-40" x="4.56" y="0">D</tspan><tspan class="cls-17" x="10.57" y="0">-</tspan><tspan class="cls-67" x="13.44" y="0">E</tspan><tspan class="cls-39" x="18.97" y="0">c</tspan><tspan class="cls-15" x="23.53" y="0">h</tspan><tspan class="cls-63" x="28.34" y="0">t</tspan><tspan class="cls-46" x="31.21" y="0">z</tspan><tspan class="cls-39" x="35.53" y="0">e</tspan><tspan class="cls-41" x="40.09" y="0">i</tspan><tspan class="cls-17" x="42.25" y="0">t-</tspan><tspan class="cls-67" x="48" y="0">P</tspan><tspan class="cls-53" x="53.53" y="0">r</tspan><tspan class="cls-55" x="56.88" y="0">og</tspan><tspan class="cls-53" x="66.97" y="0">r</tspan><tspan class="cls-39" x="70.33" y="0">a</tspan><tspan class="cls-23" x="74.89" y="0">mm</tspan><tspan class="cls-41" x="89.78" y="0">i</tspan><tspan class="cls-39" x="91.94" y="0">e</tspan><tspan class="cls-53" x="96.51" y="0">r</tspan><tspan class="cls-15" x="99.86" y="0">un</tspan><tspan class="cls-18" x="109.46" y="0">g</tspan></text>
    </g>
    <rect class="cls-2" x="1.68" y="13.2" width="72.48" height=".72"/>
    <rect class="cls-2" x="75.84" y="13.2" width="173.28" height=".72"/>
    <rect class="cls-2" width="1.68" height="98.88"/>
    <rect class="cls-2" x="74.16" y="1.68" width="1.68" height="97.2"/>
    <rect class="cls-2" x="249.12" y="1.68" width="1.68" height="97.2"/>
    <rect class="cls-2" x="456.48" y="1.68" width="1.68" height="97.2"/>
    <rect class="cls-2" x="98.4" y="13.92" width=".72" height="9.6"/>
    <rect class="cls-2" x="122.16" y="13.92" width=".72" height="9.6"/>
    <rect class="cls-2" x="148.08" y="13.92" width=".72" height="9.6"/>
    <rect class="cls-2" x="174" y="13.92" width=".72" height="9.6"/>
    <rect class="cls-2" x="199.92" y="13.92" width=".72" height="9.6"/>
    <rect class="cls-2" x="223.68" y="13.92" width=".72" height="9.6"/>
    <rect class="cls-2" x="275.52" y="13.92" width=".72" height="9.6"/>
    <rect class="cls-2" x="301.44" y="13.92" width=".72" height="9.6"/>
    <rect class="cls-2" x="327.36" y="13.92" width=".72" height="9.6"/>
    <rect class="cls-2" x="353.28" y="13.92" width=".72" height="9.6"/>
    <rect class="cls-2" x="379.2" y="13.92" width=".72" height="9.6"/>
    <rect class="cls-2" x="405.12" y="13.92" width=".72" height="9.6"/>
    <rect class="cls-2" x="431.04" y="13.92" width=".72" height="9.6"/>
    <rect class="cls-2" x="1.68" width="456.48" height="1.68"/>
    <rect class="cls-2" x="250.8" y="13.2" width="205.68" height=".72"/>
    <rect class="cls-2" x="1.68" y="23.52" width="456.48" height="1.68"/>
    <rect class="cls-2" x="1.68" y="60.96" width="456.48" height="1.68"/>
    <rect class="cls-2" x="1.68" y="97.2" width="456.48" height="1.68"/>
  </g>
</svg>