<?xml version="1.0" encoding="UTF-8" standalone="no"?>
<!DOCTYPE svg PUBLIC "-//W3C//DTD SVG 1.1//EN" "http://www.w3.org/Graphics/SVG/1.1/DTD/svg11.dtd">
<svg width="100%" height="100%" viewBox="0 0 418 118" version="1.1" xmlns="http://www.w3.org/2000/svg" xmlns:xlink="http://www.w3.org/1999/xlink" xml:space="preserve" xmlns:serif="http://www.serif.com/" style="fill-rule:evenodd;clip-rule:evenodd;stroke-linejoin:round;stroke-miterlimit:1.41421;">
    <g transform="matrix(1,0,0,1,-100.7,-56.4)">
        <g>
            <clipPath id="_clip1">
                <rect x="51.36" y="57.6" width="466.66" height="118.1"/>
            </clipPath>
            <g clip-path="url(#_clip1)">
                <g transform="matrix(1,0,0,1,0,-714.72)">
                    <rect x="101.42" y="771.84" width="416.23" height="12.96" style="fill:white;"/>
                </g>
                <g transform="matrix(1,0,0,1,0,-689.4)">
                    <rect x="101.42" y="759.36" width="71.76" height="12.6" style="fill:white;"/>
                </g>
                <g transform="matrix(1,0,0,1,0,-689.4)">
                    <rect x="173.06" y="759.36" width="24.72" height="12.6" style="fill:rgb(220,220,220);"/>
                </g>
                <g transform="matrix(1,0,0,1,0,-689.4)">
                    <rect x="197.66" y="759.36" width="24.744" height="12.6" style="fill:rgb(208,206,206);"/>
                </g>
                <g transform="matrix(1,0,0,1,0,-689.4)">
                    <rect x="222.29" y="759.36" width="24.72" height="12.6" style="fill:rgb(220,220,220);"/>
                </g>
                <g transform="matrix(1,0,0,1,0,-689.4)">
                    <rect x="246.89" y="759.36" width="24.72" height="12.6" style="fill:rgb(208,206,206);"/>
                </g>
                <g transform="matrix(1,0,0,1,0,-689.4)">
                    <rect x="271.49" y="759.36" width="24.72" height="12.6" style="fill:rgb(220,220,220);"/>
                </g>
                <g transform="matrix(1,0,0,1,0,-689.4)">
                    <rect x="296.09" y="759.36" width="24.744" height="12.6" style="fill:rgb(208,206,206);"/>
                </g>
                <g transform="matrix(1,0,0,1,0,-689.4)">
                    <rect x="320.71" y="759.36" width="49.32" height="12.6" style="fill:rgb(220,220,220);"/>
                </g>
                <g transform="matrix(1,0,0,1,0,-689.4)">
                    <rect x="369.91" y="759.36" width="24.72" height="12.6" style="fill:rgb(208,206,206);"/>
                </g>
                <g transform="matrix(1,0,0,1,0,-689.4)">
                    <rect x="394.51" y="759.36" width="24.72" height="12.6" style="fill:rgb(220,220,220);"/>
                </g>
                <g transform="matrix(1,0,0,1,0,-689.4)">
                    <rect x="419.11" y="759.36" width="24.744" height="12.6" style="fill:rgb(208,206,206);"/>
                </g>
                <g transform="matrix(1,0,0,1,0,-689.4)">
                    <rect x="443.74" y="759.36" width="24.72" height="12.6" style="fill:rgb(220,220,220);"/>
                </g>
                <g transform="matrix(1,0,0,1,0,-689.4)">
                    <rect x="468.34" y="759.36" width="24.72" height="12.6" style="fill:rgb(208,206,206);"/>
                </g>
                <g transform="matrix(1,0,0,1,0,-689.4)">
                    <rect x="492.94" y="759.36" width="24.72" height="12.6" style="fill:rgb(220,220,220);"/>
                </g>
                <g transform="matrix(1,0,0,1,0,-664.08)">
                    <rect x="101.42" y="746.52" width="416.23" height="12.96" style="fill:white;"/>
                </g>
                <g transform="matrix(1,0,0,1,0,-628.56)">
                    <rect x="101.42" y="723.84" width="71.76" height="22.8" style="fill:white;"/>
                </g>
                <g transform="matrix(1,0,0,1,0,-628.56)">
                    <rect x="173.06" y="723.84" width="24.72" height="22.8" style="fill:rgb(198,224,180);"/>
                </g>
                <g transform="matrix(1,0,0,1,0,-628.56)">
                    <rect x="197.66" y="723.84" width="24.744" height="22.8" style="fill:rgb(226,239,218);"/>
                </g>
                <g transform="matrix(1,0,0,1,0,-628.56)">
                    <rect x="222.29" y="723.84" width="24.72" height="22.8" style="fill:rgb(198,224,180);"/>
                </g>
                <g transform="matrix(1,0,0,1,0,-628.56)">
                    <rect x="246.89" y="723.84" width="24.72" height="22.8" style="fill:rgb(226,239,218);"/>
                </g>
                <g transform="matrix(1,0,0,1,0,-628.56)">
                    <rect x="271.49" y="723.84" width="24.72" height="22.8" style="fill:rgb(198,224,180);"/>
                </g>
                <g transform="matrix(1,0,0,1,0,-628.56)">
                    <rect x="296.09" y="723.84" width="24.744" height="22.8" style="fill:rgb(226,239,218);"/>
                </g>
                <g transform="matrix(1,0,0,1,0,-628.56)">
                    <rect x="320.71" y="723.84" width="24.72" height="22.8" style="fill:rgb(198,224,180);"/>
                </g>
                <g transform="matrix(1,0,0,1,0,-628.56)">
                    <rect x="345.31" y="723.84" width="24.72" height="22.8" style="fill:rgb(180,198,231);"/>
                </g>
                <g transform="matrix(1,0,0,1,0,-628.56)">
                    <rect x="369.91" y="723.84" width="24.72" height="22.8" style="fill:rgb(217,225,242);"/>
                </g>
                <g transform="matrix(1,0,0,1,0,-628.56)">
                    <rect x="394.51" y="723.84" width="24.72" height="22.8" style="fill:rgb(180,198,231);"/>
                </g>
                <g transform="matrix(1,0,0,1,0,-628.56)">
                    <rect x="419.11" y="723.84" width="24.744" height="22.8" style="fill:rgb(217,225,242);"/>
                </g>
                <g transform="matrix(1,0,0,1,0,-628.56)">
                    <rect x="443.74" y="723.84" width="24.72" height="22.8" style="fill:rgb(180,198,231);"/>
                </g>
                <g transform="matrix(1,0,0,1,0,-628.56)">
                    <rect x="468.34" y="723.84" width="24.72" height="22.8" style="fill:rgb(217,225,242);"/>
                </g>
                <g transform="matrix(1,0,0,1,0,-628.56)">
                    <rect x="492.94" y="723.84" width="24.72" height="22.8" style="fill:rgb(180,198,231);"/>
                </g>
                <g transform="matrix(1,0,0,1,0,-593.64)">
                    <rect x="101.42" y="711.6" width="416.23" height="12.36" style="fill:white;"/>
                </g>
                <g transform="matrix(1,0,0,1,0,-570.24)">
                    <rect x="101.42" y="700.44" width="71.76" height="11.28" style="fill:white;"/>
                </g>
                <g transform="matrix(1,0,0,1,0,-570.24)">
                    <rect x="173.06" y="700.44" width="24.72" height="11.28" style="fill:rgb(198,224,180);"/>
                </g>
                <g transform="matrix(1,0,0,1,0,-570.24)">
                    <rect x="197.66" y="700.44" width="24.744" height="11.28" style="fill:rgb(226,239,218);"/>
                </g>
                <g transform="matrix(1,0,0,1,0,-570.24)">
                    <rect x="222.29" y="700.44" width="24.72" height="11.28" style="fill:rgb(198,224,180);"/>
                </g>
                <g transform="matrix(1,0,0,1,0,-570.24)">
                    <rect x="246.89" y="700.44" width="24.72" height="11.28" style="fill:rgb(226,239,218);"/>
                </g>
                <g transform="matrix(1,0,0,1,0,-570.24)">
                    <rect x="271.49" y="700.44" width="24.72" height="11.28" style="fill:rgb(198,224,180);"/>
                </g>
                <g transform="matrix(1,0,0,1,0,-570.24)">
                    <rect x="296.09" y="700.44" width="24.744" height="11.28" style="fill:rgb(226,239,218);"/>
                </g>
                <g transform="matrix(1,0,0,1,0,-570.24)">
                    <rect x="320.71" y="700.44" width="24.72" height="11.28" style="fill:rgb(198,224,180);"/>
                </g>
                <g transform="matrix(1,0,0,1,0,-570.24)">
                    <rect x="345.31" y="700.44" width="172.34" height="11.28" style="fill:rgb(242,242,242);"/>
                </g>
                <g transform="matrix(1,0,0,1,0,-547.56)">
                    <rect x="101.42" y="688.92" width="71.76" height="11.64" style="fill:white;"/>
                </g>
                <g transform="matrix(1,0,0,1,0,-547.56)">
                    <rect x="173.06" y="688.92" width="24.72" height="11.64" style="fill:rgb(198,224,180);"/>
                </g>
                <g transform="matrix(1,0,0,1,0,-547.56)">
                    <rect x="197.66" y="688.92" width="24.744" height="11.64" style="fill:rgb(226,239,218);"/>
                </g>
                <g transform="matrix(1,0,0,1,0,-547.56)">
                    <rect x="222.29" y="688.92" width="24.72" height="11.64" style="fill:rgb(198,224,180);"/>
                </g>
                <g transform="matrix(1,0,0,1,0,-547.56)">
                    <rect x="246.89" y="688.92" width="24.72" height="11.64" style="fill:rgb(226,239,218);"/>
                </g>
                <g transform="matrix(1,0,0,1,0,-547.56)">
                    <rect x="271.49" y="688.92" width="24.72" height="11.64" style="fill:rgb(198,224,180);"/>
                </g>
                <g transform="matrix(1,0,0,1,0,-547.56)">
                    <rect x="296.09" y="688.92" width="24.744" height="11.64" style="fill:rgb(226,239,218);"/>
                </g>
                <g transform="matrix(1,0,0,1,0,-547.56)">
                    <rect x="320.71" y="688.92" width="49.32" height="11.64" style="fill:rgb(198,224,180);"/>
                </g>
                <g transform="matrix(1,0,0,1,0,-547.56)">
                    <rect x="369.91" y="688.92" width="24.72" height="11.64" style="fill:rgb(226,239,218);"/>
                </g>
                <g transform="matrix(1,0,0,1,0,-547.56)">
                    <rect x="394.51" y="688.92" width="24.72" height="11.64" style="fill:rgb(198,224,180);"/>
                </g>
                <g transform="matrix(1,0,0,1,0,-547.56)">
                    <rect x="419.11" y="688.92" width="24.744" height="11.64" style="fill:rgb(226,239,218);"/>
                </g>
                <g transform="matrix(1,0,0,1,0,-547.56)">
                    <rect x="443.74" y="688.92" width="24.72" height="11.64" style="fill:rgb(198,224,180);"/>
                </g>
                <g transform="matrix(1,0,0,1,0,-547.56)">
                    <rect x="468.34" y="688.92" width="24.72" height="11.64" style="fill:rgb(226,239,218);"/>
                </g>
                <g transform="matrix(1,0,0,1,0,-547.56)">
                    <rect x="492.94" y="688.92" width="24.72" height="11.64" style="fill:rgb(198,224,180);"/>
                </g>
                <g>
                    <text x="177.62px" y="78.72px" style="font-family:'Ubuntu-Bold', 'Ubuntu', sans-serif;font-weight:700;font-size:8.4px;">18.3	<tspan x="202.25px " y="78.72px ">2</tspan>5.3</text>
                    <text x="229.25px" y="78.72px" style="font-family:'Ubuntu-Bold', 'Ubuntu', sans-serif;font-weight:700;font-size:8.4px;">1.4</text>
                </g>
                <text x="253.85px" y="78.72px" style="font-family:'Ubuntu-Bold', 'Ubuntu', sans-serif;font-weight:700;font-size:8.4px;">8.4</text>
                <text x="276.05px" y="78.72px" style="font-family:'Ubuntu-Bold', 'Ubuntu', sans-serif;font-weight:700;font-size:8.4px;">15.4	<tspan x="300.65px " y="78.72px ">2</tspan>9.4</text>
                <text x="327.67px" y="78.72px" style="font-family:'Ubuntu-Bold', 'Ubuntu', sans-serif;font-weight:700;font-size:8.4px;">6.5</text>
                <text x="349.87px" y="78.72px" style="font-family:'Ubuntu-Bold', 'Ubuntu', sans-serif;font-weight:700;font-size:8.4px;">13.5 <tspan x="374.455px " y="78.72px ">2</tspan>0.5 <tspan x="399.04px " y="78.72px ">2</tspan>7.5</text>
                <text x="426.07px" y="78.72px" style="font-family:'Ubuntu-Bold', 'Ubuntu', sans-serif;font-weight:700;font-size:8.4px;">3.6</text>
                <text x="448.3px" y="78.72px" style="font-family:'Ubuntu-Bold', 'Ubuntu', sans-serif;font-weight:700;font-size:8.4px;">17.6	<tspan x="472.9px " y="78.72px ">2</tspan>4.6</text>
                <text x="499.9px" y="78.72px" style="font-family:'Ubuntu-Bold', 'Ubuntu', sans-serif;font-weight:700;font-size:8.4px;">1.7</text>
                <g>
                    <text x="128.18px" y="92.28px" style="font-family:'Ubuntu-Bold', 'Ubuntu', sans-serif;font-weight:700;font-size:10.08px;">MIB</text>
                    <text x="103.1px" y="103.44px" style="font-family:'Ubuntu-Italic', 'Ubuntu', sans-serif;font-style:italic;font-size:8.4px;">2</text>
                    <text x="109.778px" y="103.44px" style="font-family:'Ubuntu-Italic', 'Ubuntu', sans-serif;font-style:italic;font-size:8.4px;">S</text>
                    <text x="114.021px" y="103.44px" style="font-family:'Ubuntu-Italic', 'Ubuntu', sans-serif;font-style:italic;font-size:8.4px;">WS Vorlesung</text>
                </g>
                <g>
                    <clipPath id="_clip2">
                        <rect x="51.36" y="106.92" width="466.66" height="10.56"/>
                    </clipPath>
                    <g clip-path="url(#_clip2)">
                        <text x="103.1px" y="114.24px" style="font-family:'Ubuntu-Italic', 'Ubuntu', sans-serif;font-style:italic;font-size:8.4px;">2</text>
                        <text x="109.778px" y="114.24px" style="font-family:'Ubuntu-Italic', 'Ubuntu', sans-serif;font-style:italic;font-size:8.4px;">S</text>
                        <text x="114.021px" y="114.24px" style="font-family:'Ubuntu-Italic', 'Ubuntu', sans-serif;font-style:italic;font-size:8.4px;">WS Übung</text>
                    </g>
                </g>
                <g>
                    <text x="108.62px" y="127.2px" style="font-family:'Ubuntu-Bold', 'Ubuntu', sans-serif;font-weight:700;font-size:10.08px;">OM</text>
                    <text x="125.625px" y="127.2px" style="font-family:'Ubuntu-Bold', 'Ubuntu', sans-serif;font-weight:700;font-size:10.08px;">B</text>
                    <text x="134.718px" y="127.2px" style="font-family:'Ubuntu-Bold', 'Ubuntu', sans-serif;font-weight:700;font-size:10.08px;">&amp;</text>
                    <text x="144.144px" y="127.2px" style="font-family:'Ubuntu-Bold', 'Ubuntu', sans-serif;font-weight:700;font-size:10.08px;">M</text>
                    <text x="153.085px" y="127.2px" style="font-family:'Ubuntu-Bold', 'Ubuntu', sans-serif;font-weight:700;font-size:10.08px;">K</text>
                    <text x="159.98px" y="127.2px" style="font-family:'Ubuntu-Bold', 'Ubuntu', sans-serif;font-weight:700;font-size:10.08px;">B</text>
                    <text x="103.1px" y="138.36px" style="font-family:'Ubuntu-Italic', 'Ubuntu', sans-serif;font-style:italic;font-size:8.4px;">1</text>
                    <text x="109.778px" y="138.36px" style="font-family:'Ubuntu-Italic', 'Ubuntu', sans-serif;font-style:italic;font-size:8.4px;">S</text>
                    <text x="114.021px" y="138.36px" style="font-family:'Ubuntu-Italic', 'Ubuntu', sans-serif;font-style:italic;font-size:8.4px;">WS Vorlesung</text>
                </g>
                <g>
                    <clipPath id="_clip3">
                        <rect x="51.36" y="141.84" width="466.66" height="10.56"/>
                    </clipPath>
                    <g clip-path="url(#_clip3)">
                        <text x="103.1px" y="149.16px" style="font-family:'Ubuntu-Italic', 'Ubuntu', sans-serif;font-style:italic;font-size:8.4px;">2</text>
                        <text x="109.778px" y="149.16px" style="font-family:'Ubuntu-Italic', 'Ubuntu', sans-serif;font-style:italic;font-size:8.4px;">S</text>
                        <text x="114.021px" y="149.16px" style="font-family:'Ubuntu-Italic', 'Ubuntu', sans-serif;font-style:italic;font-size:8.4px;">WS Übung</text>
                    </g>
                </g>
                <g>
                    <text x="174.74px" y="172.22px" style="font-family:'Ubuntu-Bold', 'Ubuntu', sans-serif;font-weight:700;font-size:8.4px;">22.4: Oste</text>
                    <text x="214.548px" y="172.22px" style="font-family:'Ubuntu-Bold', 'Ubuntu', sans-serif;font-weight:700;font-size:8.4px;">r</text>
                    <text x="218.242px" y="172.22px" style="font-family:'Ubuntu-Bold', 'Ubuntu', sans-serif;font-weight:700;font-size:8.4px;">n</text>
                </g>
                <g>
                    <text x="248.57px" y="172.22px" style="font-family:'Ubuntu-Bold', 'Ubuntu', sans-serif;font-weight:700;font-size:8.4px;">10.6: Pﬁ</text>
                    <text x="280.389px" y="172.22px" style="font-family:'Ubuntu-Bold', 'Ubuntu', sans-serif;font-weight:700;font-size:8.4px;">n</text>
                    <text x="285.237px" y="172.22px" style="font-family:'Ubuntu-Bold', 'Ubuntu', sans-serif;font-weight:700;font-size:8.4px;">gs</text>
                    <text x="294.3px" y="172.22px" style="font-family:'Ubuntu-Bold', 'Ubuntu', sans-serif;font-weight:700;font-size:8.4px;">t</text>
                    <text x="298.18px" y="172.22px" style="font-family:'Ubuntu-Bold', 'Ubuntu', sans-serif;font-weight:700;font-size:8.4px;">en</text>
                </g>
                <g>
                    <text x="383.59px" y="127.2px" style="font-family:'Ubuntu-Bold', 'Ubuntu', sans-serif;font-weight:700;font-size:8.4px;">M<tspan x="391.025px " y="127.2px ">o</tspan></text>
                    <text x="396.024px" y="127.2px" style="font-family:'Ubuntu-Bold', 'Ubuntu', sans-serif;font-weight:700;font-size:8.4px;">delling P</text>
                    <text x="431.102px" y="127.2px" style="font-family:'Ubuntu-Bold', 'Ubuntu', sans-serif;font-weight:700;font-size:8.4px;">r</text>
                    <text x="434.747px" y="127.2px" style="font-family:'Ubuntu-Bold', 'Ubuntu', sans-serif;font-weight:700;font-size:8.4px;">o</text>
                    <text x="439.746px" y="127.2px" style="font-family:'Ubuntu-Bold', 'Ubuntu', sans-serif;font-weight:700;font-size:8.4px;">j</text>
                    <text x="441.873px" y="127.2px" style="font-family:'Ubuntu-Bold', 'Ubuntu', sans-serif;font-weight:700;font-size:8.4px;">e</text>
                    <text x="446.779px" y="127.2px" style="font-family:'Ubuntu-Bold', 'Ubuntu', sans-serif;font-weight:700;font-size:8.4px;">kt</text>
                    <text x="455.572px" y="127.2px" style="font-family:'Ubuntu-Bold', 'Ubuntu', sans-serif;font-weight:700;font-size:8.4px;">a</text>
                    <text x="460.217px" y="127.2px" style="font-family:'Ubuntu-Bold', 'Ubuntu', sans-serif;font-weight:700;font-size:8.4px;">r</text>
                    <text x="463.862px" y="127.2px" style="font-family:'Ubuntu-Bold', 'Ubuntu', sans-serif;font-weight:700;font-size:8.4px;">beit</text>
                </g>
                <g>
                    <text x="205.73px" y="127.2px" style="font-family:'Ubuntu-Bold', 'Ubuntu', sans-serif;font-weight:700;font-size:8.4px;">M</text>
                    <text x="213.265px" y="127.2px" style="font-family:'Ubuntu-Bold', 'Ubuntu', sans-serif;font-weight:700;font-size:8.4px;">o</text>
                    <text x="218.214px" y="127.2px" style="font-family:'Ubuntu-Bold', 'Ubuntu', sans-serif;font-weight:700;font-size:8.4px;">delli</text>
                    <text x="235.929px" y="127.2px" style="font-family:'Ubuntu-Bold', 'Ubuntu', sans-serif;font-weight:700;font-size:8.4px;">n</text>
                    <text x="240.777px" y="127.2px" style="font-family:'Ubuntu-Bold', 'Ubuntu', sans-serif;font-weight:700;font-size:8.4px;">g Theorie &amp; P</text>
                    <text x="294.134px" y="127.2px" style="font-family:'Ubuntu-Bold', 'Ubuntu', sans-serif;font-weight:700;font-size:8.4px;">r</text>
                    <text x="297.744px" y="127.2px" style="font-family:'Ubuntu-Bold', 'Ubuntu', sans-serif;font-weight:700;font-size:8.4px;">axis</text>
                </g>
                <text x="115.94px" y="73.8px" style="font-family:'Ubuntu-Bold', 'Ubuntu', sans-serif;font-weight:700;font-size:11.76px;">SS 2019</text>
                <g>
                    <text x="388.75px" y="66.96px" style="font-family:'Ubuntu-Bold', 'Ubuntu', sans-serif;font-weight:700;font-size:10.08px;">2.</text>
                    <text x="399.524px" y="66.96px" style="font-family:'Ubuntu-Bold', 'Ubuntu', sans-serif;font-weight:700;font-size:10.08px;">Se</text>
                    <text x="411.278px" y="66.96px" style="font-family:'Ubuntu-Bold', 'Ubuntu', sans-serif;font-weight:700;font-size:10.08px;">m</text>
                    <text x="420.067px" y="66.96px" style="font-family:'Ubuntu-Bold', 'Ubuntu', sans-serif;font-weight:700;font-size:10.08px;">es</text>
                    <text x="430.842px" y="66.96px" style="font-family:'Ubuntu-Bold', 'Ubuntu', sans-serif;font-weight:700;font-size:10.08px;">t</text>
                    <text x="435.418px" y="66.96px" style="font-family:'Ubuntu-Bold', 'Ubuntu', sans-serif;font-weight:700;font-size:10.08px;">e</text>
                    <text x="441.304px" y="66.96px" style="font-family:'Ubuntu-Bold', 'Ubuntu', sans-serif;font-weight:700;font-size:10.08px;">r</text>
                    <text x="445.658px" y="66.96px" style="font-family:'Ubuntu-Bold', 'Ubuntu', sans-serif;font-weight:700;font-size:10.08px;">h</text>
                    <text x="451.445px" y="66.96px" style="font-family:'Ubuntu-Bold', 'Ubuntu', sans-serif;font-weight:700;font-size:10.08px;">äl</text>
                    <text x="460.205px" y="66.96px" style="font-family:'Ubuntu-Bold', 'Ubuntu', sans-serif;font-weight:700;font-size:10.08px;">f<tspan x="464.558px " y="66.96px ">t</tspan></text>
                    <text x="469.134px" y="66.96px" style="font-family:'Ubuntu-Bold', 'Ubuntu', sans-serif;font-weight:700;font-size:10.08px;">e</text>
                </g>
                <g>
                    <text x="216.53px" y="66.96px" style="font-family:'Ubuntu-Bold', 'Ubuntu', sans-serif;font-weight:700;font-size:10.08px;">1.</text>
                    <text x="227.304px" y="66.96px" style="font-family:'Ubuntu-Bold', 'Ubuntu', sans-serif;font-weight:700;font-size:10.08px;">Se</text>
                    <text x="239.058px" y="66.96px" style="font-family:'Ubuntu-Bold', 'Ubuntu', sans-serif;font-weight:700;font-size:10.08px;">m</text>
                    <text x="247.847px" y="66.96px" style="font-family:'Ubuntu-Bold', 'Ubuntu', sans-serif;font-weight:700;font-size:10.08px;">es</text>
                    <text x="258.622px" y="66.96px" style="font-family:'Ubuntu-Bold', 'Ubuntu', sans-serif;font-weight:700;font-size:10.08px;">t</text>
                    <text x="263.198px" y="66.96px" style="font-family:'Ubuntu-Bold', 'Ubuntu', sans-serif;font-weight:700;font-size:10.08px;">e</text>
                    <text x="269.084px" y="66.96px" style="font-family:'Ubuntu-Bold', 'Ubuntu', sans-serif;font-weight:700;font-size:10.08px;">r</text>
                    <text x="273.438px" y="66.96px" style="font-family:'Ubuntu-Bold', 'Ubuntu', sans-serif;font-weight:700;font-size:10.08px;">h</text>
                    <text x="279.225px" y="66.96px" style="font-family:'Ubuntu-Bold', 'Ubuntu', sans-serif;font-weight:700;font-size:10.08px;">äl</text>
                    <text x="287.985px" y="66.96px" style="font-family:'Ubuntu-Bold', 'Ubuntu', sans-serif;font-weight:700;font-size:10.08px;">f<tspan x="292.338px " y="66.96px ">t</tspan></text>
                    <text x="296.914px" y="66.96px" style="font-family:'Ubuntu-Bold', 'Ubuntu', sans-serif;font-weight:700;font-size:10.08px;">e</text>
                    <text x="205.73px" y="92.28px" style="font-family:'Ubuntu-Bold', 'Ubuntu', sans-serif;font-weight:700;font-size:8.4px;">M</text>
                    <text x="213.265px" y="92.28px" style="font-family:'Ubuntu-Bold', 'Ubuntu', sans-serif;font-weight:700;font-size:8.4px;">o</text>
                    <text x="218.214px" y="92.28px" style="font-family:'Ubuntu-Bold', 'Ubuntu', sans-serif;font-weight:700;font-size:8.4px;">delli</text>
                    <text x="235.929px" y="92.28px" style="font-family:'Ubuntu-Bold', 'Ubuntu', sans-serif;font-weight:700;font-size:8.4px;">n</text>
                    <text x="240.777px" y="92.28px" style="font-family:'Ubuntu-Bold', 'Ubuntu', sans-serif;font-weight:700;font-size:8.4px;">g Theorie &amp; P</text>
                    <text x="294.134px" y="92.28px" style="font-family:'Ubuntu-Bold', 'Ubuntu', sans-serif;font-weight:700;font-size:8.4px;">r</text>
                    <text x="297.744px" y="92.28px" style="font-family:'Ubuntu-Bold', 'Ubuntu', sans-serif;font-weight:700;font-size:8.4px;">axis</text>
                </g>
                <g>
                    <text x="373.03px" y="92.28px" style="font-family:'Ubuntu-Bold', 'Ubuntu', sans-serif;font-weight:700;font-size:8.4px;">3D-Ech</text>
                    <text x="401.086px" y="92.28px" style="font-family:'Ubuntu-Bold', 'Ubuntu', sans-serif;font-weight:700;font-size:8.4px;">t</text>
                    <text x="404.916px" y="92.28px" style="font-family:'Ubuntu-Bold', 'Ubuntu', sans-serif;font-weight:700;font-size:8.4px;">zei</text>
                    <text x="416.449px" y="92.28px" style="font-family:'Ubuntu-Bold', 'Ubuntu', sans-serif;font-weight:700;font-size:8.4px;">t</text>
                    <text x="420.278px" y="92.28px" style="font-family:'Ubuntu-Bold', 'Ubuntu', sans-serif;font-weight:700;font-size:8.4px;">-P</text>
                    <text x="428.544px" y="92.28px" style="font-family:'Ubuntu-Bold', 'Ubuntu', sans-serif;font-weight:700;font-size:8.4px;">r</text>
                    <text x="432.189px" y="92.28px" style="font-family:'Ubuntu-Bold', 'Ubuntu', sans-serif;font-weight:700;font-size:8.4px;">o</text>
                    <text x="437.188px" y="92.28px" style="font-family:'Ubuntu-Bold', 'Ubuntu', sans-serif;font-weight:700;font-size:8.4px;">g</text>
                    <text x="442.177px" y="92.28px" style="font-family:'Ubuntu-Bold', 'Ubuntu', sans-serif;font-weight:700;font-size:8.4px;">r</text>
                    <text x="445.822px" y="92.28px" style="font-family:'Ubuntu-Bold', 'Ubuntu', sans-serif;font-weight:700;font-size:8.4px;">ammie</text>
                    <text x="472.282px" y="92.28px" style="font-family:'Ubuntu-Bold', 'Ubuntu', sans-serif;font-weight:700;font-size:8.4px;">r</text>
                    <text x="475.777px" y="92.28px" style="font-family:'Ubuntu-Bold', 'Ubuntu', sans-serif;font-weight:700;font-size:8.4px;">ung</text>
                </g>
            </g>
        </g>
        <g transform="matrix(1,0,0,1,0,-631.8)">
            <rect x="100.7" y="688.2" width="1.56" height="97.32"/>
        </g>
        <g transform="matrix(1,0,0,1,0,-630.24)">
            <rect x="172.34" y="688.2" width="1.56" height="95.76"/>
        </g>
        <g transform="matrix(1,0,0,1,0,-630.24)">
            <rect x="344.59" y="688.2" width="1.56" height="95.76"/>
        </g>
        <g transform="matrix(1,0,0,1,0,-630.24)">
            <rect x="516.82" y="688.2" width="1.56" height="95.76"/>
        </g>
        <g transform="matrix(1,0,0,1,0,-727.56)">
            <rect x="102.26" y="783.96" width="416.11" height="1.56"/>
        </g>
        <g transform="matrix(1,0,0,1,0,-676.92)">
            <rect x="102.26" y="758.64" width="416.11" height="1.56"/>
        </g>
        <g transform="matrix(1,0,0,1,0,-605.88)">
            <rect x="102.26" y="723.12" width="416.11" height="1.56"/>
        </g>
        <g transform="matrix(1,0,0,1,0,-536.04)">
            <rect x="102.26" y="688.2" width="416.11" height="1.56"/>
        </g>
    </g>
</svg>
