<?xml version="1.0" encoding="utf-8"?>
<!-- Generator: Adobe Illustrator 26.5.0, SVG Export Plug-In . SVG Version: 6.00 Build 0)  -->
<svg version="1.1" id="Layer_1" xmlns="http://www.w3.org/2000/svg" xmlns:xlink="http://www.w3.org/1999/xlink" x="0px" y="0px"
	 viewBox="0 0 580.29 135.71" style="enable-background:new 0 0 580.29 135.71;" xml:space="preserve">
<style type="text/css">
	.st0{fill:#FFFFFF;}
	.st1{fill-rule:evenodd;clip-rule:evenodd;fill:#DBDBDB;}
	.st2{fill-rule:evenodd;clip-rule:evenodd;fill:#D0CECE;}
	.st3{fill-rule:evenodd;clip-rule:evenodd;fill:#C6E0B4;}
	.st4{fill-rule:evenodd;clip-rule:evenodd;fill:#E2EFDA;}
	.st5{fill-rule:evenodd;clip-rule:evenodd;fill:#D9E1F2;}
	.st6{fill-rule:evenodd;clip-rule:evenodd;fill:#B4C6E7;}
	.st7{fill-rule:evenodd;clip-rule:evenodd;fill:#F2F2F2;}
	.st8{fill:#C6E0B4;}
	.st9{fill:#E2EFDA;}
	.st10{font-family:'Ubuntu-Bold';}
	.st11{font-size:8px;}
	.st12{clip-path:url(#SVGID_00000111909608517926693660000010098081377243243686_);}
	.st13{font-size:10px;}
	.st14{clip-path:url(#SVGID_00000158714387252905996290000001614365224587616416_);}
	.st15{clip-path:url(#SVGID_00000122715024671509555910000000472497564325529262_);}
	.st16{clip-path:url(#SVGID_00000119097452112725059700000017930762775509396375_);}
	.st17{clip-path:url(#SVGID_00000078042728240251308490000014756579111884400054_);}
	
		.st18{clip-path:url(#SVGID_00000078042728240251308490000014756579111884400054_);fill:none;stroke:#000000;stroke-width:0.286;stroke-miterlimit:10;}
	.st19{font-size:12px;}
	.st20{font-family:'Ubuntu-Regular';}
	.st21{clip-path:url(#SVGID_00000030468759842767343590000007925719624187846814_);}
	.st22{font-size:14px;}
	.st23{clip-path:url(#SVGID_00000173866603628530562640000012609578493086972804_);}
	.st24{clip-path:url(#SVGID_00000147937295425765537430000000390415618291738010_);}
	.st25{clip-path:url(#SVGID_00000139992383797260788090000009667641723094351242_);}
	.st26{clip-path:url(#SVGID_00000076579789963521790720000012573333610252245637_);}
	.st27{fill-rule:evenodd;clip-rule:evenodd;}
	.st28{fill:none;stroke:#000000;stroke-width:0;stroke-linecap:square;stroke-miterlimit:10;}
</style>
<rect x="1.57" y="1.57" class="st0" width="577.86" height="29.86"/>
<rect x="1.57" y="31.29" class="st0" width="88.71" height="14.14"/>
<rect x="90.14" y="31.28" class="st1" width="28.86" height="14.14"/>
<rect x="118.86" y="31.28" class="st2" width="28.86" height="14.14"/>
<rect x="147.57" y="31.28" class="st1" width="31.14" height="14.14"/>
<rect x="178.57" y="31.28" class="st2" width="31.14" height="14.14"/>
<rect x="209.57" y="31.28" class="st1" width="31.14" height="14.14"/>
<rect x="240.57" y="31.28" class="st2" width="28.86" height="14.14"/>
<rect x="269.29" y="31.28" class="st1" width="31.14" height="14.14"/>
<rect x="300.29" y="31.28" class="st2" width="31.14" height="14.14"/>
<rect x="331.29" y="31.28" class="st1" width="31.14" height="14.14"/>
<rect x="362.29" y="31.28" class="st2" width="31.14" height="14.14"/>
<rect x="393.29" y="31.28" class="st1" width="31.14" height="14.14"/>
<rect x="424.29" y="31.28" class="st2" width="31.14" height="14.14"/>
<rect x="455.28" y="31.28" class="st1" width="31.14" height="14.14"/>
<rect x="486.28" y="31.28" class="st2" width="31.14" height="14.14"/>
<rect x="517.28" y="31.28" class="st1" width="31.14" height="14.14"/>
<rect x="548.28" y="31.28" class="st2" width="31.14" height="14.14"/>
<rect x="1.57" y="45.28" class="st0" width="577.86" height="16.71"/>
<rect x="1.57" y="61.86" class="st0" width="88.71" height="29.71"/>
<rect x="90.14" y="61.86" class="st3" width="28.86" height="29.71"/>
<rect x="118.86" y="61.86" class="st4" width="28.86" height="29.71"/>
<rect x="147.57" y="61.86" class="st3" width="31.14" height="29.71"/>
<rect x="178.57" y="61.86" class="st4" width="31.14" height="29.71"/>
<rect x="209.57" y="61.86" class="st3" width="31.14" height="29.71"/>
<rect x="240.57" y="61.86" class="st4" width="28.86" height="29.71"/>
<rect x="269.29" y="61.86" class="st3" width="31.14" height="29.71"/>
<rect x="300.29" y="61.86" class="st4" width="31.14" height="29.71"/>
<rect x="331.29" y="61.86" class="st5" width="31.14" height="29.71"/>
<rect x="362.29" y="61.86" class="st6" width="31.14" height="29.71"/>
<rect x="393.29" y="61.86" class="st5" width="31.14" height="29.71"/>
<rect x="424.29" y="61.86" class="st6" width="31.14" height="29.71"/>
<rect x="455.28" y="61.86" class="st5" width="31.14" height="29.71"/>
<rect x="486.28" y="61.86" class="st6" width="31.14" height="29.71"/>
<rect x="517.28" y="61.86" class="st5" width="31.14" height="29.71"/>
<rect x="548.28" y="61.86" class="st6" width="31.14" height="29.71"/>
<rect x="1.57" y="91.43" class="st0" width="577.86" height="13.86"/>
<rect x="1.57" y="105.14" class="st0" width="88.71" height="14.57"/>
<rect x="90.14" y="105.14" class="st3" width="28.86" height="14.57"/>
<rect x="118.86" y="105.14" class="st4" width="28.86" height="14.57"/>
<rect x="147.57" y="105.14" class="st3" width="31.14" height="14.57"/>
<rect x="178.57" y="105.14" class="st4" width="31.14" height="14.57"/>
<rect x="209.57" y="105.14" class="st3" width="31.14" height="14.57"/>
<rect x="240.57" y="105.14" class="st4" width="28.86" height="14.57"/>
<rect x="269.29" y="105.14" class="st3" width="31.14" height="14.57"/>
<rect x="300.29" y="105.14" class="st4" width="31.14" height="14.57"/>
<rect x="331.29" y="105.14" class="st7" width="248.14" height="14.57"/>
<rect x="1.57" y="119.57" class="st0" width="88.71" height="15.29"/>
<rect x="90.14" y="119.57" class="st8" width="28.86" height="15.29"/>
<rect x="118.86" y="119.57" class="st9" width="28.86" height="15.29"/>
<rect x="147.57" y="119.57" class="st8" width="31.14" height="15.29"/>
<rect x="178.57" y="119.57" class="st9" width="31.14" height="15.29"/>
<rect x="209.57" y="119.57" class="st8" width="31.14" height="15.29"/>
<rect x="240.57" y="119.57" class="st9" width="28.86" height="15.29"/>
<rect x="269.29" y="119.57" class="st8" width="31.14" height="15.29"/>
<rect x="300.29" y="119.57" class="st9" width="31.14" height="15.29"/>
<rect x="331.29" y="119.57" class="st8" width="31.14" height="15.29"/>
<rect x="362.29" y="119.57" class="st9" width="31.14" height="15.29"/>
<rect x="393.29" y="119.57" class="st8" width="31.14" height="15.29"/>
<rect x="424.29" y="119.57" class="st9" width="31.14" height="15.29"/>
<rect x="455.28" y="119.57" class="st8" width="31.14" height="15.29"/>
<rect x="486.29" y="119.57" class="st9" width="31.14" height="15.29"/>
<rect x="517.28" y="119.57" class="st8" width="31.14" height="15.29"/>
<rect x="548.28" y="119.57" class="st9" width="31.14" height="15.29"/>
<text transform="matrix(1 0 0 1 102.714 26.8571)" class="st10 st11">1</text>
<text transform="matrix(1 0 0 1 131.4259 26.8571)" class="st10 st11">2</text>
<text transform="matrix(1 0 0 1 161.2819 26.8571)" class="st10 st11">3</text>
<text transform="matrix(1 0 0 1 192.2819 26.8571)" class="st10 st11">4</text>
<text transform="matrix(1 0 0 1 223.2819 26.8571)" class="st10 st11">5</text>
<text transform="matrix(1 0 0 1 253.1378 26.8571)" class="st10 st11">6</text>
<text transform="matrix(1 0 0 1 282.9938 26.8571)" class="st10 st11">7</text>
<text transform="matrix(1 0 0 1 313.9943 26.8571)" class="st10 st11">8</text>
<text transform="matrix(1 0 0 1 344.9943 26.8571)" class="st10 st11">9</text>
<text transform="matrix(1 0 0 1 373.7062 26.8571)"><tspan x="0" y="0" class="st10 st11">1</tspan><tspan x="4.56" y="0" class="st10 st11">0</tspan></text>
<text transform="matrix(1 0 0 1 404.7062 26.8571)"><tspan x="0" y="0" class="st10 st11">1</tspan><tspan x="4.56" y="0" class="st10 st11">1</tspan></text>
<text transform="matrix(1 0 0 1 435.7062 26.8571)"><tspan x="0" y="0" class="st10 st11">1</tspan><tspan x="4.56" y="0" class="st10 st11">2</tspan></text>
<text transform="matrix(1 0 0 1 466.7062 26.8571)"><tspan x="0" y="0" class="st10 st11">1</tspan><tspan x="4.56" y="0" class="st10 st11">3</tspan></text>
<text transform="matrix(1 0 0 1 497.7062 26.8571)"><tspan x="0" y="0" class="st10 st11">1</tspan><tspan x="4.56" y="0" class="st10 st11">4</tspan></text>
<text transform="matrix(1 0 0 1 528.7062 26.8571)"><tspan x="0" y="0" class="st10 st11">1</tspan><tspan x="4.56" y="0" class="st10 st11">5</tspan></text>
<text transform="matrix(1 0 0 1 559.7062 26.8571)"><tspan x="0" y="0" class="st10 st11">1</tspan><tspan x="4.56" y="0" class="st10 st11">6</tspan></text>
<g>
	<defs>
		<rect id="SVGID_1_" x="90.71" y="31.86" width="27.71" height="13"/>
	</defs>
	<clipPath id="SVGID_00000173849199454622000050000012703727461536347524_">
		<use xlink:href="#SVGID_1_"  style="overflow:visible;"/>
	</clipPath>
	<g style="clip-path:url(#SVGID_00000173849199454622000050000012703727461536347524_);">
		<text transform="matrix(1 0 0 1 91.1427 40.714)"><tspan x="0" y="0" class="st10 st13">10</tspan><tspan x="11.4" y="0" class="st10 st13">.</tspan><tspan x="13.83" y="0" class="st10 st13">10</tspan><tspan x="25.23" y="0" class="st10 st13">.</tspan></text>
	</g>
</g>
<g>
	<defs>
		<rect id="SVGID_00000085239072995546764450000012582049991176874167_" x="119.43" y="31.86" width="27.71" height="13"/>
	</defs>
	<clipPath id="SVGID_00000116207901470432229660000007577074424274082703_">
		<use xlink:href="#SVGID_00000085239072995546764450000012582049991176874167_"  style="overflow:visible;"/>
	</clipPath>
	<g style="clip-path:url(#SVGID_00000116207901470432229660000007577074424274082703_);">
		<text transform="matrix(1 0 0 1 119.8571 40.714)"><tspan x="0" y="0" class="st10 st13">17</tspan><tspan x="11.4" y="0" class="st10 st13">.</tspan><tspan x="13.83" y="0" class="st10 st13">10</tspan><tspan x="25.23" y="0" class="st10 st13">.</tspan></text>
	</g>
</g>
<g>
	<defs>
		<rect id="SVGID_00000020398971117954423560000015378103080551593113_" x="1.57" y="31.86" width="578.29" height="13"/>
	</defs>
	<clipPath id="SVGID_00000076596920604475829000000016830881108517949363_">
		<use xlink:href="#SVGID_00000020398971117954423560000015378103080551593113_"  style="overflow:visible;"/>
	</clipPath>
	<g style="clip-path:url(#SVGID_00000076596920604475829000000016830881108517949363_);">
		<text transform="matrix(1 0 0 1 149.714 40.714)"><tspan x="0" y="0" class="st10 st13">24</tspan><tspan x="11.4" y="0" class="st10 st13">.</tspan><tspan x="13.83" y="0" class="st10 st13">10</tspan><tspan x="25.23" y="0" class="st10 st13">.</tspan></text>
	</g>
	<g style="clip-path:url(#SVGID_00000076596920604475829000000016830881108517949363_);">
		<text transform="matrix(1 0 0 1 180.714 40.714)"><tspan x="0" y="0" class="st10 st13">31</tspan><tspan x="11.4" y="0" class="st10 st13">.</tspan><tspan x="13.83" y="0" class="st10 st13">1</tspan><tspan x="19.54" y="0" class="st10 st13">0</tspan><tspan x="25.24" y="0" class="st10 st13">.</tspan></text>
	</g>
	<g style="clip-path:url(#SVGID_00000076596920604475829000000016830881108517949363_);">
		<text transform="matrix(1 0 0 1 211.714 40.714)"><tspan x="0" y="0" class="st10 st13">07</tspan><tspan x="11.4" y="0" class="st10 st13">.</tspan><tspan x="13.83" y="0" class="st10 st13">11</tspan><tspan x="25.23" y="0" class="st10 st13">.</tspan></text>
	</g>
</g>
<g>
	<defs>
		<rect id="SVGID_00000088824789217664339830000005238953193881594779_" x="241.14" y="31.86" width="27.71" height="13"/>
	</defs>
	<clipPath id="SVGID_00000139991508013503033040000010882053533786909873_">
		<use xlink:href="#SVGID_00000088824789217664339830000005238953193881594779_"  style="overflow:visible;"/>
	</clipPath>
	<g style="clip-path:url(#SVGID_00000139991508013503033040000010882053533786909873_);">
		<text transform="matrix(1 0 0 1 241.5709 40.714)"><tspan x="0" y="0" class="st10 st13">14</tspan><tspan x="11.4" y="0" class="st10 st13">.</tspan><tspan x="13.83" y="0" class="st10 st13">1</tspan><tspan x="19.54" y="0" class="st10 st13">1</tspan><tspan x="25.24" y="0" class="st10 st13">.</tspan></text>
	</g>
</g>
<g>
	<defs>
		<rect id="SVGID_00000068662198723983218960000018325327505295728517_" x="1.57" y="31.86" width="578.29" height="13"/>
	</defs>
	<clipPath id="SVGID_00000116914545783428460810000016881432777902571155_">
		<use xlink:href="#SVGID_00000068662198723983218960000018325327505295728517_"  style="overflow:visible;"/>
	</clipPath>
	<g style="clip-path:url(#SVGID_00000116914545783428460810000016881432777902571155_);">
		<text transform="matrix(1 0 0 1 272.714 40.714)"><tspan x="0" y="0" class="st10 st13">21</tspan><tspan x="11.4" y="0" class="st10 st13">.</tspan><tspan x="13.83" y="0" class="st10 st13">1</tspan><tspan x="19.53" y="0" class="st10 st13">1</tspan></text>
	</g>
	<g style="clip-path:url(#SVGID_00000116914545783428460810000016881432777902571155_);">
		<text transform="matrix(1 0 0 1 302.4279 40.714)"><tspan x="0" y="0" class="st10 st13">28</tspan><tspan x="11.4" y="0" class="st10 st13">.</tspan><tspan x="13.83" y="0" class="st10 st13">11</tspan><tspan x="25.23" y="0" class="st10 st13">.</tspan></text>
	</g>
	<g style="clip-path:url(#SVGID_00000116914545783428460810000016881432777902571155_);">
		<text transform="matrix(1 0 0 1 333.4279 40.714)"><tspan x="0" y="0" class="st10 st13">05</tspan><tspan x="11.4" y="0" class="st10 st13">.</tspan><tspan x="13.83" y="0" class="st10 st13">12</tspan><tspan x="25.23" y="0" class="st10 st13">.</tspan></text>
	</g>
	<g style="clip-path:url(#SVGID_00000116914545783428460810000016881432777902571155_);">
		<text transform="matrix(1 0 0 1 364.4279 40.714)"><tspan x="0" y="0" class="st10 st13">12</tspan><tspan x="11.4" y="0" class="st10 st13">.</tspan><tspan x="13.83" y="0" class="st10 st13">12</tspan><tspan x="25.23" y="0" class="st10 st13">.</tspan></text>
	</g>
	<g style="clip-path:url(#SVGID_00000116914545783428460810000016881432777902571155_);">
		<text transform="matrix(1 0 0 1 395.4279 40.714)"><tspan x="0" y="0" class="st10 st13">19</tspan><tspan x="11.4" y="0" class="st10 st13">.</tspan><tspan x="13.83" y="0" class="st10 st13">12</tspan><tspan x="25.23" y="0" class="st10 st13">.</tspan></text>
	</g>
	<path style="clip-path:url(#SVGID_00000116914545783428460810000016881432777902571155_);" d="M444.59,40.02
		c0,0.16-0.03,0.3-0.09,0.43c0.06,0.08,0.11,0.15,0.16,0.22s0.1,0.14,0.14,0.22c0.04,0.07,0.07,0.15,0.1,0.24
		c0.03,0.08,0.04,0.18,0.04,0.28c0,0.15-0.03,0.28-0.08,0.41c-0.06,0.13-0.13,0.24-0.22,0.33c-0.09,0.1-0.21,0.17-0.33,0.23
		c-0.13,0.06-0.26,0.08-0.41,0.08c-0.12,0-0.23-0.02-0.33-0.06c-0.1-0.04-0.2-0.09-0.29-0.15c-0.09-0.06-0.18-0.13-0.27-0.2
		c-0.09-0.07-0.17-0.14-0.26-0.21c-0.04,0.09-0.1,0.18-0.16,0.25c-0.07,0.07-0.14,0.14-0.22,0.19c-0.08,0.05-0.17,0.09-0.27,0.12
		c-0.1,0.03-0.19,0.04-0.3,0.04v0.35h-2.81v-0.35c-0.21,0-0.4-0.05-0.57-0.16c-0.17-0.11-0.3-0.26-0.39-0.45
		c-0.09,0.07-0.18,0.14-0.26,0.21c-0.09,0.07-0.18,0.14-0.27,0.2c-0.09,0.06-0.19,0.11-0.29,0.15c-0.1,0.04-0.21,0.06-0.33,0.06
		c-0.15,0-0.28-0.03-0.41-0.08c-0.13-0.06-0.24-0.13-0.33-0.23c-0.09-0.1-0.17-0.21-0.22-0.33c-0.06-0.13-0.08-0.26-0.08-0.41
		c0-0.1,0.01-0.19,0.04-0.28c0.02-0.08,0.06-0.16,0.1-0.24c0.04-0.07,0.09-0.15,0.14-0.22s0.11-0.15,0.16-0.22
		c-0.06-0.13-0.09-0.28-0.09-0.43c0-0.22,0.07-0.43,0.2-0.62l0.66-0.94c-0.06-0.08-0.1-0.17-0.12-0.27
		c-0.03-0.09-0.04-0.19-0.04-0.29c0-0.11,0.02-0.22,0.06-0.33s0.09-0.21,0.16-0.3l0.55-0.77c-0.02-0.06-0.04-0.12-0.05-0.18
		c-0.01-0.06-0.02-0.12-0.02-0.18c0-0.12,0.02-0.23,0.06-0.33s0.09-0.2,0.16-0.3l1.18-1.65c-0.1-0.1-0.19-0.21-0.25-0.32
		c-0.06-0.11-0.09-0.24-0.09-0.39c0-0.12,0.02-0.23,0.07-0.33c0.05-0.1,0.11-0.2,0.19-0.28c0.08-0.08,0.17-0.15,0.27-0.19
		c0.1-0.05,0.21-0.07,0.33-0.07c0.05-0.1,0.1-0.19,0.15-0.28c0.05-0.09,0.11-0.16,0.18-0.22s0.15-0.11,0.24-0.15
		c0.09-0.03,0.2-0.05,0.32-0.05c0.12,0,0.23,0.02,0.32,0.05c0.09,0.03,0.17,0.08,0.24,0.15s0.13,0.14,0.18,0.22
		c0.05,0.09,0.1,0.18,0.15,0.28c0.12,0,0.23,0.02,0.34,0.07c0.1,0.05,0.2,0.11,0.27,0.19c0.08,0.08,0.14,0.17,0.18,0.28
		s0.07,0.22,0.07,0.34c0,0.15-0.03,0.28-0.09,0.39c-0.06,0.11-0.14,0.21-0.25,0.31l1.19,1.67c0.07,0.09,0.12,0.19,0.15,0.29
		c0.04,0.1,0.05,0.21,0.05,0.32c0,0.13-0.02,0.25-0.06,0.36l0.56,0.78c0.07,0.09,0.12,0.19,0.15,0.29c0.04,0.1,0.05,0.21,0.05,0.32
		c0,0.21-0.05,0.4-0.16,0.56l0.66,0.93C444.53,39.59,444.59,39.79,444.59,40.02L444.59,40.02z M443.68,41.69
		c0.06,0.05,0.13,0.07,0.21,0.07c0.1,0,0.18-0.03,0.25-0.1c0.07-0.07,0.1-0.15,0.1-0.25c0-0.07-0.02-0.14-0.07-0.21l-0.61-0.85
		c0.09-0.01,0.17-0.04,0.23-0.11c0.06-0.07,0.09-0.14,0.09-0.24c0-0.07-0.02-0.14-0.07-0.21l-1.1-1.55c0.06,0,0.12,0,0.17-0.01
		c0.06-0.01,0.11-0.03,0.15-0.05c0.04-0.03,0.08-0.06,0.1-0.11c0.03-0.05,0.04-0.1,0.04-0.18c0-0.07-0.02-0.14-0.07-0.21l-0.87-1.22
		c0.07-0.03,0.13-0.07,0.17-0.13c0.05-0.06,0.07-0.13,0.07-0.2c0-0.04-0.01-0.07-0.02-0.11c-0.01-0.03-0.03-0.07-0.05-0.1
		l-1.04-1.46c-0.04,0.08-0.1,0.15-0.19,0.19c-0.09,0.05-0.18,0.07-0.26,0.07c-0.07,0-0.12-0.01-0.17-0.02
		c-0.05-0.02-0.09-0.04-0.13-0.07c-0.04-0.03-0.08-0.06-0.11-0.1c-0.04-0.04-0.07-0.08-0.12-0.12c-0.04,0.04-0.08,0.08-0.12,0.11
		c-0.04,0.04-0.07,0.07-0.11,0.1c-0.04,0.03-0.08,0.05-0.13,0.07c-0.05,0.02-0.1,0.03-0.16,0.03c-0.09,0-0.18-0.02-0.27-0.07
		c-0.08-0.05-0.15-0.11-0.19-0.2l-1.05,1.46c-0.02,0.03-0.04,0.07-0.05,0.1c-0.01,0.03-0.02,0.07-0.02,0.11
		c0,0.07,0.02,0.14,0.07,0.2c0.05,0.06,0.1,0.1,0.17,0.13l-0.87,1.22c-0.05,0.07-0.07,0.13-0.07,0.21c0,0.07,0.01,0.13,0.04,0.18
		c0.03,0.05,0.06,0.08,0.1,0.11c0.04,0.03,0.09,0.04,0.15,0.05c0.06,0.01,0.11,0.01,0.17,0.01l-1.1,1.55
		c-0.05,0.06-0.07,0.13-0.07,0.21c0,0.09,0.03,0.17,0.09,0.24c0.06,0.07,0.14,0.1,0.23,0.11l-0.61,0.85
		c-0.05,0.06-0.07,0.13-0.07,0.21c0,0.1,0.03,0.18,0.1,0.25c0.07,0.07,0.15,0.1,0.25,0.1c0.08,0,0.15-0.02,0.21-0.07l1.54-1.2v0.92
		c0,0.1,0.03,0.18,0.1,0.25c0.07,0.07,0.15,0.1,0.25,0.1c0.1,0,0.19-0.04,0.26-0.12l1.14-1.28l1.14,1.28
		c0.07,0.08,0.16,0.12,0.26,0.12c0.09,0,0.18-0.03,0.25-0.1c0.07-0.07,0.1-0.15,0.1-0.24v-0.92L443.68,41.69L443.68,41.69z
		 M438.8,38.61c0.07,0,0.14,0.01,0.2,0.04c0.06,0.03,0.12,0.06,0.17,0.11c0.05,0.05,0.09,0.1,0.11,0.17
		c0.03,0.07,0.04,0.13,0.04,0.21c0,0.07-0.01,0.14-0.04,0.21c-0.03,0.06-0.07,0.12-0.11,0.17c-0.05,0.05-0.1,0.08-0.17,0.11
		c-0.07,0.03-0.13,0.04-0.21,0.04c-0.07,0-0.14-0.01-0.2-0.04c-0.06-0.03-0.12-0.07-0.17-0.11s-0.09-0.1-0.11-0.17
		c-0.03-0.06-0.04-0.13-0.04-0.2c0-0.07,0.01-0.14,0.04-0.2c0.03-0.06,0.07-0.12,0.11-0.17c0.05-0.05,0.1-0.08,0.17-0.11
		C438.67,38.62,438.73,38.61,438.8,38.61z M439.51,36.5c0.07,0,0.14,0.01,0.2,0.04c0.06,0.03,0.12,0.07,0.17,0.11
		s0.09,0.1,0.11,0.17c0.03,0.06,0.04,0.13,0.04,0.2c0,0.07-0.01,0.14-0.04,0.21c-0.03,0.06-0.07,0.12-0.11,0.17
		c-0.05,0.05-0.1,0.08-0.17,0.11c-0.07,0.03-0.13,0.04-0.21,0.04c-0.07,0-0.14-0.01-0.2-0.04c-0.06-0.03-0.12-0.07-0.17-0.11
		s-0.09-0.1-0.11-0.17c-0.03-0.06-0.04-0.13-0.04-0.2c0-0.07,0.01-0.14,0.04-0.2c0.03-0.06,0.07-0.12,0.11-0.17s0.1-0.09,0.17-0.11
		C439.37,36.51,439.44,36.5,439.51,36.5z M440.39,32.29c-0.03,0-0.06,0.01-0.09,0.02c-0.03,0.01-0.05,0.04-0.07,0.07l-0.31,0.62
		h-0.42c-0.05,0-0.09,0.02-0.12,0.05s-0.05,0.08-0.05,0.12c0,0.05,0.02,0.09,0.05,0.12l0.3,0.3v0.63c0,0.05,0.02,0.09,0.05,0.12
		s0.08,0.05,0.12,0.05s0.09-0.02,0.12-0.05l0.41-0.41l0.4,0.41c0.03,0.03,0.07,0.05,0.13,0.05c0.05,0,0.09-0.02,0.12-0.05
		c0.03-0.04,0.05-0.08,0.05-0.12v-0.63c0.02-0.02,0.05-0.05,0.09-0.09c0.04-0.04,0.08-0.07,0.12-0.11s0.07-0.08,0.1-0.12
		c0.03-0.04,0.04-0.07,0.04-0.11c0-0.05-0.02-0.09-0.05-0.12c-0.03-0.03-0.08-0.05-0.12-0.05h-0.41l-0.31-0.62
		c-0.02-0.03-0.04-0.05-0.07-0.07C440.45,32.3,440.42,32.29,440.39,32.29z M441.08,35.63c0,0.07-0.01,0.14-0.04,0.2
		c-0.03,0.06-0.07,0.12-0.11,0.17c-0.05,0.05-0.1,0.08-0.17,0.11c-0.06,0.03-0.13,0.04-0.2,0.04c-0.07,0-0.14-0.01-0.2-0.04
		c-0.06-0.03-0.12-0.06-0.17-0.11c-0.05-0.05-0.09-0.1-0.11-0.16c-0.03-0.06-0.04-0.13-0.04-0.21c0-0.07,0.01-0.14,0.04-0.21
		c0.03-0.07,0.07-0.12,0.11-0.17c0.05-0.05,0.1-0.08,0.17-0.11c0.06-0.03,0.13-0.04,0.21-0.04c0.07,0,0.14,0.01,0.21,0.04
		c0.07,0.03,0.12,0.07,0.17,0.11c0.05,0.05,0.08,0.1,0.11,0.17C441.07,35.49,441.08,35.55,441.08,35.63z M441.79,37.73
		c0,0.07-0.01,0.14-0.04,0.2c-0.03,0.06-0.07,0.12-0.11,0.17s-0.1,0.09-0.17,0.11c-0.06,0.03-0.13,0.04-0.2,0.04
		c-0.07,0-0.14-0.01-0.2-0.04c-0.06-0.03-0.12-0.07-0.17-0.11c-0.05-0.05-0.08-0.1-0.11-0.17c-0.03-0.06-0.04-0.13-0.04-0.2
		c0-0.07,0.01-0.14,0.04-0.2c0.03-0.06,0.06-0.12,0.11-0.17c0.05-0.05,0.1-0.09,0.16-0.11c0.06-0.03,0.13-0.04,0.21-0.04
		c0.07,0,0.14,0.01,0.21,0.04c0.07,0.03,0.12,0.07,0.17,0.11c0.05,0.05,0.08,0.1,0.11,0.17C441.77,37.59,441.79,37.66,441.79,37.73z
		 M441.61,38.96c0.07,0,0.14,0.01,0.2,0.04c0.06,0.03,0.12,0.06,0.17,0.11c0.05,0.05,0.09,0.1,0.11,0.17
		c0.03,0.07,0.04,0.13,0.04,0.21c0,0.07-0.01,0.14-0.04,0.21c-0.03,0.06-0.07,0.12-0.11,0.17c-0.05,0.05-0.1,0.08-0.17,0.11
		c-0.07,0.03-0.13,0.04-0.21,0.04c-0.07,0-0.14-0.01-0.2-0.04c-0.06-0.03-0.12-0.07-0.17-0.11s-0.09-0.1-0.11-0.17
		c-0.03-0.06-0.04-0.13-0.04-0.2c0-0.07,0.01-0.14,0.04-0.2c0.03-0.06,0.07-0.12,0.11-0.17c0.05-0.05,0.1-0.08,0.17-0.11
		C441.47,38.97,441.54,38.96,441.61,38.96z"/>
	
		<path style="clip-path:url(#SVGID_00000116914545783428460810000016881432777902571155_);fill:none;stroke:#000000;stroke-width:0.286;stroke-miterlimit:10;" d="
		M444.59,40.02c0,0.16-0.03,0.3-0.09,0.43c0.06,0.08,0.11,0.15,0.16,0.22s0.1,0.14,0.14,0.22c0.04,0.07,0.07,0.15,0.1,0.24
		c0.03,0.08,0.04,0.18,0.04,0.28c0,0.15-0.03,0.28-0.08,0.41c-0.06,0.13-0.13,0.24-0.22,0.33c-0.09,0.1-0.21,0.17-0.33,0.23
		c-0.13,0.06-0.26,0.08-0.41,0.08c-0.12,0-0.23-0.02-0.33-0.06c-0.1-0.04-0.2-0.09-0.29-0.15c-0.09-0.06-0.18-0.13-0.27-0.2
		c-0.09-0.07-0.17-0.14-0.26-0.21c-0.04,0.09-0.1,0.18-0.16,0.25c-0.07,0.07-0.14,0.14-0.22,0.19c-0.08,0.05-0.17,0.09-0.27,0.12
		c-0.1,0.03-0.19,0.04-0.3,0.04v0.35h-2.81v-0.35c-0.21,0-0.4-0.05-0.57-0.16c-0.17-0.11-0.3-0.26-0.39-0.45
		c-0.09,0.07-0.18,0.14-0.26,0.21c-0.09,0.07-0.18,0.14-0.27,0.2c-0.09,0.06-0.19,0.11-0.29,0.15c-0.1,0.04-0.21,0.06-0.33,0.06
		c-0.15,0-0.28-0.03-0.41-0.08c-0.13-0.06-0.24-0.13-0.33-0.23c-0.09-0.1-0.17-0.21-0.22-0.33c-0.06-0.13-0.08-0.26-0.08-0.41
		c0-0.1,0.01-0.19,0.04-0.28c0.02-0.08,0.06-0.16,0.1-0.24c0.04-0.07,0.09-0.15,0.14-0.22s0.11-0.15,0.16-0.22
		c-0.06-0.13-0.09-0.28-0.09-0.43c0-0.22,0.07-0.43,0.2-0.62l0.66-0.94c-0.06-0.08-0.1-0.17-0.12-0.27
		c-0.03-0.09-0.04-0.19-0.04-0.29c0-0.11,0.02-0.22,0.06-0.33s0.09-0.21,0.16-0.3l0.55-0.77c-0.02-0.06-0.04-0.12-0.05-0.18
		c-0.01-0.06-0.02-0.12-0.02-0.18c0-0.12,0.02-0.23,0.06-0.33s0.09-0.2,0.16-0.3l1.18-1.65c-0.1-0.1-0.19-0.21-0.25-0.32
		c-0.06-0.11-0.09-0.24-0.09-0.39c0-0.12,0.02-0.23,0.07-0.33c0.05-0.1,0.11-0.2,0.19-0.28c0.08-0.08,0.17-0.15,0.27-0.19
		c0.1-0.05,0.21-0.07,0.33-0.07c0.05-0.1,0.1-0.19,0.15-0.28c0.05-0.09,0.11-0.16,0.18-0.22s0.15-0.11,0.24-0.15
		c0.09-0.03,0.2-0.05,0.32-0.05c0.12,0,0.23,0.02,0.32,0.05c0.09,0.03,0.17,0.08,0.24,0.15s0.13,0.14,0.18,0.22
		c0.05,0.09,0.1,0.18,0.15,0.28c0.12,0,0.23,0.02,0.34,0.07c0.1,0.05,0.2,0.11,0.27,0.19c0.08,0.08,0.14,0.17,0.18,0.28
		s0.07,0.22,0.07,0.34c0,0.15-0.03,0.28-0.09,0.39c-0.06,0.11-0.14,0.21-0.25,0.31l1.19,1.67c0.07,0.09,0.12,0.19,0.15,0.29
		c0.04,0.1,0.05,0.21,0.05,0.32c0,0.13-0.02,0.25-0.06,0.36l0.56,0.78c0.07,0.09,0.12,0.19,0.15,0.29c0.04,0.1,0.05,0.21,0.05,0.32
		c0,0.21-0.05,0.4-0.16,0.56l0.66,0.93C444.53,39.59,444.59,39.79,444.59,40.02L444.59,40.02z M443.68,41.69
		c0.06,0.05,0.13,0.07,0.21,0.07c0.1,0,0.18-0.03,0.25-0.1c0.07-0.07,0.1-0.15,0.1-0.25c0-0.07-0.02-0.14-0.07-0.21l-0.61-0.85
		c0.09-0.01,0.17-0.04,0.23-0.11c0.06-0.07,0.09-0.14,0.09-0.24c0-0.07-0.02-0.14-0.07-0.21l-1.1-1.55c0.06,0,0.12,0,0.17-0.01
		c0.06-0.01,0.11-0.03,0.15-0.05c0.04-0.03,0.08-0.06,0.1-0.11c0.03-0.05,0.04-0.1,0.04-0.18c0-0.07-0.02-0.14-0.07-0.21l-0.87-1.22
		c0.07-0.03,0.13-0.07,0.17-0.13c0.05-0.06,0.07-0.13,0.07-0.2c0-0.04-0.01-0.07-0.02-0.11c-0.01-0.03-0.03-0.07-0.05-0.1
		l-1.04-1.46c-0.04,0.08-0.1,0.15-0.19,0.19c-0.09,0.05-0.18,0.07-0.26,0.07c-0.07,0-0.12-0.01-0.17-0.02
		c-0.05-0.02-0.09-0.04-0.13-0.07c-0.04-0.03-0.08-0.06-0.11-0.1c-0.04-0.04-0.07-0.08-0.12-0.12c-0.04,0.04-0.08,0.08-0.12,0.11
		c-0.04,0.04-0.07,0.07-0.11,0.1c-0.04,0.03-0.08,0.05-0.13,0.07c-0.05,0.02-0.1,0.03-0.16,0.03c-0.09,0-0.18-0.02-0.27-0.07
		c-0.08-0.05-0.15-0.11-0.19-0.2l-1.05,1.46c-0.02,0.03-0.04,0.07-0.05,0.1c-0.01,0.03-0.02,0.07-0.02,0.11
		c0,0.07,0.02,0.14,0.07,0.2c0.05,0.06,0.1,0.1,0.17,0.13l-0.87,1.22c-0.05,0.07-0.07,0.13-0.07,0.21c0,0.07,0.01,0.13,0.04,0.18
		c0.03,0.05,0.06,0.08,0.1,0.11c0.04,0.03,0.09,0.04,0.15,0.05c0.06,0.01,0.11,0.01,0.17,0.01l-1.1,1.55
		c-0.05,0.06-0.07,0.13-0.07,0.21c0,0.09,0.03,0.17,0.09,0.24c0.06,0.07,0.14,0.1,0.23,0.11l-0.61,0.85
		c-0.05,0.06-0.07,0.13-0.07,0.21c0,0.1,0.03,0.18,0.1,0.25c0.07,0.07,0.15,0.1,0.25,0.1c0.08,0,0.15-0.02,0.21-0.07l1.54-1.2v0.92
		c0,0.1,0.03,0.18,0.1,0.25c0.07,0.07,0.15,0.1,0.25,0.1c0.1,0,0.19-0.04,0.26-0.12l1.14-1.28l1.14,1.28
		c0.07,0.08,0.16,0.12,0.26,0.12c0.09,0,0.18-0.03,0.25-0.1c0.07-0.07,0.1-0.15,0.1-0.24v-0.92L443.68,41.69L443.68,41.69z
		 M438.8,38.61c0.07,0,0.14,0.01,0.2,0.04c0.06,0.03,0.12,0.06,0.17,0.11c0.05,0.05,0.09,0.1,0.11,0.17
		c0.03,0.07,0.04,0.13,0.04,0.21c0,0.07-0.01,0.14-0.04,0.21c-0.03,0.06-0.07,0.12-0.11,0.17c-0.05,0.05-0.1,0.08-0.17,0.11
		c-0.07,0.03-0.13,0.04-0.21,0.04c-0.07,0-0.14-0.01-0.2-0.04c-0.06-0.03-0.12-0.07-0.17-0.11s-0.09-0.1-0.11-0.17
		c-0.03-0.06-0.04-0.13-0.04-0.2c0-0.07,0.01-0.14,0.04-0.2c0.03-0.06,0.07-0.12,0.11-0.17c0.05-0.05,0.1-0.08,0.17-0.11
		C438.67,38.62,438.73,38.61,438.8,38.61z M439.51,36.5c0.07,0,0.14,0.01,0.2,0.04c0.06,0.03,0.12,0.07,0.17,0.11
		s0.09,0.1,0.11,0.17c0.03,0.06,0.04,0.13,0.04,0.2c0,0.07-0.01,0.14-0.04,0.21c-0.03,0.06-0.07,0.12-0.11,0.17
		c-0.05,0.05-0.1,0.08-0.17,0.11c-0.07,0.03-0.13,0.04-0.21,0.04c-0.07,0-0.14-0.01-0.2-0.04c-0.06-0.03-0.12-0.07-0.17-0.11
		s-0.09-0.1-0.11-0.17c-0.03-0.06-0.04-0.13-0.04-0.2c0-0.07,0.01-0.14,0.04-0.2c0.03-0.06,0.07-0.12,0.11-0.17s0.1-0.09,0.17-0.11
		C439.37,36.51,439.44,36.5,439.51,36.5z M440.39,32.29c-0.03,0-0.06,0.01-0.09,0.02c-0.03,0.01-0.05,0.04-0.07,0.07l-0.31,0.62
		h-0.42c-0.05,0-0.09,0.02-0.12,0.05s-0.05,0.08-0.05,0.12c0,0.05,0.02,0.09,0.05,0.12l0.3,0.3v0.63c0,0.05,0.02,0.09,0.05,0.12
		s0.08,0.05,0.12,0.05s0.09-0.02,0.12-0.05l0.41-0.41l0.4,0.41c0.03,0.03,0.07,0.05,0.13,0.05c0.05,0,0.09-0.02,0.12-0.05
		c0.03-0.04,0.05-0.08,0.05-0.12v-0.63c0.02-0.02,0.05-0.05,0.09-0.09c0.04-0.04,0.08-0.07,0.12-0.11s0.07-0.08,0.1-0.12
		c0.03-0.04,0.04-0.07,0.04-0.11c0-0.05-0.02-0.09-0.05-0.12c-0.03-0.03-0.08-0.05-0.12-0.05h-0.41l-0.31-0.62
		c-0.02-0.03-0.04-0.05-0.07-0.07C440.45,32.3,440.42,32.29,440.39,32.29z M441.08,35.63c0,0.07-0.01,0.14-0.04,0.2
		c-0.03,0.06-0.07,0.12-0.11,0.17c-0.05,0.05-0.1,0.08-0.17,0.11c-0.06,0.03-0.13,0.04-0.2,0.04c-0.07,0-0.14-0.01-0.2-0.04
		c-0.06-0.03-0.12-0.06-0.17-0.11c-0.05-0.05-0.09-0.1-0.11-0.16c-0.03-0.06-0.04-0.13-0.04-0.21c0-0.07,0.01-0.14,0.04-0.21
		c0.03-0.07,0.07-0.12,0.11-0.17c0.05-0.05,0.1-0.08,0.17-0.11c0.06-0.03,0.13-0.04,0.21-0.04c0.07,0,0.14,0.01,0.21,0.04
		c0.07,0.03,0.12,0.07,0.17,0.11c0.05,0.05,0.08,0.1,0.11,0.17C441.07,35.49,441.08,35.55,441.08,35.63z M441.79,37.73
		c0,0.07-0.01,0.14-0.04,0.2c-0.03,0.06-0.07,0.12-0.11,0.17s-0.1,0.09-0.17,0.11c-0.06,0.03-0.13,0.04-0.2,0.04
		c-0.07,0-0.14-0.01-0.2-0.04c-0.06-0.03-0.12-0.07-0.17-0.11c-0.05-0.05-0.08-0.1-0.11-0.17c-0.03-0.06-0.04-0.13-0.04-0.2
		c0-0.07,0.01-0.14,0.04-0.2c0.03-0.06,0.06-0.12,0.11-0.17c0.05-0.05,0.1-0.09,0.16-0.11c0.06-0.03,0.13-0.04,0.21-0.04
		c0.07,0,0.14,0.01,0.21,0.04c0.07,0.03,0.12,0.07,0.17,0.11c0.05,0.05,0.08,0.1,0.11,0.17C441.77,37.59,441.79,37.66,441.79,37.73z
		 M441.61,38.96c0.07,0,0.14,0.01,0.2,0.04c0.06,0.03,0.12,0.06,0.17,0.11c0.05,0.05,0.09,0.1,0.11,0.17
		c0.03,0.07,0.04,0.13,0.04,0.21c0,0.07-0.01,0.14-0.04,0.21c-0.03,0.06-0.07,0.12-0.11,0.17c-0.05,0.05-0.1,0.08-0.17,0.11
		c-0.07,0.03-0.13,0.04-0.21,0.04c-0.07,0-0.14-0.01-0.2-0.04c-0.06-0.03-0.12-0.07-0.17-0.11s-0.09-0.1-0.11-0.17
		c-0.03-0.06-0.04-0.13-0.04-0.2c0-0.07,0.01-0.14,0.04-0.2c0.03-0.06,0.07-0.12,0.11-0.17c0.05-0.05,0.1-0.08,0.17-0.11
		C441.47,38.97,441.54,38.96,441.61,38.96z"/>
	<path style="clip-path:url(#SVGID_00000116914545783428460810000016881432777902571155_);" d="M476.91,37.03
		c0,0.12-0.02,0.24-0.07,0.34c-0.05,0.11-0.11,0.2-0.19,0.28c-0.08,0.08-0.17,0.14-0.28,0.19c-0.11,0.05-0.22,0.07-0.34,0.07h-0.71
		c0.06,0.07,0.1,0.16,0.14,0.25c0.03,0.09,0.05,0.18,0.05,0.28c0,0.12-0.02,0.23-0.07,0.34c-0.05,0.11-0.11,0.2-0.19,0.28
		c-0.08,0.08-0.17,0.14-0.28,0.19c-0.11,0.05-0.22,0.07-0.34,0.07l1.31,1.31c0.08,0.08,0.15,0.18,0.19,0.29
		c0.04,0.11,0.06,0.22,0.06,0.33c0,0.12-0.02,0.23-0.07,0.34c-0.05,0.11-0.11,0.2-0.19,0.28c-0.08,0.08-0.17,0.14-0.28,0.19
		c-0.11,0.05-0.22,0.07-0.34,0.07c-0.11,0-0.22-0.02-0.33-0.06c-0.11-0.04-0.2-0.1-0.28-0.19l-1.38-1.37
		c-0.07,0.17-0.17,0.31-0.32,0.42c-0.15,0.1-0.31,0.16-0.5,0.16c-0.07,0-0.12-0.01-0.18-0.02v1.77h-2.46v-1.77
		c-0.05,0.01-0.11,0.02-0.17,0.02c-0.19,0-0.35-0.05-0.5-0.16c-0.15-0.1-0.25-0.24-0.32-0.42l-1.37,1.37
		c-0.08,0.08-0.18,0.15-0.29,0.19c-0.11,0.04-0.22,0.06-0.34,0.06c-0.12,0-0.23-0.02-0.34-0.07c-0.11-0.05-0.2-0.11-0.28-0.19
		c-0.08-0.08-0.14-0.17-0.19-0.28c-0.05-0.11-0.07-0.22-0.07-0.34c0-0.16,0.03-0.29,0.1-0.4s0.15-0.21,0.26-0.32l1.22-1.22
		c-0.12,0-0.23-0.02-0.34-0.07c-0.1-0.05-0.2-0.11-0.27-0.19c-0.08-0.08-0.14-0.17-0.19-0.28c-0.05-0.11-0.07-0.22-0.07-0.34
		c0-0.2,0.06-0.37,0.18-0.53h-0.36c-0.12,0-0.24-0.02-0.34-0.07c-0.11-0.05-0.2-0.11-0.28-0.19c-0.08-0.08-0.14-0.17-0.19-0.28
		c-0.05-0.11-0.07-0.22-0.07-0.34c0-0.12,0.02-0.23,0.07-0.34c0.05-0.11,0.11-0.2,0.19-0.28c0.08-0.08,0.17-0.14,0.28-0.19
		c0.11-0.05,0.22-0.07,0.34-0.07h0.36c-0.12-0.16-0.18-0.33-0.18-0.52c0-0.12,0.02-0.23,0.07-0.34c0.04-0.11,0.1-0.2,0.18-0.28
		c0.08-0.08,0.17-0.14,0.28-0.19c0.11-0.05,0.22-0.07,0.34-0.07l-0.96-0.96c-0.08-0.08-0.14-0.18-0.19-0.29
		c-0.04-0.11-0.07-0.22-0.07-0.33c0-0.12,0.02-0.23,0.07-0.34c0.05-0.11,0.11-0.2,0.19-0.28c0.08-0.08,0.17-0.14,0.28-0.19
		c0.11-0.05,0.22-0.07,0.34-0.07c0.11,0,0.23,0.02,0.33,0.06c0.11,0.04,0.2,0.1,0.29,0.19l1.02,1.03c0.07-0.17,0.17-0.31,0.32-0.42
		c0.15-0.1,0.31-0.16,0.5-0.16c0.09,0,0.19,0.02,0.28,0.05c0.09,0.03,0.17,0.08,0.25,0.13v-0.71c0-0.12,0.02-0.23,0.07-0.34
		c0.05-0.11,0.11-0.2,0.19-0.28c0.08-0.08,0.17-0.14,0.28-0.19c0.11-0.05,0.22-0.07,0.34-0.07c0.12,0,0.23,0.02,0.34,0.07
		c0.11,0.05,0.2,0.11,0.28,0.19c0.08,0.08,0.14,0.17,0.19,0.28c0.05,0.11,0.07,0.22,0.07,0.34v0.71c0.16-0.12,0.33-0.18,0.53-0.18
		c0.19,0,0.35,0.05,0.5,0.16c0.15,0.1,0.25,0.24,0.32,0.42l1.02-1.02c0.08-0.08,0.18-0.14,0.29-0.19c0.11-0.04,0.22-0.07,0.33-0.07
		c0.12,0,0.23,0.02,0.34,0.07c0.11,0.05,0.2,0.11,0.28,0.19c0.08,0.08,0.14,0.17,0.19,0.28c0.05,0.11,0.07,0.22,0.07,0.34
		c0,0.24-0.09,0.45-0.26,0.62l-0.96,0.96c0.12,0,0.23,0.02,0.34,0.07c0.11,0.05,0.2,0.11,0.28,0.19c0.08,0.08,0.14,0.17,0.19,0.28
		c0.05,0.11,0.07,0.22,0.07,0.34c0,0.09-0.02,0.19-0.05,0.28c-0.03,0.09-0.08,0.17-0.14,0.25h0.71c0.12,0,0.23,0.02,0.34,0.07
		c0.11,0.05,0.2,0.11,0.28,0.19c0.08,0.08,0.14,0.17,0.19,0.28C476.89,36.79,476.91,36.91,476.91,37.03z M466.9,37.2
		c0.05,0,0.09-0.02,0.13-0.05c0.04-0.03,0.05-0.08,0.05-0.12s-0.02-0.09-0.05-0.12c-0.04-0.03-0.08-0.05-0.13-0.05h-0.35
		c-0.05,0-0.09,0.02-0.12,0.05s-0.05,0.08-0.05,0.12s0.02,0.09,0.05,0.12s0.08,0.05,0.12,0.05H466.9z M466.9,41.42
		c0.05,0,0.09-0.02,0.13-0.05l0.35-0.35c0.03-0.03,0.05-0.07,0.05-0.12s-0.02-0.09-0.05-0.12s-0.08-0.05-0.12-0.05
		s-0.09,0.02-0.12,0.05l-0.35,0.35c-0.04,0.04-0.05,0.08-0.05,0.13c0,0.05,0.02,0.09,0.05,0.12
		C466.82,41.4,466.86,41.42,466.9,41.42z M467.08,33.17c0,0.05,0.02,0.09,0.05,0.12l0.35,0.35c0.04,0.04,0.08,0.05,0.12,0.05
		c0.05,0,0.09-0.02,0.12-0.05c0.04-0.04,0.05-0.08,0.05-0.12c0-0.05-0.02-0.09-0.05-0.13l-0.35-0.35c-0.03-0.03-0.07-0.05-0.13-0.05
		c-0.05,0-0.09,0.02-0.12,0.05C467.1,33.08,467.08,33.12,467.08,33.17z M467.61,35.45c-0.05,0-0.09,0.02-0.12,0.05
		s-0.05,0.08-0.05,0.12c0,0.05,0.02,0.09,0.05,0.12c0.04,0.04,0.08,0.05,0.12,0.05c0.05,0,0.09-0.02,0.12-0.05
		c0.04-0.04,0.05-0.08,0.05-0.12c0-0.05-0.02-0.09-0.05-0.12S467.66,35.45,467.61,35.45z M467.61,36.85c-0.05,0-0.09,0.02-0.12,0.05
		s-0.05,0.08-0.05,0.12s0.02,0.09,0.05,0.12s0.08,0.05,0.12,0.05h0.7c0.05,0,0.09-0.02,0.12-0.05s0.05-0.08,0.05-0.12
		s-0.02-0.09-0.05-0.12s-0.08-0.05-0.12-0.05H467.61z M467.61,38.61c0.05,0,0.09-0.02,0.12-0.05s0.05-0.08,0.05-0.12
		s-0.02-0.09-0.05-0.12s-0.08-0.05-0.12-0.05s-0.09,0.02-0.12,0.05s-0.05,0.08-0.05,0.12s0.02,0.09,0.05,0.12
		S467.56,38.61,467.61,38.61z M467.96,40.36c0.05,0,0.09-0.02,0.13-0.05l1.05-1.05c0.03-0.03,0.05-0.07,0.05-0.12
		c0-0.05-0.02-0.09-0.05-0.12c-0.03-0.04-0.07-0.05-0.12-0.05c-0.05,0-0.09,0.02-0.13,0.05l-1.05,1.05
		c-0.04,0.04-0.05,0.08-0.05,0.12c0,0.05,0.02,0.09,0.05,0.12C467.87,40.34,467.91,40.36,467.96,40.36z M468.43,34.1
		c-0.03-0.03-0.07-0.05-0.12-0.05c-0.05,0-0.09,0.02-0.12,0.05c-0.04,0.03-0.05,0.07-0.05,0.12c0,0.05,0.02,0.09,0.05,0.13l0.7,0.7
		c0.04,0.04,0.08,0.05,0.13,0.05c0.05,0,0.09-0.02,0.12-0.05c0.03-0.04,0.05-0.08,0.05-0.12c0-0.05-0.02-0.09-0.05-0.12L468.43,34.1
		L468.43,34.1z M473.4,37.91c0-0.1-0.03-0.18-0.1-0.25l-0.6-0.61l0.6-0.65c0.04-0.04,0.06-0.08,0.08-0.11
		c0.02-0.03,0.02-0.08,0.02-0.13c0-0.1-0.03-0.18-0.1-0.25s-0.15-0.1-0.25-0.1h-0.7v-0.7c0-0.09-0.04-0.18-0.1-0.25
		c-0.07-0.07-0.15-0.1-0.25-0.1c-0.09,0-0.17,0.03-0.25,0.1l-0.63,0.6l-0.63-0.6c-0.04-0.03-0.07-0.06-0.11-0.08
		c-0.04-0.02-0.08-0.03-0.13-0.03c-0.1,0-0.18,0.03-0.25,0.1c-0.07,0.07-0.1,0.15-0.1,0.25v0.7h-0.7c-0.1,0-0.18,0.03-0.25,0.1
		c-0.07,0.07-0.1,0.15-0.1,0.25c0,0.09,0.03,0.17,0.1,0.25l0.6,0.65l-0.6,0.61c-0.07,0.07-0.1,0.15-0.1,0.25
		c0,0.09,0.03,0.18,0.1,0.25c0.07,0.07,0.15,0.1,0.25,0.1h0.7v0.7c0,0.09,0.03,0.18,0.1,0.24c0.07,0.07,0.15,0.1,0.25,0.1
		c0.09,0,0.15-0.02,0.2-0.06c0.05-0.04,0.1-0.09,0.15-0.14l0.35-0.35c0.03-0.03,0.06-0.06,0.09-0.08c0.03-0.03,0.06-0.06,0.09-0.09
		c0.03,0.04,0.05,0.07,0.09,0.09c0.03,0.03,0.06,0.05,0.09,0.08l0.35,0.35c0.06,0.06,0.11,0.1,0.15,0.14
		c0.05,0.04,0.11,0.06,0.2,0.06c0.09,0,0.18-0.03,0.25-0.1c0.07-0.07,0.11-0.15,0.11-0.25v-0.7h0.7c0.09,0,0.18-0.03,0.25-0.1
		C473.36,38.08,473.4,38,473.4,37.91z M469.72,33.69c-0.05,0-0.09,0.02-0.12,0.05s-0.05,0.08-0.05,0.12s0.02,0.09,0.05,0.12
		s0.08,0.05,0.12,0.05c0.05,0,0.09-0.02,0.12-0.05c0.03-0.04,0.05-0.08,0.05-0.12c0-0.05-0.02-0.09-0.05-0.12
		C469.8,33.71,469.76,33.69,469.72,33.69z M472.69,36.32c0,0.05-0.02,0.09-0.05,0.13l-0.58,0.58l0.58,0.58
		c0.03,0.03,0.05,0.07,0.05,0.13c0,0.05-0.02,0.09-0.05,0.12c-0.03,0.04-0.07,0.05-0.12,0.05H472v0.53c0,0.05-0.02,0.09-0.05,0.12
		c-0.04,0.03-0.08,0.05-0.12,0.05c-0.05,0-0.09-0.02-0.13-0.05l-0.58-0.58l-0.58,0.58c-0.03,0.03-0.07,0.05-0.13,0.05
		c-0.05,0-0.09-0.02-0.12-0.05c-0.04-0.03-0.05-0.07-0.05-0.12v-0.53h-0.52c-0.05,0-0.09-0.02-0.12-0.05s-0.05-0.08-0.05-0.12
		c0-0.05,0.02-0.09,0.05-0.13l0.58-0.58l-0.58-0.58c-0.03-0.03-0.05-0.07-0.05-0.13c0-0.05,0.02-0.09,0.05-0.12
		c0.04-0.04,0.08-0.05,0.12-0.05h0.52v-0.52c0-0.05,0.02-0.09,0.05-0.12c0.04-0.04,0.08-0.05,0.12-0.05c0.05,0,0.09,0.02,0.13,0.05
		l0.58,0.58l0.58-0.58c0.03-0.03,0.07-0.05,0.13-0.05c0.05,0,0.09,0.02,0.12,0.05c0.04,0.04,0.05,0.08,0.05,0.12v0.52h0.53
		c0.05,0,0.09,0.02,0.12,0.05C472.68,36.24,472.69,36.28,472.69,36.32z M469.72,40.36c0.05,0,0.09-0.02,0.12-0.05
		c0.03-0.04,0.05-0.08,0.05-0.12c0-0.05-0.02-0.09-0.05-0.12c-0.03-0.04-0.07-0.05-0.12-0.05c-0.05,0-0.09,0.02-0.12,0.05
		s-0.05,0.08-0.05,0.12s0.02,0.09,0.05,0.12S469.67,40.36,469.72,40.36z M471.12,37.55c0.07,0,0.14-0.01,0.21-0.04
		c0.07-0.03,0.12-0.07,0.17-0.11c0.05-0.05,0.08-0.1,0.11-0.17c0.03-0.06,0.04-0.13,0.04-0.21c0-0.07-0.01-0.14-0.04-0.2
		c-0.03-0.06-0.07-0.12-0.11-0.17s-0.1-0.09-0.17-0.11c-0.06-0.03-0.13-0.04-0.2-0.04c-0.07,0-0.14,0.01-0.2,0.04
		c-0.06,0.03-0.12,0.07-0.17,0.11s-0.09,0.1-0.11,0.17c-0.03,0.06-0.04,0.13-0.04,0.2c0,0.07,0.01,0.14,0.04,0.21
		c0.03,0.06,0.07,0.12,0.11,0.17c0.05,0.05,0.1,0.08,0.17,0.11C470.97,37.54,471.04,37.55,471.12,37.55z M470.59,42.12h1.05v-2.55
		c-0.09-0.06-0.19-0.13-0.28-0.23c-0.09-0.1-0.17-0.19-0.25-0.26c-0.08,0.08-0.16,0.17-0.25,0.26c-0.09,0.1-0.18,0.17-0.28,0.23
		V42.12z M470.94,32.82c0,0.05,0.02,0.09,0.05,0.12s0.08,0.05,0.12,0.05s0.09-0.02,0.12-0.05s0.05-0.08,0.05-0.12v-0.35
		c0-0.05-0.02-0.09-0.05-0.12s-0.08-0.05-0.12-0.05s-0.09,0.02-0.12,0.05s-0.05,0.08-0.05,0.12V32.82z M470.94,34.22
		c0,0.05,0.02,0.09,0.05,0.12s0.08,0.05,0.12,0.05s0.09-0.02,0.12-0.05s0.05-0.08,0.05-0.12v-0.7c0-0.05-0.02-0.09-0.05-0.12
		c-0.04-0.04-0.08-0.05-0.12-0.05c-0.05,0-0.09,0.02-0.12,0.05c-0.04,0.04-0.05,0.08-0.05,0.12V34.22z M472.52,33.69
		c-0.05,0-0.09,0.02-0.12,0.05s-0.05,0.08-0.05,0.12s0.02,0.09,0.05,0.12s0.08,0.05,0.12,0.05s0.09-0.02,0.12-0.05
		c0.03-0.03,0.05-0.08,0.05-0.12s-0.02-0.09-0.05-0.12C472.61,33.71,472.57,33.69,472.52,33.69z M472.52,40.36
		c0.05,0,0.09-0.02,0.12-0.05c0.03-0.03,0.05-0.08,0.05-0.12s-0.02-0.09-0.05-0.12c-0.03-0.03-0.07-0.05-0.12-0.05
		s-0.09,0.02-0.12,0.05s-0.05,0.08-0.05,0.12s0.02,0.09,0.05,0.12S472.48,40.36,472.52,40.36z M473.93,34.05
		c-0.05,0-0.09,0.02-0.12,0.05l-0.7,0.7c-0.04,0.04-0.05,0.08-0.05,0.12c0,0.05,0.02,0.09,0.05,0.12c0.04,0.04,0.08,0.05,0.12,0.05
		c0.05,0,0.09-0.02,0.13-0.05l0.7-0.7c0.03-0.03,0.05-0.07,0.05-0.13c0-0.05-0.02-0.09-0.05-0.12
		C474.02,34.07,473.97,34.05,473.93,34.05z M474.15,40.31c0.04,0.04,0.08,0.05,0.12,0.05c0.05,0,0.09-0.02,0.12-0.05
		c0.03-0.04,0.05-0.08,0.05-0.12c0-0.05-0.02-0.09-0.05-0.12l-1.05-1.05c-0.03-0.03-0.07-0.05-0.13-0.05
		c-0.05,0-0.09,0.02-0.12,0.05c-0.04,0.04-0.05,0.08-0.05,0.12c0,0.05,0.02,0.09,0.05,0.12L474.15,40.31L474.15,40.31z M474.63,37.2
		c0.05,0,0.09-0.02,0.12-0.05s0.05-0.08,0.05-0.12s-0.02-0.09-0.05-0.12s-0.08-0.05-0.12-0.05h-0.7c-0.05,0-0.09,0.02-0.12,0.05
		s-0.05,0.08-0.05,0.12s0.02,0.09,0.05,0.12s0.08,0.05,0.12,0.05H474.63z M474.98,32.99c-0.05,0-0.09,0.02-0.12,0.05l-0.35,0.35
		c-0.04,0.04-0.05,0.08-0.05,0.13c0,0.05,0.02,0.09,0.05,0.12c0.04,0.04,0.08,0.05,0.12,0.05c0.05,0,0.09-0.02,0.13-0.05l0.35-0.35
		c0.03-0.03,0.05-0.07,0.05-0.12s-0.02-0.09-0.05-0.12S475.02,32.99,474.98,32.99z M474.63,35.8c0.05,0,0.09-0.02,0.12-0.05
		c0.04-0.04,0.05-0.08,0.05-0.12c0-0.05-0.02-0.09-0.05-0.12s-0.08-0.05-0.12-0.05s-0.09,0.02-0.12,0.05s-0.05,0.08-0.05,0.12
		c0,0.05,0.02,0.09,0.05,0.12C474.54,35.78,474.58,35.8,474.63,35.8z M474.63,38.61c0.05,0,0.09-0.02,0.12-0.05s0.05-0.08,0.05-0.12
		s-0.02-0.09-0.05-0.12s-0.08-0.05-0.12-0.05s-0.09,0.02-0.12,0.05s-0.05,0.08-0.05,0.12s0.02,0.09,0.05,0.12
		S474.58,38.61,474.63,38.61z M475.1,40.76c-0.03-0.03-0.07-0.05-0.13-0.05c-0.05,0-0.09,0.02-0.12,0.05
		c-0.04,0.04-0.05,0.08-0.05,0.12c0,0.05,0.02,0.09,0.05,0.12l0.35,0.35c0.04,0.04,0.08,0.05,0.12,0.05c0.05,0,0.09-0.02,0.12-0.05
		c0.04-0.04,0.05-0.08,0.05-0.12c0-0.05-0.02-0.09-0.05-0.13L475.1,40.76L475.1,40.76z M475.51,37.03c0,0.05,0.02,0.09,0.05,0.12
		c0.03,0.04,0.07,0.05,0.12,0.05h0.35c0.05,0,0.09-0.02,0.12-0.05s0.05-0.08,0.05-0.12s-0.02-0.09-0.05-0.12s-0.08-0.05-0.12-0.05
		h-0.35c-0.05,0-0.09,0.02-0.12,0.05C475.52,36.94,475.51,36.98,475.51,37.03z"/>
	
		<path style="clip-path:url(#SVGID_00000116914545783428460810000016881432777902571155_);fill:none;stroke:#000000;stroke-width:0.286;stroke-miterlimit:10;" d="
		M476.91,37.03c0,0.12-0.02,0.24-0.07,0.34c-0.05,0.11-0.11,0.2-0.19,0.28c-0.08,0.08-0.17,0.14-0.28,0.19
		c-0.11,0.05-0.22,0.07-0.34,0.07h-0.71c0.06,0.07,0.1,0.16,0.14,0.25c0.03,0.09,0.05,0.18,0.05,0.28c0,0.12-0.02,0.23-0.07,0.34
		c-0.05,0.11-0.11,0.2-0.19,0.28c-0.08,0.08-0.17,0.14-0.28,0.19c-0.11,0.05-0.22,0.07-0.34,0.07l1.31,1.31
		c0.08,0.08,0.15,0.18,0.19,0.29c0.04,0.11,0.06,0.22,0.06,0.33c0,0.12-0.02,0.23-0.07,0.34c-0.05,0.11-0.11,0.2-0.19,0.28
		c-0.08,0.08-0.17,0.14-0.28,0.19c-0.11,0.05-0.22,0.07-0.34,0.07c-0.11,0-0.22-0.02-0.33-0.06c-0.11-0.04-0.2-0.1-0.28-0.19
		l-1.38-1.37c-0.07,0.17-0.17,0.31-0.32,0.42c-0.15,0.1-0.31,0.16-0.5,0.16c-0.07,0-0.12-0.01-0.18-0.02v1.77h-2.46v-1.77
		c-0.05,0.01-0.11,0.02-0.17,0.02c-0.19,0-0.35-0.05-0.5-0.16c-0.15-0.1-0.25-0.24-0.32-0.42l-1.37,1.37
		c-0.08,0.08-0.18,0.15-0.29,0.19c-0.11,0.04-0.22,0.06-0.34,0.06c-0.12,0-0.23-0.02-0.34-0.07c-0.11-0.05-0.2-0.11-0.28-0.19
		c-0.08-0.08-0.14-0.17-0.19-0.28c-0.05-0.11-0.07-0.22-0.07-0.34c0-0.16,0.03-0.29,0.1-0.4s0.15-0.21,0.26-0.32l1.22-1.22
		c-0.12,0-0.23-0.02-0.34-0.07c-0.1-0.05-0.2-0.11-0.27-0.19c-0.08-0.08-0.14-0.17-0.19-0.28c-0.05-0.11-0.07-0.22-0.07-0.34
		c0-0.2,0.06-0.37,0.18-0.53h-0.36c-0.12,0-0.24-0.02-0.34-0.07c-0.11-0.05-0.2-0.11-0.28-0.19c-0.08-0.08-0.14-0.17-0.19-0.28
		c-0.05-0.11-0.07-0.22-0.07-0.34c0-0.12,0.02-0.23,0.07-0.34c0.05-0.11,0.11-0.2,0.19-0.28c0.08-0.08,0.17-0.14,0.28-0.19
		c0.11-0.05,0.22-0.07,0.34-0.07h0.36c-0.12-0.16-0.18-0.33-0.18-0.52c0-0.12,0.02-0.23,0.07-0.34c0.04-0.11,0.1-0.2,0.18-0.28
		c0.08-0.08,0.17-0.14,0.28-0.19c0.11-0.05,0.22-0.07,0.34-0.07l-0.96-0.96c-0.08-0.08-0.14-0.18-0.19-0.29
		c-0.04-0.11-0.07-0.22-0.07-0.33c0-0.12,0.02-0.23,0.07-0.34c0.05-0.11,0.11-0.2,0.19-0.28c0.08-0.08,0.17-0.14,0.28-0.19
		c0.11-0.05,0.22-0.07,0.34-0.07c0.11,0,0.23,0.02,0.33,0.06c0.11,0.04,0.2,0.1,0.29,0.19l1.02,1.03c0.07-0.17,0.17-0.31,0.32-0.42
		c0.15-0.1,0.31-0.16,0.5-0.16c0.09,0,0.19,0.02,0.28,0.05c0.09,0.03,0.17,0.08,0.25,0.13v-0.71c0-0.12,0.02-0.23,0.07-0.34
		c0.05-0.11,0.11-0.2,0.19-0.28c0.08-0.08,0.17-0.14,0.28-0.19c0.11-0.05,0.22-0.07,0.34-0.07c0.12,0,0.23,0.02,0.34,0.07
		c0.11,0.05,0.2,0.11,0.28,0.19c0.08,0.08,0.14,0.17,0.19,0.28c0.05,0.11,0.07,0.22,0.07,0.34v0.71c0.16-0.12,0.33-0.18,0.53-0.18
		c0.19,0,0.35,0.05,0.5,0.16c0.15,0.1,0.25,0.24,0.32,0.42l1.02-1.02c0.08-0.08,0.18-0.14,0.29-0.19c0.11-0.04,0.22-0.07,0.33-0.07
		c0.12,0,0.23,0.02,0.34,0.07c0.11,0.05,0.2,0.11,0.28,0.19c0.08,0.08,0.14,0.17,0.19,0.28c0.05,0.11,0.07,0.22,0.07,0.34
		c0,0.24-0.09,0.45-0.26,0.62l-0.96,0.96c0.12,0,0.23,0.02,0.34,0.07c0.11,0.05,0.2,0.11,0.28,0.19c0.08,0.08,0.14,0.17,0.19,0.28
		c0.05,0.11,0.07,0.22,0.07,0.34c0,0.09-0.02,0.19-0.05,0.28c-0.03,0.09-0.08,0.17-0.14,0.25h0.71c0.12,0,0.23,0.02,0.34,0.07
		c0.11,0.05,0.2,0.11,0.28,0.19c0.08,0.08,0.14,0.17,0.19,0.28C476.89,36.79,476.91,36.91,476.91,37.03z M466.9,37.2
		c0.05,0,0.09-0.02,0.13-0.05c0.04-0.03,0.05-0.08,0.05-0.12s-0.02-0.09-0.05-0.12c-0.04-0.03-0.08-0.05-0.13-0.05h-0.35
		c-0.05,0-0.09,0.02-0.12,0.05s-0.05,0.08-0.05,0.12s0.02,0.09,0.05,0.12s0.08,0.05,0.12,0.05H466.9z M466.9,41.42
		c0.05,0,0.09-0.02,0.13-0.05l0.35-0.35c0.03-0.03,0.05-0.07,0.05-0.12s-0.02-0.09-0.05-0.12s-0.08-0.05-0.12-0.05
		s-0.09,0.02-0.12,0.05l-0.35,0.35c-0.04,0.04-0.05,0.08-0.05,0.13c0,0.05,0.02,0.09,0.05,0.12
		C466.82,41.4,466.86,41.42,466.9,41.42z M467.08,33.17c0,0.05,0.02,0.09,0.05,0.12l0.35,0.35c0.04,0.04,0.08,0.05,0.12,0.05
		c0.05,0,0.09-0.02,0.12-0.05c0.04-0.04,0.05-0.08,0.05-0.12c0-0.05-0.02-0.09-0.05-0.13l-0.35-0.35c-0.03-0.03-0.07-0.05-0.13-0.05
		c-0.05,0-0.09,0.02-0.12,0.05C467.1,33.08,467.08,33.12,467.08,33.17z M467.61,35.45c-0.05,0-0.09,0.02-0.12,0.05
		s-0.05,0.08-0.05,0.12c0,0.05,0.02,0.09,0.05,0.12c0.04,0.04,0.08,0.05,0.12,0.05c0.05,0,0.09-0.02,0.12-0.05
		c0.04-0.04,0.05-0.08,0.05-0.12c0-0.05-0.02-0.09-0.05-0.12S467.66,35.45,467.61,35.45z M467.61,36.85c-0.05,0-0.09,0.02-0.12,0.05
		s-0.05,0.08-0.05,0.12s0.02,0.09,0.05,0.12s0.08,0.05,0.12,0.05h0.7c0.05,0,0.09-0.02,0.12-0.05s0.05-0.08,0.05-0.12
		s-0.02-0.09-0.05-0.12s-0.08-0.05-0.12-0.05H467.61z M467.61,38.61c0.05,0,0.09-0.02,0.12-0.05s0.05-0.08,0.05-0.12
		s-0.02-0.09-0.05-0.12s-0.08-0.05-0.12-0.05s-0.09,0.02-0.12,0.05s-0.05,0.08-0.05,0.12s0.02,0.09,0.05,0.12
		S467.56,38.61,467.61,38.61z M467.96,40.36c0.05,0,0.09-0.02,0.13-0.05l1.05-1.05c0.03-0.03,0.05-0.07,0.05-0.12
		c0-0.05-0.02-0.09-0.05-0.12c-0.03-0.04-0.07-0.05-0.12-0.05c-0.05,0-0.09,0.02-0.13,0.05l-1.05,1.05
		c-0.04,0.04-0.05,0.08-0.05,0.12c0,0.05,0.02,0.09,0.05,0.12C467.87,40.34,467.91,40.36,467.96,40.36z M468.43,34.1
		c-0.03-0.03-0.07-0.05-0.12-0.05c-0.05,0-0.09,0.02-0.12,0.05c-0.04,0.03-0.05,0.07-0.05,0.12c0,0.05,0.02,0.09,0.05,0.13l0.7,0.7
		c0.04,0.04,0.08,0.05,0.13,0.05c0.05,0,0.09-0.02,0.12-0.05c0.03-0.04,0.05-0.08,0.05-0.12c0-0.05-0.02-0.09-0.05-0.12L468.43,34.1
		L468.43,34.1z M473.4,37.91c0-0.1-0.03-0.18-0.1-0.25l-0.6-0.61l0.6-0.65c0.04-0.04,0.06-0.08,0.08-0.11
		c0.02-0.03,0.02-0.08,0.02-0.13c0-0.1-0.03-0.18-0.1-0.25s-0.15-0.1-0.25-0.1h-0.7v-0.7c0-0.09-0.04-0.18-0.1-0.25
		c-0.07-0.07-0.15-0.1-0.25-0.1c-0.09,0-0.17,0.03-0.25,0.1l-0.63,0.6l-0.63-0.6c-0.04-0.03-0.07-0.06-0.11-0.08
		c-0.04-0.02-0.08-0.03-0.13-0.03c-0.1,0-0.18,0.03-0.25,0.1c-0.07,0.07-0.1,0.15-0.1,0.25v0.7h-0.7c-0.1,0-0.18,0.03-0.25,0.1
		c-0.07,0.07-0.1,0.15-0.1,0.25c0,0.09,0.03,0.17,0.1,0.25l0.6,0.65l-0.6,0.61c-0.07,0.07-0.1,0.15-0.1,0.25
		c0,0.09,0.03,0.18,0.1,0.25c0.07,0.07,0.15,0.1,0.25,0.1h0.7v0.7c0,0.09,0.03,0.18,0.1,0.24c0.07,0.07,0.15,0.1,0.25,0.1
		c0.09,0,0.15-0.02,0.2-0.06c0.05-0.04,0.1-0.09,0.15-0.14l0.35-0.35c0.03-0.03,0.06-0.06,0.09-0.08c0.03-0.03,0.06-0.06,0.09-0.09
		c0.03,0.04,0.05,0.07,0.09,0.09c0.03,0.03,0.06,0.05,0.09,0.08l0.35,0.35c0.06,0.06,0.11,0.1,0.15,0.14
		c0.05,0.04,0.11,0.06,0.2,0.06c0.09,0,0.18-0.03,0.25-0.1c0.07-0.07,0.11-0.15,0.11-0.25v-0.7h0.7c0.09,0,0.18-0.03,0.25-0.1
		C473.36,38.08,473.4,38,473.4,37.91z M469.72,33.69c-0.05,0-0.09,0.02-0.12,0.05s-0.05,0.08-0.05,0.12s0.02,0.09,0.05,0.12
		s0.08,0.05,0.12,0.05c0.05,0,0.09-0.02,0.12-0.05c0.03-0.04,0.05-0.08,0.05-0.12c0-0.05-0.02-0.09-0.05-0.12
		C469.8,33.71,469.76,33.69,469.72,33.69z M472.69,36.32c0,0.05-0.02,0.09-0.05,0.13l-0.58,0.58l0.58,0.58
		c0.03,0.03,0.05,0.07,0.05,0.13c0,0.05-0.02,0.09-0.05,0.12c-0.03,0.04-0.07,0.05-0.12,0.05H472v0.53c0,0.05-0.02,0.09-0.05,0.12
		c-0.04,0.03-0.08,0.05-0.12,0.05c-0.05,0-0.09-0.02-0.13-0.05l-0.58-0.58l-0.58,0.58c-0.03,0.03-0.07,0.05-0.13,0.05
		c-0.05,0-0.09-0.02-0.12-0.05c-0.04-0.03-0.05-0.07-0.05-0.12v-0.53h-0.52c-0.05,0-0.09-0.02-0.12-0.05s-0.05-0.08-0.05-0.12
		c0-0.05,0.02-0.09,0.05-0.13l0.58-0.58l-0.58-0.58c-0.03-0.03-0.05-0.07-0.05-0.13c0-0.05,0.02-0.09,0.05-0.12
		c0.04-0.04,0.08-0.05,0.12-0.05h0.52v-0.52c0-0.05,0.02-0.09,0.05-0.12c0.04-0.04,0.08-0.05,0.12-0.05c0.05,0,0.09,0.02,0.13,0.05
		l0.58,0.58l0.58-0.58c0.03-0.03,0.07-0.05,0.13-0.05c0.05,0,0.09,0.02,0.12,0.05c0.04,0.04,0.05,0.08,0.05,0.12v0.52h0.53
		c0.05,0,0.09,0.02,0.12,0.05C472.68,36.24,472.69,36.28,472.69,36.32z M469.72,40.36c0.05,0,0.09-0.02,0.12-0.05
		c0.03-0.04,0.05-0.08,0.05-0.12c0-0.05-0.02-0.09-0.05-0.12c-0.03-0.04-0.07-0.05-0.12-0.05c-0.05,0-0.09,0.02-0.12,0.05
		s-0.05,0.08-0.05,0.12s0.02,0.09,0.05,0.12S469.67,40.36,469.72,40.36z M471.12,37.55c0.07,0,0.14-0.01,0.21-0.04
		c0.07-0.03,0.12-0.07,0.17-0.11c0.05-0.05,0.08-0.1,0.11-0.17c0.03-0.06,0.04-0.13,0.04-0.21c0-0.07-0.01-0.14-0.04-0.2
		c-0.03-0.06-0.07-0.12-0.11-0.17s-0.1-0.09-0.17-0.11c-0.06-0.03-0.13-0.04-0.2-0.04c-0.07,0-0.14,0.01-0.2,0.04
		c-0.06,0.03-0.12,0.07-0.17,0.11s-0.09,0.1-0.11,0.17c-0.03,0.06-0.04,0.13-0.04,0.2c0,0.07,0.01,0.14,0.04,0.21
		c0.03,0.06,0.07,0.12,0.11,0.17c0.05,0.05,0.1,0.08,0.17,0.11C470.97,37.54,471.04,37.55,471.12,37.55z M470.59,42.12h1.05v-2.55
		c-0.09-0.06-0.19-0.13-0.28-0.23c-0.09-0.1-0.17-0.19-0.25-0.26c-0.08,0.08-0.16,0.17-0.25,0.26c-0.09,0.1-0.18,0.17-0.28,0.23
		V42.12z M470.94,32.82c0,0.05,0.02,0.09,0.05,0.12s0.08,0.05,0.12,0.05s0.09-0.02,0.12-0.05s0.05-0.08,0.05-0.12v-0.35
		c0-0.05-0.02-0.09-0.05-0.12s-0.08-0.05-0.12-0.05s-0.09,0.02-0.12,0.05s-0.05,0.08-0.05,0.12V32.82z M470.94,34.22
		c0,0.05,0.02,0.09,0.05,0.12s0.08,0.05,0.12,0.05s0.09-0.02,0.12-0.05s0.05-0.08,0.05-0.12v-0.7c0-0.05-0.02-0.09-0.05-0.12
		c-0.04-0.04-0.08-0.05-0.12-0.05c-0.05,0-0.09,0.02-0.12,0.05c-0.04,0.04-0.05,0.08-0.05,0.12V34.22z M472.52,33.69
		c-0.05,0-0.09,0.02-0.12,0.05s-0.05,0.08-0.05,0.12s0.02,0.09,0.05,0.12s0.08,0.05,0.12,0.05s0.09-0.02,0.12-0.05
		c0.03-0.03,0.05-0.08,0.05-0.12s-0.02-0.09-0.05-0.12C472.61,33.71,472.57,33.69,472.52,33.69z M472.52,40.36
		c0.05,0,0.09-0.02,0.12-0.05c0.03-0.03,0.05-0.08,0.05-0.12s-0.02-0.09-0.05-0.12c-0.03-0.03-0.07-0.05-0.12-0.05
		s-0.09,0.02-0.12,0.05s-0.05,0.08-0.05,0.12s0.02,0.09,0.05,0.12S472.48,40.36,472.52,40.36z M473.93,34.05
		c-0.05,0-0.09,0.02-0.12,0.05l-0.7,0.7c-0.04,0.04-0.05,0.08-0.05,0.12c0,0.05,0.02,0.09,0.05,0.12c0.04,0.04,0.08,0.05,0.12,0.05
		c0.05,0,0.09-0.02,0.13-0.05l0.7-0.7c0.03-0.03,0.05-0.07,0.05-0.13c0-0.05-0.02-0.09-0.05-0.12
		C474.02,34.07,473.97,34.05,473.93,34.05z M474.15,40.31c0.04,0.04,0.08,0.05,0.12,0.05c0.05,0,0.09-0.02,0.12-0.05
		c0.03-0.04,0.05-0.08,0.05-0.12c0-0.05-0.02-0.09-0.05-0.12l-1.05-1.05c-0.03-0.03-0.07-0.05-0.13-0.05
		c-0.05,0-0.09,0.02-0.12,0.05c-0.04,0.04-0.05,0.08-0.05,0.12c0,0.05,0.02,0.09,0.05,0.12L474.15,40.31L474.15,40.31z M474.63,37.2
		c0.05,0,0.09-0.02,0.12-0.05s0.05-0.08,0.05-0.12s-0.02-0.09-0.05-0.12s-0.08-0.05-0.12-0.05h-0.7c-0.05,0-0.09,0.02-0.12,0.05
		s-0.05,0.08-0.05,0.12s0.02,0.09,0.05,0.12s0.08,0.05,0.12,0.05H474.63z M474.98,32.99c-0.05,0-0.09,0.02-0.12,0.05l-0.35,0.35
		c-0.04,0.04-0.05,0.08-0.05,0.13c0,0.05,0.02,0.09,0.05,0.12c0.04,0.04,0.08,0.05,0.12,0.05c0.05,0,0.09-0.02,0.13-0.05l0.35-0.35
		c0.03-0.03,0.05-0.07,0.05-0.12s-0.02-0.09-0.05-0.12S475.02,32.99,474.98,32.99z M474.63,35.8c0.05,0,0.09-0.02,0.12-0.05
		c0.04-0.04,0.05-0.08,0.05-0.12c0-0.05-0.02-0.09-0.05-0.12s-0.08-0.05-0.12-0.05s-0.09,0.02-0.12,0.05s-0.05,0.08-0.05,0.12
		c0,0.05,0.02,0.09,0.05,0.12C474.54,35.78,474.58,35.8,474.63,35.8z M474.63,38.61c0.05,0,0.09-0.02,0.12-0.05s0.05-0.08,0.05-0.12
		s-0.02-0.09-0.05-0.12s-0.08-0.05-0.12-0.05s-0.09,0.02-0.12,0.05s-0.05,0.08-0.05,0.12s0.02,0.09,0.05,0.12
		S474.58,38.61,474.63,38.61z M475.1,40.76c-0.03-0.03-0.07-0.05-0.13-0.05c-0.05,0-0.09,0.02-0.12,0.05
		c-0.04,0.04-0.05,0.08-0.05,0.12c0,0.05,0.02,0.09,0.05,0.12l0.35,0.35c0.04,0.04,0.08,0.05,0.12,0.05c0.05,0,0.09-0.02,0.12-0.05
		c0.04-0.04,0.05-0.08,0.05-0.12c0-0.05-0.02-0.09-0.05-0.13L475.1,40.76L475.1,40.76z M475.51,37.03c0,0.05,0.02,0.09,0.05,0.12
		c0.03,0.04,0.07,0.05,0.12,0.05h0.35c0.05,0,0.09-0.02,0.12-0.05s0.05-0.08,0.05-0.12s-0.02-0.09-0.05-0.12s-0.08-0.05-0.12-0.05
		h-0.35c-0.05,0-0.09,0.02-0.12,0.05C475.52,36.94,475.51,36.98,475.51,37.03z"/>
	<g style="clip-path:url(#SVGID_00000116914545783428460810000016881432777902571155_);">
		<text transform="matrix(1 0 0 1 488.4279 40.714)"><tspan x="0" y="0" class="st10 st13">0</tspan><tspan x="5.71" y="0" class="st10 st13">9</tspan><tspan x="11.41" y="0" class="st10 st13">.</tspan><tspan x="13.84" y="0" class="st10 st13">0</tspan><tspan x="19.54" y="0" class="st10 st13">1</tspan><tspan x="25.25" y="0" class="st10 st13">.</tspan></text>
	</g>
	<g style="clip-path:url(#SVGID_00000116914545783428460810000016881432777902571155_);">
		<text transform="matrix(1 0 0 1 519.4279 40.714)"><tspan x="0" y="0" class="st10 st13">1</tspan><tspan x="5.71" y="0" class="st10 st13">6</tspan><tspan x="11.41" y="0" class="st10 st13">.</tspan><tspan x="13.84" y="0" class="st10 st13">0</tspan><tspan x="19.54" y="0" class="st10 st13">1</tspan><tspan x="25.25" y="0" class="st10 st13">.</tspan></text>
	</g>
	<g style="clip-path:url(#SVGID_00000116914545783428460810000016881432777902571155_);">
		<text transform="matrix(1 0 0 1 550.4279 40.714)"><tspan x="0" y="0" class="st10 st13">2</tspan><tspan x="5.71" y="0" class="st10 st13">3</tspan><tspan x="11.41" y="0" class="st10 st13">.</tspan><tspan x="13.84" y="0" class="st10 st13">0</tspan><tspan x="19.54" y="0" class="st10 st13">1</tspan><tspan x="25.25" y="0" class="st10 st13">.</tspan></text>
	</g>
</g>
<text transform="matrix(1 0 0 1 34.8571 57.4283)"><tspan x="0" y="0" class="st10 st19">M</tspan><tspan x="10.73" y="0" class="st10 st19">I</tspan><tspan x="14.58" y="0" class="st10 st19">B</tspan></text>
<text transform="matrix(1 0 0 1 2.9996 72.714)"><tspan x="0" y="0" class="st20 st13">2</tspan><tspan x="5.58" y="0" class="st20 st13"> </tspan><tspan x="7.88" y="0" class="st20 st13">S</tspan><tspan x="13.18" y="0" class="st20 st13">W</tspan><tspan x="22.47" y="0" class="st20 st13">S </tspan><tspan x="30.06" y="0" class="st20 st13">V</tspan><tspan x="36.77" y="0" class="st20 st13">o</tspan><tspan x="42.63" y="0" class="st20 st13">r</tspan><tspan x="46.49" y="0" class="st20 st13">l</tspan><tspan x="49.34" y="0" class="st20 st13">e</tspan><tspan x="54.92" y="0" class="st20 st13">sun</tspan><tspan x="70.8" y="0" class="st20 st13">g</tspan></text>
<text transform="matrix(1 0 0 1 2.9996 86.8536)"><tspan x="0" y="0" class="st20 st13">2</tspan><tspan x="5.58" y="0" class="st20 st13"> </tspan><tspan x="7.88" y="0" class="st20 st13">S</tspan><tspan x="13.18" y="0" class="st20 st13">W</tspan><tspan x="22.47" y="0" class="st20 st13">S bun</tspan><tspan x="54.23" y="0" class="st20 st13">g</tspan></text>
<g>
	<defs>
		<rect id="SVGID_00000098917527359356764370000016209400359379220623_" x="1.57" y="92" width="578.29" height="12.71"/>
	</defs>
	<clipPath id="SVGID_00000027568853500052020880000014150602871016558761_">
		<use xlink:href="#SVGID_00000098917527359356764370000016209400359379220623_"  style="overflow:visible;"/>
	</clipPath>
	<g style="clip-path:url(#SVGID_00000027568853500052020880000014150602871016558761_);">
		<text transform="matrix(1 0 0 1 11.5709 100.714)"><tspan x="0" y="0" class="st10 st19">O</tspan><tspan x="9.43" y="0" class="st10 st19">M</tspan><tspan x="20.16" y="0" class="st10 st19">B</tspan><tspan x="28.16" y="0" class="st10 st19"> </tspan><tspan x="31.03" y="0" class="st10 st19">&amp;</tspan><tspan x="39.47" y="0" class="st10 st19"> </tspan><tspan x="42.34" y="0" class="st10 st19">M</tspan><tspan x="53.06" y="0" class="st10 st19">K</tspan><tspan x="61.21" y="0" class="st10 st19">B</tspan></text>
	</g>
</g>
<text transform="matrix(1 0 0 1 2.9996 115.9996)"><tspan x="0" y="0" class="st20 st13">1</tspan><tspan x="5.58" y="0" class="st20 st13"> </tspan><tspan x="7.88" y="0" class="st20 st13">S</tspan><tspan x="13.18" y="0" class="st20 st13">W</tspan><tspan x="22.47" y="0" class="st20 st13">S </tspan><tspan x="30.06" y="0" class="st20 st13">V</tspan><tspan x="36.77" y="0" class="st20 st13">o</tspan><tspan x="42.63" y="0" class="st20 st13">r</tspan><tspan x="46.49" y="0" class="st20 st13">l</tspan><tspan x="49.34" y="0" class="st20 st13">e</tspan><tspan x="54.92" y="0" class="st20 st13">sun</tspan><tspan x="70.8" y="0" class="st20 st13">g</tspan></text>
<text transform="matrix(1 0 0 1 2.9996 130.1398)"><tspan x="0" y="0" class="st20 st13">2</tspan><tspan x="5.58" y="0" class="st20 st13"> </tspan><tspan x="7.88" y="0" class="st20 st13">S</tspan><tspan x="13.18" y="0" class="st20 st13">W</tspan><tspan x="22.47" y="0" class="st20 st13">S bun</tspan><tspan x="54.23" y="0" class="st20 st13">g</tspan></text>
<text transform="matrix(1 0 0 1 14.5709 27.9996)"><tspan x="0" y="0" class="st10 st22">WS</tspan><tspan x="21.42" y="0" class="st10 st22"> </tspan><tspan x="24.85" y="0" class="st10 st22">2</tspan><tspan x="32.84" y="0" class="st10 st22">2</tspan><tspan x="40.82" y="0" class="st10 st22">/</tspan><tspan x="46.96" y="0" class="st10 st22">2</tspan><tspan x="54.94" y="0" class="st10 st22">3</tspan></text>
<text transform="matrix(1 0 0 1 385.714 57.4283)"><tspan x="0" y="0" class="st10 st13">3</tspan><tspan x="5.71" y="0" class="st10 st13">D</tspan><tspan x="13.13" y="0" class="st10 st13">-</tspan><tspan x="16.55" y="0" class="st10 st13">E</tspan><tspan x="22.56" y="0" class="st10 st13">c</tspan><tspan x="27.56" y="0" class="st10 st13">h</tspan><tspan x="33.43" y="0" class="st10 st13">t</tspan><tspan x="38" y="0" class="st10 st13">z</tspan><tspan x="43" y="0" class="st10 st13">e</tspan><tspan x="48.85" y="0" class="st10 st13">i</tspan><tspan x="51.72" y="0" class="st10 st13">t</tspan><tspan x="56.29" y="0" class="st10 st13">-</tspan><tspan x="59.71" y="0" class="st10 st13">P</tspan><tspan x="66.14" y="0" class="st10 st13">r</tspan><tspan x="70.42" y="0" class="st10 st13">o</tspan><tspan x="76.42" y="0" class="st10 st13">gr</tspan><tspan x="86.7" y="0" class="st10 st13">a</tspan><tspan x="92.27" y="0" class="st10 st13">mm</tspan><tspan x="109.43" y="0" class="st10 st13">i</tspan><tspan x="112.3" y="0" class="st10 st13">e</tspan><tspan x="118.15" y="0" class="st10 st13">r</tspan><tspan x="122.43" y="0" class="st10 st13">un</tspan><tspan x="134.17" y="0" class="st10 st13">g</tspan></text>
<g>
	<defs>
		<rect id="SVGID_00000076563754069423087580000014123922946230764707_" x="331.43" y="91.57" width="247.86" height="13.57"/>
	</defs>
	<clipPath id="SVGID_00000152977173690077359380000000366808283820335263_">
		<use xlink:href="#SVGID_00000076563754069423087580000014123922946230764707_"  style="overflow:visible;"/>
	</clipPath>
	<g style="clip-path:url(#SVGID_00000152977173690077359380000000366808283820335263_);">
		<text transform="matrix(1 0 0 1 394.714 100.714)"><tspan x="0" y="0" class="st10 st13">P</tspan><tspan x="6.43" y="0" class="st10 st13">r</tspan><tspan x="10.71" y="0" class="st10 st13">o</tspan><tspan x="16.72" y="0" class="st10 st13">d</tspan><tspan x="22.73" y="0" class="st10 st13">u</tspan><tspan x="28.6" y="0" class="st10 st13">k</tspan><tspan x="34.45" y="0" class="st10 st13">t</tspan><tspan x="39.02" y="0" class="st10 st13">i</tspan><tspan x="41.89" y="0" class="st10 st13">o</tspan><tspan x="47.89" y="0" class="st10 st13">n</tspan><tspan x="53.76" y="0" class="st10 st13"> 3</tspan><tspan x="61.9" y="0" class="st10 st13">D</tspan><tspan x="69.32" y="0" class="st10 st13">-</tspan><tspan x="72.74" y="0" class="st10 st13">A</tspan><tspan x="80.02" y="0" class="st10 st13">ni</tspan><tspan x="88.76" y="0" class="st10 st13">m</tspan><tspan x="97.34" y="0" class="st10 st13">a</tspan><tspan x="102.91" y="0" class="st10 st13">t</tspan><tspan x="107.48" y="0" class="st10 st13">i</tspan><tspan x="110.35" y="0" class="st10 st13">o</tspan><tspan x="116.35" y="0" class="st10 st13">n</tspan></text>
	</g>
</g>
<g>
	<defs>
		<rect id="SVGID_00000085954519089594335160000004935603628674664632_" x="90.29" y="91.57" width="241" height="13.57"/>
	</defs>
	<clipPath id="SVGID_00000001633993428584737360000015878951282330855810_">
		<use xlink:href="#SVGID_00000085954519089594335160000004935603628674664632_"  style="overflow:visible;"/>
	</clipPath>
	<g style="clip-path:url(#SVGID_00000001633993428584737360000015878951282330855810_);">
		<text transform="matrix(1 0 0 1 146.9996 100.714)"><tspan x="0" y="0" class="st10 st13">M</tspan><tspan x="8.86" y="0" class="st10 st13">o</tspan><tspan x="14.87" y="0" class="st10 st13">d</tspan><tspan x="20.88" y="0" class="st10 st13">e</tspan><tspan x="26.73" y="0" class="st10 st13">ll</tspan><tspan x="33.03" y="0" class="st10 st13">in</tspan><tspan x="41.77" y="0" class="st10 st13">g</tspan><tspan x="47.76" y="0" class="st10 st13"> </tspan><tspan x="50.19" y="0" class="st10 st13">T</tspan><tspan x="56.33" y="0" class="st10 st13">h</tspan><tspan x="62.2" y="0" class="st10 st13">e</tspan><tspan x="68.05" y="0" class="st10 st13">o</tspan><tspan x="74.05" y="0" class="st10 st13">r</tspan><tspan x="78.33" y="0" class="st10 st13">i</tspan><tspan x="81.2" y="0" class="st10 st13">e</tspan><tspan x="87.05" y="0" class="st10 st13"> </tspan><tspan x="89.48" y="0" class="st10 st13">&amp;</tspan><tspan x="96.49" y="0" class="st10 st13"> </tspan><tspan x="98.92" y="0" class="st10 st13">P</tspan><tspan x="105.35" y="0" class="st10 st13">r</tspan><tspan x="109.63" y="0" class="st10 st13">a</tspan><tspan x="115.2" y="0" class="st10 st13">x</tspan><tspan x="120.77" y="0" class="st10 st13">i</tspan><tspan x="123.64" y="0" class="st10 st13">s</tspan></text>
	</g>
</g>
<text transform="matrix(1 0 0 1 146.9996 57.4283)"><tspan x="0" y="0" class="st10 st13">M</tspan><tspan x="8.86" y="0" class="st10 st13">o</tspan><tspan x="14.87" y="0" class="st10 st13">d</tspan><tspan x="20.88" y="0" class="st10 st13">e</tspan><tspan x="26.73" y="0" class="st10 st13">ll</tspan><tspan x="33.03" y="0" class="st10 st13">in</tspan><tspan x="41.77" y="0" class="st10 st13">g</tspan><tspan x="47.76" y="0" class="st10 st13"> </tspan><tspan x="50.19" y="0" class="st10 st13">T</tspan><tspan x="56.33" y="0" class="st10 st13">h</tspan><tspan x="62.2" y="0" class="st10 st13">e</tspan><tspan x="68.05" y="0" class="st10 st13">o</tspan><tspan x="74.05" y="0" class="st10 st13">r</tspan><tspan x="78.33" y="0" class="st10 st13">i</tspan><tspan x="81.2" y="0" class="st10 st13">e</tspan><tspan x="87.05" y="0" class="st10 st13"> </tspan><tspan x="89.48" y="0" class="st10 st13">&amp;</tspan><tspan x="96.49" y="0" class="st10 st13"> </tspan><tspan x="98.92" y="0" class="st10 st13">P</tspan><tspan x="105.35" y="0" class="st10 st13">r</tspan><tspan x="109.63" y="0" class="st10 st13">a</tspan><tspan x="115.2" y="0" class="st10 st13">x</tspan><tspan x="120.77" y="0" class="st10 st13">i</tspan><tspan x="123.64" y="0" class="st10 st13">s</tspan></text>
<g>
	<defs>
		<rect id="SVGID_00000106145792485320577120000006876778630233513868_" x="331.43" y="1.57" width="247.86" height="16"/>
	</defs>
	<clipPath id="SVGID_00000121964049990063442300000001921966589347340195_">
		<use xlink:href="#SVGID_00000106145792485320577120000006876778630233513868_"  style="overflow:visible;"/>
	</clipPath>
	<g style="clip-path:url(#SVGID_00000121964049990063442300000001921966589347340195_);">
		<text transform="matrix(1 0 0 1 404.4279 13.1427)"><tspan x="0" y="0" class="st10 st19">2</tspan><tspan x="6.85" y="0" class="st10 st19">.</tspan><tspan x="9.98" y="0" class="st10 st19"> </tspan><tspan x="12.85" y="0" class="st10 st19">S</tspan><tspan x="19.85" y="0" class="st10 st19">e</tspan><tspan x="26.86" y="0" class="st10 st19">m</tspan><tspan x="37.28" y="0" class="st10 st19">e</tspan><tspan x="44.29" y="0" class="st10 st19">s</tspan><tspan x="50.15" y="0" class="st10 st19">t</tspan><tspan x="55.57" y="0" class="st10 st19">e</tspan><tspan x="62.57" y="0" class="st10 st19">r</tspan><tspan x="67.7" y="0" class="st10 st19">h</tspan><tspan x="81.29" y="0" class="st10 st19">l</tspan><tspan x="85.14" y="0" class="st10 st19">f</tspan><tspan x="90.27" y="0" class="st10 st19">t</tspan><tspan x="95.7" y="0" class="st10 st19">e</tspan></text>
	</g>
</g>
<g>
	<defs>
		<rect id="SVGID_00000104688905365241440680000008045215656122725034_" x="90.29" y="1.57" width="241" height="16"/>
	</defs>
	<clipPath id="SVGID_00000133524948472435062330000007665648552864383678_">
		<use xlink:href="#SVGID_00000104688905365241440680000008045215656122725034_"  style="overflow:visible;"/>
	</clipPath>
	<g style="clip-path:url(#SVGID_00000133524948472435062330000007665648552864383678_);">
		<text transform="matrix(1 0 0 1 159.8571 13.1427)"><tspan x="0" y="0" class="st10 st19">1</tspan><tspan x="6.85" y="0" class="st10 st19">.</tspan><tspan x="9.98" y="0" class="st10 st19"> </tspan><tspan x="12.85" y="0" class="st10 st19">S</tspan><tspan x="19.85" y="0" class="st10 st19">e</tspan><tspan x="26.84" y="0" class="st10 st19">m</tspan><tspan x="37.27" y="0" class="st10 st19">e</tspan><tspan x="44.28" y="0" class="st10 st19">s</tspan><tspan x="50.14" y="0" class="st10 st19">t</tspan><tspan x="55.56" y="0" class="st10 st19">e</tspan><tspan x="62.56" y="0" class="st10 st19">r</tspan><tspan x="67.69" y="0" class="st10 st19">h</tspan><tspan x="81.27" y="0" class="st10 st19">l</tspan><tspan x="85.13" y="0" class="st10 st19">f</tspan><tspan x="90.26" y="0" class="st10 st19">t</tspan><tspan x="95.69" y="0" class="st10 st19">e</tspan></text>
	</g>
</g>
<rect x="91.14" y="17.14" width="239.14" height="1"/>
<rect x="91.14" y="30.86" width="239.14" height="1"/>
<rect class="st27" width="2" height="135.71"/>
<rect x="89.14" y="2" class="st27" width="2" height="133.71"/>
<rect x="330.29" y="2" class="st27" width="2" height="133.71"/>
<rect x="578.28" y="2" class="st27" width="2" height="133.71"/>
<rect x="118.43" y="18.14" width="1" height="13.71"/>
<rect x="147.14" y="18.14" width="1" height="13.71"/>
<line class="st28" x1="178.14" y1="18.14" x2="178.14" y2="31.86"/>
<rect x="178.14" y="18.14" width="1" height="13.71"/>
<rect x="209.14" y="18.14" width="1" height="13.71"/>
<rect x="240.14" y="18.14" width="1" height="13.71"/>
<rect x="268.86" y="18.14" width="1" height="13.71"/>
<rect x="299.86" y="18.14" width="1" height="13.71"/>
<rect x="361.86" y="18.14" width="1" height="13.71"/>
<rect x="392.86" y="18.14" width="1" height="13.71"/>
<rect x="423.86" y="18.14" width="1" height="13.71"/>
<rect x="454.86" y="18.14" width="1" height="13.71"/>
<rect x="485.86" y="18.14" width="1" height="13.71"/>
<rect x="516.86" y="18.14" width="1" height="13.71"/>
<rect x="547.86" y="18.14" width="1" height="13.71"/>
<rect x="2" class="st27" width="578.29" height="2"/>
<rect x="332.29" y="17.14" width="246" height="1"/>
<rect x="332.29" y="30.86" width="246" height="1"/>
<rect x="2" y="44.28" class="st27" width="578.29" height="2"/>
<rect x="2" y="90.43" class="st27" width="578.29" height="2"/>
<rect x="2" y="133.71" class="st27" width="578.29" height="2"/>
</svg>
