<?xml version="1.0" encoding="UTF-8"?>
<svg id="Layer_1" data-name="Layer 1" xmlns="http://www.w3.org/2000/svg" xmlns:xlink="http://www.w3.org/1999/xlink" viewBox="0 0 467.28 114.96">
  <defs>
    <style>
      .cls-1 {
        letter-spacing: 0em;
      }

      .cls-2 {
        letter-spacing: 0em;
      }

      .cls-3 {
        letter-spacing: 0em;
      }

      .cls-4 {
        fill: #fff;
      }

      .cls-5 {
        letter-spacing: 0em;
      }

      .cls-6 {
        letter-spacing: 0em;
      }

      .cls-7 {
        fill: #dbdbdb;
      }

      .cls-8 {
        letter-spacing: -.01em;
      }

      .cls-9 {
        letter-spacing: 0em;
      }

      .cls-10 {
        letter-spacing: .01em;
      }

      .cls-11 {
        letter-spacing: 0em;
      }

      .cls-12 {
        font-family: Ubuntu-Regular, Ubuntu;
      }

      .cls-12, .cls-13 {
        font-size: 8.4px;
      }

      .cls-14 {
        fill: #d0cece;
      }

      .cls-15 {
        letter-spacing: 0em;
      }

      .cls-16 {
        letter-spacing: 0em;
      }

      .cls-17 {
        letter-spacing: 0em;
      }

      .cls-13, .cls-18, .cls-19, .cls-20 {
        font-family: Ubuntu-Bold, Ubuntu;
        font-weight: 700;
      }

      .cls-21 {
        letter-spacing: 0em;
      }

      .cls-22 {
        letter-spacing: .02em;
      }

      .cls-23 {
        clip-path: url(#clippath-2);
      }

      .cls-24 {
        letter-spacing: 0em;
      }

      .cls-25 {
        letter-spacing: 0em;
      }

      .cls-26 {
        letter-spacing: 0em;
      }

      .cls-27 {
        clip-path: url(#clippath-6);
      }

      .cls-28 {
        letter-spacing: 0em;
      }

      .cls-18 {
        font-size: 6.72px;
      }

      .cls-29 {
        letter-spacing: 0em;
      }

      .cls-30 {
        letter-spacing: 0em;
      }

      .cls-31 {
        letter-spacing: 0em;
      }

      .cls-32 {
        letter-spacing: 0em;
      }

      .cls-33 {
        letter-spacing: 0em;
      }

      .cls-34 {
        letter-spacing: 0em;
      }

      .cls-35 {
        clip-path: url(#clippath-7);
      }

      .cls-36 {
        letter-spacing: 0em;
      }

      .cls-37 {
        letter-spacing: 0em;
      }

      .cls-38 {
        letter-spacing: 0em;
      }

      .cls-39 {
        clip-path: url(#clippath-1);
      }

      .cls-40 {
        clip-path: url(#clippath-4);
      }

      .cls-41 {
        letter-spacing: 0em;
      }

      .cls-42 {
        letter-spacing: 0em;
      }

      .cls-43 {
        fill: #d9e1f2;
      }

      .cls-44 {
        letter-spacing: .01em;
      }

      .cls-45 {
        letter-spacing: 0em;
      }

      .cls-46 {
        letter-spacing: 0em;
      }

      .cls-47 {
        letter-spacing: 0em;
      }

      .cls-48 {
        letter-spacing: 0em;
      }

      .cls-49 {
        letter-spacing: 0em;
      }

      .cls-50 {
        letter-spacing: 0em;
      }

      .cls-51 {
        letter-spacing: 0em;
      }

      .cls-19 {
        font-size: 11.76px;
      }

      .cls-52 {
        letter-spacing: 0em;
      }

      .cls-53 {
        letter-spacing: 0em;
      }

      .cls-54 {
        letter-spacing: 0em;
      }

      .cls-55 {
        letter-spacing: 0em;
      }

      .cls-56 {
        letter-spacing: 0em;
      }

      .cls-57 {
        letter-spacing: .01em;
      }

      .cls-58 {
        clip-path: url(#clippath);
      }

      .cls-59 {
        letter-spacing: 0em;
      }

      .cls-60 {
        fill: none;
      }

      .cls-61 {
        letter-spacing: 0em;
      }

      .cls-62 {
        clip-path: url(#clippath-3);
      }

      .cls-63 {
        letter-spacing: 0em;
      }

      .cls-64 {
        letter-spacing: 0em;
      }

      .cls-65 {
        letter-spacing: 0em;
      }

      .cls-66 {
        letter-spacing: 0em;
      }

      .cls-67 {
        letter-spacing: 0em;
      }

      .cls-68 {
        letter-spacing: 0em;
      }

      .cls-20 {
        font-size: 10.08px;
      }

      .cls-69 {
        letter-spacing: 0em;
      }

      .cls-70 {
        clip-path: url(#clippath-5);
      }

      .cls-71 {
        letter-spacing: 0em;
      }

      .cls-72 {
        fill: #e2efda;
      }

      .cls-73 {
        letter-spacing: 0em;
      }

      .cls-74 {
        letter-spacing: 0em;
      }

      .cls-75 {
        letter-spacing: 0em;
      }

      .cls-76 {
        letter-spacing: 0em;
      }

      .cls-77 {
        letter-spacing: 0em;
      }

      .cls-78 {
        letter-spacing: 0em;
      }

      .cls-79 {
        letter-spacing: 0em;
      }

      .cls-80 {
        letter-spacing: 0em;
      }

      .cls-81 {
        letter-spacing: 0em;
      }

      .cls-82 {
        letter-spacing: 0em;
      }

      .cls-83 {
        fill: #f2f2f2;
      }

      .cls-84 {
        fill: #c6e0b4;
      }

      .cls-85 {
        letter-spacing: 0em;
      }

      .cls-86 {
        letter-spacing: 0em;
      }

      .cls-87 {
        fill: #b4c6e7;
      }

      .cls-88 {
        letter-spacing: 0em;
      }

      .cls-89 {
        letter-spacing: 0em;
      }
    </style>
    <clipPath id="clippath">
      <rect class="cls-60" x="77.04" y="26.88" width="23.4" height="10.92"/>
    </clipPath>
    <clipPath id="clippath-1">
      <rect class="cls-60" x="101.4" y="26.88" width="23.4" height="10.92"/>
    </clipPath>
    <clipPath id="clippath-2">
      <rect class="cls-60" x="1.2" y="26.88" width="465.72" height="10.92"/>
    </clipPath>
    <clipPath id="clippath-3">
      <rect class="cls-60" x="204.96" y="26.88" width="23.4" height="10.92"/>
    </clipPath>
    <clipPath id="clippath-4">
      <rect class="cls-60" x="1.2" y="26.88" width="465.72" height="10.92"/>
    </clipPath>
    <clipPath id="clippath-5">
      <rect class="cls-60" x="1.2" y="77.88" width="465.72" height="10.68"/>
    </clipPath>
    <clipPath id="clippath-6">
      <rect class="cls-60" x="76.56" y="77.4" width="178.68" height="11.64"/>
    </clipPath>
    <clipPath id="clippath-7">
      <rect class="cls-60" x="255.24" y="77.4" width="211.2" height="11.64"/>
    </clipPath>
  </defs>
  <rect class="cls-4" x="1.2" y="1.2" width="465.36" height="25.32"/>
  <rect class="cls-4" x="1.2" y="26.4" width="75.48" height="12"/>
  <rect class="cls-7" x="76.56" y="26.4" width="24.48" height="12"/>
  <rect class="cls-14" x="100.92" y="26.4" width="24.48" height="12"/>
  <rect class="cls-7" x="125.28" y="26.4" width="26.52" height="12"/>
  <rect class="cls-14" x="151.68" y="26.4" width="77.28" height="12"/>
  <rect class="cls-7" x="228.84" y="26.4" width="52.92" height="12"/>
  <rect class="cls-14" x="281.64" y="26.4" width="26.52" height="12"/>
  <rect class="cls-7" x="308.04" y="26.4" width="26.52" height="12"/>
  <rect class="cls-14" x="334.44" y="26.4" width="26.52" height="12"/>
  <rect class="cls-7" x="360.84" y="26.4" width="26.52" height="12"/>
  <rect class="cls-14" x="387.24" y="26.4" width="26.52" height="12"/>
  <rect class="cls-7" x="413.64" y="26.4" width="52.92" height="12"/>
  <rect class="cls-4" x="1.2" y="38.28" width="465.36" height="14.16"/>
  <rect class="cls-4" x="1.2" y="52.32" width="75.48" height="25.2"/>
  <rect class="cls-84" x="76.56" y="52.32" width="24.48" height="25.2"/>
  <rect class="cls-72" x="100.92" y="52.32" width="24.48" height="25.2"/>
  <rect class="cls-84" x="125.28" y="52.32" width="26.52" height="25.2"/>
  <rect class="cls-72" x="151.68" y="52.32" width="26.52" height="25.2"/>
  <rect class="cls-84" x="178.08" y="52.32" width="26.52" height="25.2"/>
  <rect class="cls-72" x="204.48" y="52.32" width="24.48" height="25.2"/>
  <rect class="cls-84" x="228.84" y="52.32" width="26.52" height="25.2"/>
  <rect class="cls-87" x="255.24" y="52.32" width="26.52" height="25.2"/>
  <rect class="cls-43" x="281.64" y="52.32" width="26.52" height="25.2"/>
  <rect class="cls-87" x="308.04" y="52.32" width="26.52" height="25.2"/>
  <rect class="cls-43" x="334.44" y="52.32" width="26.52" height="25.2"/>
  <rect class="cls-87" x="360.84" y="52.32" width="26.52" height="25.2"/>
  <rect class="cls-43" x="387.24" y="52.32" width="26.52" height="25.2"/>
  <rect class="cls-87" x="413.64" y="52.32" width="26.52" height="25.2"/>
  <rect class="cls-43" x="440.04" y="52.32" width="26.52" height="25.2"/>
  <rect class="cls-4" x="1.2" y="77.4" width="465.36" height="11.76"/>
  <rect class="cls-4" x="1.2" y="89.04" width="75.48" height="12.36"/>
  <rect class="cls-84" x="76.56" y="89.04" width="24.48" height="12.36"/>
  <rect class="cls-72" x="100.92" y="89.04" width="24.48" height="12.36"/>
  <rect class="cls-84" x="125.28" y="89.04" width="26.52" height="12.36"/>
  <rect class="cls-72" x="151.68" y="89.04" width="26.52" height="12.36"/>
  <rect class="cls-84" x="178.08" y="89.04" width="26.52" height="12.36"/>
  <rect class="cls-72" x="204.48" y="89.04" width="24.48" height="12.36"/>
  <rect class="cls-84" x="228.84" y="89.04" width="26.52" height="12.36"/>
  <rect class="cls-83" x="255.24" y="89.04" width="211.32" height="12.36"/>
  <rect class="cls-4" x="1.2" y="101.28" width="75.48" height="12.96"/>
  <rect class="cls-84" x="76.56" y="101.28" width="24.48" height="12.96"/>
  <rect class="cls-72" x="100.92" y="101.28" width="24.48" height="12.96"/>
  <rect class="cls-84" x="125.28" y="101.28" width="26.52" height="12.96"/>
  <rect class="cls-72" x="151.68" y="101.28" width="26.52" height="12.96"/>
  <rect class="cls-84" x="178.08" y="101.28" width="26.52" height="12.96"/>
  <rect class="cls-72" x="204.48" y="101.28" width="24.48" height="12.96"/>
  <rect class="cls-84" x="228.84" y="101.28" width="52.92" height="12.96"/>
  <rect class="cls-72" x="281.64" y="101.28" width="26.52" height="12.96"/>
  <rect class="cls-84" x="308.04" y="101.28" width="26.52" height="12.96"/>
  <rect class="cls-72" x="334.44" y="101.28" width="26.52" height="12.96"/>
  <rect class="cls-84" x="360.84" y="101.28" width="26.52" height="12.96"/>
  <rect class="cls-72" x="387.24" y="101.28" width="26.52" height="12.96"/>
  <rect class="cls-84" x="413.64" y="101.28" width="26.52" height="12.96"/>
  <rect class="cls-72" x="440.04" y="101.28" width="26.52" height="12.96"/>
  <text class="cls-18" transform="translate(87.24 22.8)"><tspan x="0" y="0">1</tspan></text>
  <text class="cls-18" transform="translate(111.6 22.8)"><tspan x="0" y="0">2</tspan></text>
  <text class="cls-18" transform="translate(137.04 22.8)"><tspan x="0" y="0">3</tspan></text>
  <text class="cls-18" transform="translate(163.44 22.8)"><tspan x="0" y="0">4</tspan></text>
  <text class="cls-18" transform="translate(189.85 22.8)"><tspan x="0" y="0">5</tspan></text>
  <text class="cls-18" transform="translate(215.17 22.8)"><tspan x="0" y="0">6</tspan></text>
  <text class="cls-18" transform="translate(240.61 22.8)"><tspan x="0" y="0">7</tspan></text>
  <text class="cls-18" transform="translate(267.01 22.8)"><tspan x="0" y="0">8</tspan></text>
  <text class="cls-18" transform="translate(293.42 22.8)"><tspan x="0" y="0">9</tspan></text>
  <text class="cls-18" transform="translate(317.9 22.8)"><tspan class="cls-71" x="0" y="0">1</tspan><tspan x="3.83" y="0">0</tspan></text>
  <text class="cls-18" transform="translate(344.3 22.8)"><tspan class="cls-71" x="0" y="0">1</tspan><tspan x="3.83" y="0">1</tspan></text>
  <text class="cls-18" transform="translate(370.7 22.8)"><tspan class="cls-71" x="0" y="0">1</tspan><tspan x="3.83" y="0">2</tspan></text>
  <text class="cls-18" transform="translate(397.11 22.8)"><tspan class="cls-71" x="0" y="0">1</tspan><tspan x="3.83" y="0">3</tspan></text>
  <text class="cls-18" transform="translate(423.51 22.8)"><tspan class="cls-71" x="0" y="0">1</tspan><tspan x="3.83" y="0">4</tspan></text>
  <text class="cls-18" transform="translate(449.91 22.8)"><tspan class="cls-71" x="0" y="0">1</tspan><tspan x="3.83" y="0">5</tspan></text>
  <g class="cls-58">
    <text class="cls-13" transform="translate(77.52 34.56)"><tspan class="cls-81" x="0" y="0">14</tspan><tspan class="cls-79" x="9.58" y="0">.</tspan><tspan class="cls-42" x="11.62" y="0">0</tspan><tspan class="cls-41" x="16.4" y="0">3</tspan><tspan x="21.2" y="0">.</tspan></text>
  </g>
  <g class="cls-39">
    <text class="cls-13" transform="translate(101.88 34.56)"><tspan class="cls-81" x="0" y="0">21</tspan><tspan class="cls-79" x="9.58" y="0">.</tspan><tspan class="cls-42" x="11.62" y="0">0</tspan><tspan class="cls-41" x="16.4" y="0">3</tspan><tspan x="21.2" y="0">.</tspan></text>
  </g>
  <g class="cls-23">
    <text class="cls-13" transform="translate(127.32 34.56)"><tspan class="cls-81" x="0" y="0">28</tspan><tspan class="cls-79" x="9.58" y="0">.</tspan><tspan class="cls-42" x="11.62" y="0">0</tspan><tspan class="cls-41" x="16.4" y="0">3</tspan><tspan x="21.2" y="0">.</tspan></text>
    <text class="cls-13" transform="translate(153.72 34.56)"><tspan class="cls-81" x="0" y="0">04</tspan><tspan class="cls-79" x="9.58" y="0">.</tspan><tspan class="cls-42" x="11.62" y="0">0</tspan><tspan class="cls-41" x="16.4" y="0">4</tspan><tspan x="21.2" y="0">.</tspan></text>
    <text class="cls-13" transform="translate(180.12 34.56)"><tspan class="cls-81" x="0" y="0">11</tspan><tspan class="cls-79" x="9.58" y="0">.</tspan><tspan class="cls-64" x="11.62" y="0">0</tspan><tspan class="cls-81" x="16.41" y="0">4</tspan><tspan x="21.2" y="0">.</tspan></text>
  </g>
  <g class="cls-62">
    <text class="cls-13" transform="translate(205.44 34.56)"><tspan class="cls-81" x="0" y="0">17</tspan><tspan class="cls-79" x="9.58" y="0">.</tspan><tspan class="cls-42" x="11.62" y="0">0</tspan><tspan class="cls-41" x="16.4" y="0">4</tspan><tspan x="21.2" y="0">.</tspan></text>
  </g>
  <g class="cls-40">
    <text class="cls-13" transform="translate(230.88 34.56)"><tspan class="cls-41" x="0" y="0">2</tspan><tspan class="cls-81" x="4.8" y="0">5</tspan><tspan class="cls-17" x="9.58" y="0">.</tspan><tspan class="cls-42" x="11.63" y="0">0</tspan><tspan class="cls-41" x="16.41" y="0">4</tspan><tspan x="21.21" y="0">.</tspan></text>
    <text class="cls-13" transform="translate(257.28 34.56)"><tspan class="cls-41" x="0" y="0">0</tspan><tspan class="cls-42" x="4.8" y="0">2</tspan><tspan class="cls-17" x="9.58" y="0">.</tspan><tspan class="cls-42" x="11.63" y="0">0</tspan><tspan class="cls-36" x="16.41" y="0">5</tspan><tspan x="21.21" y="0">.</tspan></text>
    <text class="cls-13" transform="translate(283.68 34.56)"><tspan class="cls-36" x="0" y="0">0</tspan><tspan class="cls-42" x="4.8" y="0">9</tspan><tspan class="cls-17" x="9.58" y="0">.</tspan><tspan class="cls-42" x="11.62" y="0">0</tspan><tspan class="cls-41" x="16.41" y="0">5</tspan><tspan x="21.21" y="0">.</tspan></text>
    <text class="cls-13" transform="translate(310.08 34.56)"><tspan class="cls-36" x="0" y="0">1</tspan><tspan class="cls-42" x="4.8" y="0">6</tspan><tspan class="cls-17" x="9.58" y="0">.</tspan><tspan class="cls-42" x="11.62" y="0">0</tspan><tspan class="cls-41" x="16.41" y="0">5</tspan><tspan x="21.21" y="0">.</tspan></text>
    <text class="cls-13" transform="translate(336.48 34.56)"><tspan class="cls-36" x="0" y="0">2</tspan><tspan class="cls-42" x="4.8" y="0">3</tspan><tspan class="cls-17" x="9.58" y="0">.</tspan><tspan class="cls-42" x="11.62" y="0">0</tspan><tspan class="cls-41" x="16.41" y="0">5</tspan><tspan x="21.21" y="0">.</tspan></text>
    <text class="cls-13" transform="translate(362.88 34.56)"><tspan class="cls-16" x="0" y="0">P</tspan><tspan class="cls-29" x="5.4" y="0">fin</tspan><tspan class="cls-5" x="16.26" y="0">g</tspan><tspan x="21.29" y="0">.</tspan></text>
    <text class="cls-13" transform="translate(389.28 34.56)"><tspan class="cls-36" x="0" y="0">0</tspan><tspan class="cls-42" x="4.8" y="0">6</tspan><tspan class="cls-17" x="9.58" y="0">.</tspan><tspan class="cls-42" x="11.62" y="0">0</tspan><tspan class="cls-41" x="16.41" y="0">6</tspan><tspan x="21.21" y="0">.</tspan></text>
    <text class="cls-13" transform="translate(415.68 34.56)"><tspan class="cls-36" x="0" y="0">1</tspan><tspan class="cls-42" x="4.8" y="0">3</tspan><tspan class="cls-17" x="9.58" y="0">.</tspan><tspan class="cls-42" x="11.62" y="0">0</tspan><tspan class="cls-41" x="16.41" y="0">6</tspan><tspan x="21.21" y="0">.</tspan></text>
    <text class="cls-13" transform="translate(442.08 34.56)"><tspan class="cls-36" x="0" y="0">2</tspan><tspan class="cls-42" x="4.8" y="0">0</tspan><tspan class="cls-17" x="9.58" y="0">.</tspan><tspan class="cls-42" x="11.62" y="0">0</tspan><tspan class="cls-41" x="16.41" y="0">6</tspan><tspan x="21.21" y="0">.</tspan></text>
  </g>
  <text class="cls-20" transform="translate(29.64 48.72)"><tspan class="cls-2" x="0" y="0">M</tspan><tspan class="cls-78" x="9.01" y="0">I</tspan><tspan class="cls-56" x="12.25" y="0">B</tspan></text>
  <text class="cls-12" transform="translate(2.4 61.56)"><tspan class="cls-50" x="0" y="0">2</tspan><tspan class="cls-63" x="4.69" y="0"> </tspan><tspan class="cls-6" x="6.62" y="0">S</tspan><tspan x="11.07" y="0">W</tspan><tspan class="cls-37" x="18.87" y="0">S </tspan><tspan class="cls-57" x="25.25" y="0">V</tspan><tspan class="cls-76" x="30.89" y="0">o</tspan><tspan x="35.81" y="0">r</tspan><tspan class="cls-10" x="39.05" y="0">l</tspan><tspan class="cls-63" x="41.44" y="0">e</tspan><tspan class="cls-17" x="46.13" y="0">s</tspan><tspan class="cls-37" x="49.85" y="0">un</tspan><tspan class="cls-28" x="59.46" y="0">g</tspan></text>
  <text class="cls-12" transform="translate(2.4 73.68)"><tspan class="cls-50" x="0" y="0">2</tspan><tspan class="cls-63" x="4.69" y="0"> </tspan><tspan class="cls-6" x="6.62" y="0">S</tspan><tspan x="11.07" y="0">W</tspan><tspan class="cls-37" x="18.87" y="0">S Übun</tspan><tspan x="45.55" y="0">g</tspan></text>
  <g class="cls-70">
    <text class="cls-20" transform="translate(10.08 85.44)"><tspan class="cls-85" x="0" y="0">OM</tspan><tspan class="cls-21" x="16.94" y="0">B</tspan><tspan class="cls-15" x="23.67" y="0"> </tspan><tspan class="cls-31" x="26.08" y="0">&amp;</tspan><tspan class="cls-15" x="33.16" y="0"> </tspan><tspan class="cls-2" x="35.57" y="0">M</tspan><tspan class="cls-88" x="44.58" y="0">K</tspan><tspan x="51.43" y="0">B</tspan></text>
  </g>
  <text class="cls-12" transform="translate(2.4 98.28)"><tspan class="cls-50" x="0" y="0">1</tspan><tspan class="cls-63" x="4.69" y="0"> </tspan><tspan class="cls-6" x="6.62" y="0">S</tspan><tspan x="11.07" y="0">W</tspan><tspan class="cls-37" x="18.87" y="0">S </tspan><tspan class="cls-57" x="25.25" y="0">V</tspan><tspan class="cls-76" x="30.89" y="0">o</tspan><tspan x="35.81" y="0">r</tspan><tspan class="cls-10" x="39.05" y="0">l</tspan><tspan class="cls-63" x="41.44" y="0">e</tspan><tspan class="cls-17" x="46.13" y="0">s</tspan><tspan class="cls-37" x="49.85" y="0">un</tspan><tspan class="cls-28" x="59.46" y="0">g</tspan></text>
  <text class="cls-12" transform="translate(2.4 110.4)"><tspan class="cls-50" x="0" y="0">2</tspan><tspan class="cls-63" x="4.69" y="0"> </tspan><tspan class="cls-6" x="6.62" y="0">S</tspan><tspan x="11.07" y="0">W</tspan><tspan class="cls-37" x="18.87" y="0">S Übun</tspan><tspan x="45.55" y="0">g</tspan></text>
  <g class="cls-27">
    <text class="cls-13" transform="translate(112.44 85.44)"><tspan class="cls-8" x="0" y="0">M</tspan><tspan class="cls-51" x="7.44" y="0">o</tspan><tspan class="cls-17" x="12.48" y="0">d</tspan><tspan class="cls-54" x="17.53" y="0">e</tspan><tspan class="cls-63" x="22.44" y="0">ll</tspan><tspan class="cls-37" x="27.74" y="0">in</tspan><tspan class="cls-47" x="35.08" y="0">g</tspan><tspan class="cls-64" x="40.11" y="0"> </tspan><tspan x="42.15" y="0">T</tspan><tspan class="cls-37" x="47.31" y="0">h</tspan><tspan class="cls-54" x="52.24" y="0">e</tspan><tspan class="cls-82" x="57.15" y="0">o</tspan><tspan class="cls-32" x="62.2" y="0">r</tspan><tspan class="cls-37" x="65.8" y="0">i</tspan><tspan class="cls-48" x="68.21" y="0">e</tspan><tspan class="cls-41" x="73.12" y="0"> </tspan><tspan class="cls-76" x="75.16" y="0">&amp;</tspan><tspan class="cls-64" x="81.05" y="0"> </tspan><tspan class="cls-63" x="83.09" y="0">P</tspan><tspan class="cls-52" x="88.49" y="0">r</tspan><tspan class="cls-55" x="92.09" y="0">a</tspan><tspan class="cls-64" x="96.77" y="0">x</tspan><tspan class="cls-34" x="101.44" y="0">i</tspan><tspan x="103.86" y="0">s</tspan></text>
  </g>
  <text class="cls-19" transform="translate(25.56 23.52)"><tspan x="0" y="0">SS</tspan><tspan class="cls-73" x="13.69" y="0">2</tspan><tspan class="cls-38" x="20.4" y="0">3</tspan></text>
  <text class="cls-20" transform="translate(123.24 11.16)"><tspan class="cls-30" x="0" y="0">1</tspan><tspan class="cls-22" x="5.76" y="0">.</tspan><tspan class="cls-15" x="8.39" y="0"> </tspan><tspan class="cls-1" x="10.8" y="0">S</tspan><tspan class="cls-89" x="16.67" y="0">e</tspan><tspan class="cls-67" x="22.55" y="0">m</tspan><tspan x="31.31" y="0">e</tspan><tspan class="cls-59" x="37.19" y="0">s</tspan><tspan class="cls-46" x="42.11" y="0">t</tspan><tspan class="cls-15" x="46.67" y="0">e</tspan><tspan class="cls-86" x="52.55" y="0">r</tspan><tspan class="cls-88" x="56.86" y="0">hä</tspan><tspan class="cls-24" x="68.27" y="0">l</tspan><tspan class="cls-3" x="71.51" y="0">f</tspan><tspan class="cls-46" x="75.82" y="0">t</tspan><tspan x="80.38" y="0">e</tspan></text>
  <text class="cls-13" transform="translate(112.44 48.72)"><tspan class="cls-8" x="0" y="0">M</tspan><tspan class="cls-51" x="7.44" y="0">o</tspan><tspan class="cls-17" x="12.48" y="0">d</tspan><tspan class="cls-54" x="17.53" y="0">e</tspan><tspan class="cls-63" x="22.44" y="0">ll</tspan><tspan class="cls-37" x="27.74" y="0">in</tspan><tspan class="cls-47" x="35.08" y="0">g</tspan><tspan class="cls-64" x="40.11" y="0"> </tspan><tspan x="42.15" y="0">T</tspan><tspan class="cls-37" x="47.31" y="0">h</tspan><tspan class="cls-54" x="52.24" y="0">e</tspan><tspan class="cls-82" x="57.15" y="0">o</tspan><tspan class="cls-32" x="62.2" y="0">r</tspan><tspan class="cls-37" x="65.8" y="0">i</tspan><tspan class="cls-48" x="68.21" y="0">e</tspan><tspan class="cls-41" x="73.12" y="0"> </tspan><tspan class="cls-76" x="75.16" y="0">&amp;</tspan><tspan class="cls-64" x="81.05" y="0"> </tspan><tspan class="cls-63" x="83.09" y="0">P</tspan><tspan class="cls-52" x="88.49" y="0">r</tspan><tspan class="cls-55" x="92.09" y="0">a</tspan><tspan class="cls-64" x="96.77" y="0">x</tspan><tspan class="cls-34" x="101.44" y="0">i</tspan><tspan x="103.86" y="0">s</tspan></text>
  <text class="cls-20" transform="translate(318.12 11.16)"><tspan class="cls-59" x="0" y="0">2</tspan><tspan class="cls-22" x="5.76" y="0">.</tspan><tspan class="cls-45" x="8.39" y="0"> </tspan><tspan class="cls-74" x="10.79" y="0">S</tspan><tspan x="16.67" y="0">e</tspan><tspan class="cls-75" x="22.56" y="0">m</tspan><tspan class="cls-45" x="31.32" y="0">e</tspan><tspan class="cls-59" x="37.19" y="0">s</tspan><tspan class="cls-26" x="42.11" y="0">t</tspan><tspan x="46.67" y="0">e</tspan><tspan class="cls-49" x="52.56" y="0">r</tspan><tspan class="cls-21" x="56.87" y="0">hä</tspan><tspan class="cls-66" x="68.28" y="0">l</tspan><tspan class="cls-3" x="71.52" y="0">f</tspan><tspan class="cls-46" x="75.83" y="0">t</tspan><tspan x="80.39" y="0">e</tspan></text>
  <g class="cls-35">
    <text class="cls-13" transform="translate(309.96 85.44)"><tspan class="cls-16" x="0" y="0">P</tspan><tspan class="cls-52" x="5.4" y="0">r</tspan><tspan class="cls-51" x="9" y="0">o</tspan><tspan class="cls-69" x="14.04" y="0">d</tspan><tspan class="cls-37" x="19.08" y="0">u</tspan><tspan class="cls-52" x="24.02" y="0">k</tspan><tspan class="cls-44" x="28.93" y="0">t</tspan><tspan class="cls-37" x="32.77" y="0">i</tspan><tspan class="cls-51" x="35.18" y="0">o</tspan><tspan class="cls-37" x="40.22" y="0">n</tspan><tspan class="cls-41" x="45.15" y="0" xml:space="preserve"> 3</tspan><tspan class="cls-5" x="51.99" y="0">D</tspan><tspan class="cls-42" x="58.22" y="0">-</tspan><tspan class="cls-80" x="61.09" y="0">A</tspan><tspan class="cls-37" x="67.21" y="0">ni</tspan><tspan class="cls-65" x="74.55" y="0">m</tspan><tspan class="cls-77" x="81.76" y="0">a</tspan><tspan class="cls-44" x="86.43" y="0">t</tspan><tspan class="cls-29" x="90.27" y="0">i</tspan><tspan class="cls-61" x="92.68" y="0">o</tspan><tspan x="97.73" y="0">n</tspan></text>
  </g>
  <text class="cls-13" transform="translate(302.4 48.72)"><tspan class="cls-36" x="0" y="0">3</tspan><tspan class="cls-5" x="4.8" y="0">D</tspan><tspan class="cls-42" x="11.03" y="0">-</tspan><tspan class="cls-53" x="13.9" y="0">E</tspan><tspan x="18.95" y="0">c</tspan><tspan class="cls-37" x="23.15" y="0">h</tspan><tspan class="cls-44" x="28.08" y="0">t</tspan><tspan class="cls-33" x="31.92" y="0">z</tspan><tspan class="cls-25" x="36.12" y="0">e</tspan><tspan class="cls-37" x="41.03" y="0">i</tspan><tspan class="cls-44" x="43.44" y="0">t</tspan><tspan class="cls-68" x="47.28" y="0">-</tspan><tspan class="cls-16" x="50.16" y="0">P</tspan><tspan class="cls-11" x="55.56" y="0">r</tspan><tspan class="cls-9" x="59.15" y="0">o</tspan><tspan class="cls-11" x="64.19" y="0">gr</tspan><tspan class="cls-77" x="72.83" y="0">a</tspan><tspan class="cls-65" x="77.51" y="0">mm</tspan><tspan class="cls-37" x="91.92" y="0">i</tspan><tspan class="cls-25" x="94.33" y="0">e</tspan><tspan class="cls-52" x="99.25" y="0">r</tspan><tspan class="cls-37" x="102.84" y="0">un</tspan><tspan x="112.7" y="0">g</tspan></text>
  <rect x="77.4" y="14.4" width="177.12" height=".84"/>
  <rect x="77.4" y="26.04" width="177.12" height=".84"/>
  <rect width="1.56" height="114.96"/>
  <rect x="75.84" y="1.56" width="1.56" height="113.4"/>
  <rect x="254.52" y="1.56" width="1.56" height="113.4"/>
  <rect x="465.72" y="1.56" width="1.56" height="113.4"/>
  <rect x="100.56" y="15.24" width=".84" height="11.64"/>
  <rect x="124.92" y="15.24" width=".84" height="11.64"/>
  <rect x="151.32" y="15.24" width=".84" height="11.64"/>
  <rect x="177.72" y="15.24" width=".84" height="11.64"/>
  <rect x="204.12" y="15.24" width=".84" height="11.64"/>
  <rect x="228.48" y="15.24" width=".84" height="11.64"/>
  <rect x="281.28" y="15.24" width=".84" height="11.64"/>
  <rect x="307.68" y="15.24" width=".84" height="11.64"/>
  <rect x="334.08" y="15.24" width=".84" height="11.64"/>
  <rect x="360.48" y="15.24" width=".84" height="11.64"/>
  <rect x="386.88" y="15.24" width=".84" height="11.64"/>
  <rect x="413.28" y="15.24" width=".84" height="11.64"/>
  <rect x="439.68" y="15.24" width=".84" height="11.64"/>
  <rect x="1.56" width="465.72" height="1.56"/>
  <rect x="256.08" y="14.4" width="209.64" height=".84"/>
  <rect x="256.08" y="26.04" width="209.64" height=".84"/>
  <rect x="1.56" y="37.56" width="465.72" height="1.56"/>
  <rect x="1.56" y="76.68" width="465.72" height="1.56"/>
  <rect x="1.56" y="113.4" width="465.72" height="1.56"/>
</svg>