<svg id="Layer_1" data-name="Layer 1" xmlns="http://www.w3.org/2000/svg" xmlns:xlink="http://www.w3.org/1999/xlink" viewBox="0 0 580.29 135.71"><defs><style>.cls-1{fill:none;}.cls-2{fill:#fff;}.cls-3{fill:#dbdbdb;}.cls-4{fill:#d0cece;}.cls-5{fill:#c6e0b4;}.cls-6{fill:#e2efda;}.cls-7{fill:#b4c6e7;}.cls-8{fill:#d9e1f2;}.cls-9{fill:#f2f2f2;}.cls-10{font-size:8px;}.cls-10,.cls-13,.cls-21,.cls-23,.cls-49,.cls-74{font-family:Ubuntu-Bold, Ubuntu;font-weight:700;}.cls-11{letter-spacing:0em;}.cls-12{clip-path:url(#clip-path);}.cls-13,.cls-21,.cls-26,.cls-74{font-size:10px;}.cls-14{letter-spacing:0em;}.cls-15{letter-spacing:0em;}.cls-16{letter-spacing:0em;}.cls-17{clip-path:url(#clip-path-2);}.cls-18{clip-path:url(#clip-path-3);}.cls-19,.cls-21{letter-spacing:0em;}.cls-20{letter-spacing:0em;}.cls-22{letter-spacing:0em;}.cls-23{font-size:12px;}.cls-24{letter-spacing:0em;}.cls-25{letter-spacing:0em;}.cls-26{font-family:Ubuntu-Regular, Ubuntu;}.cls-27{letter-spacing:-0.01em;}.cls-28{letter-spacing:0em;}.cls-29{letter-spacing:0em;}.cls-30{letter-spacing:0.01em;}.cls-31{letter-spacing:0em;}.cls-32{letter-spacing:0.01em;}.cls-33{clip-path:url(#clip-path-4);}.cls-34{letter-spacing:0em;}.cls-35{letter-spacing:0em;}.cls-36{letter-spacing:-0.01em;}.cls-37{letter-spacing:0em;}.cls-38{letter-spacing:0em;}.cls-39{clip-path:url(#clip-path-5);}.cls-40{letter-spacing:-0.01em;}.cls-41{letter-spacing:0em;}.cls-42{letter-spacing:0.01em;}.cls-43{letter-spacing:0em;}.cls-44{letter-spacing:0em;}.cls-45{letter-spacing:0.01em;}.cls-46{letter-spacing:0em;}.cls-47{letter-spacing:0em;}.cls-48{letter-spacing:0em;}.cls-49{font-size:14px;}.cls-50{letter-spacing:0em;}.cls-51{letter-spacing:0em;}.cls-52{letter-spacing:0em;}.cls-53{clip-path:url(#clip-path-6);}.cls-54{letter-spacing:0em;}.cls-55{letter-spacing:0.02em;}.cls-56{letter-spacing:0em;}.cls-57{letter-spacing:0em;}.cls-58{letter-spacing:0.01em;}.cls-59{letter-spacing:0em;}.cls-60{letter-spacing:0.01em;}.cls-61{letter-spacing:0em;}.cls-62{letter-spacing:0.01em;}.cls-63{letter-spacing:0.01em;}.cls-64{clip-path:url(#clip-path-7);}.cls-65{letter-spacing:0.01em;}.cls-66{letter-spacing:0em;}.cls-67{letter-spacing:0.01em;}.cls-68{letter-spacing:0em;}.cls-69{letter-spacing:0.01em;}.cls-70{letter-spacing:0.01em;}.cls-71{letter-spacing:-0.01em;}.cls-72{letter-spacing:0.01em;}.cls-73{clip-path:url(#clip-path-8);}.cls-74,.cls-86{letter-spacing:0em;}.cls-75{letter-spacing:0.01em;}.cls-76{letter-spacing:-0.01em;}.cls-77{letter-spacing:0.01em;}.cls-78{letter-spacing:-0.01em;}.cls-79{letter-spacing:0em;}.cls-80{letter-spacing:0em;}.cls-81{letter-spacing:-0.01em;}.cls-82{letter-spacing:0em;}.cls-83{letter-spacing:0em;}.cls-84{letter-spacing:0.01em;}.cls-85{letter-spacing:0em;}.cls-87{letter-spacing:0em;}</style><clipPath id="clip-path"><rect class="cls-1" x="90.71" y="31.86" width="27.71" height="13"/></clipPath><clipPath id="clip-path-2"><rect class="cls-1" x="119.43" y="31.86" width="27.71" height="13"/></clipPath><clipPath id="clip-path-3"><rect class="cls-1" x="1.57" y="31.86" width="578.29" height="13"/></clipPath><clipPath id="clip-path-4"><rect class="cls-1" x="1.57" y="92" width="578.29" height="12.71"/></clipPath><clipPath id="clip-path-5"><rect class="cls-1" x="90.28" y="91.57" width="210" height="13.57"/></clipPath><clipPath id="clip-path-6"><rect class="cls-1" x="90.28" y="1.57" width="210" height="16"/></clipPath><clipPath id="clip-path-7"><rect class="cls-1" x="300.43" y="1.57" width="278.86" height="16"/></clipPath><clipPath id="clip-path-8"><rect class="cls-1" x="300.43" y="91.57" width="278.86" height="13.57"/></clipPath></defs><rect class="cls-2" x="1.57" y="1.57" width="577.86" height="29.86"/><rect class="cls-2" x="1.57" y="31.29" width="88.71" height="14.14"/><rect class="cls-3" x="90.14" y="31.28" width="28.86" height="14.14"/><rect class="cls-4" x="118.86" y="31.28" width="28.86" height="14.14"/><rect class="cls-3" x="147.57" y="31.28" width="31.14" height="14.14"/><rect class="cls-4" x="178.57" y="31.28" width="31.14" height="14.14"/><rect class="cls-3" x="209.57" y="31.28" width="31.14" height="14.14"/><rect class="cls-4" x="240.57" y="31.28" width="28.86" height="14.14"/><rect class="cls-3" x="269.29" y="31.28" width="62.14" height="14.14"/><rect class="cls-4" x="331.29" y="31.28" width="31.14" height="14.14"/><rect class="cls-3" x="362.29" y="31.28" width="31.14" height="14.14"/><rect class="cls-4" x="393.29" y="31.28" width="31.14" height="14.14"/><rect class="cls-3" x="424.29" y="31.28" width="31.14" height="14.14"/><rect class="cls-4" x="455.28" y="31.28" width="31.14" height="14.14"/><rect class="cls-3" x="486.28" y="31.28" width="93.14" height="14.14"/><rect class="cls-2" x="1.57" y="45.28" width="577.86" height="16.71"/><rect class="cls-2" x="1.57" y="61.86" width="88.71" height="29.71"/><rect class="cls-5" x="90.14" y="61.86" width="28.86" height="29.71"/><rect class="cls-6" x="118.86" y="61.86" width="28.86" height="29.71"/><rect class="cls-5" x="147.57" y="61.86" width="31.14" height="29.71"/><rect class="cls-6" x="178.57" y="61.86" width="31.14" height="29.71"/><rect class="cls-5" x="209.57" y="61.86" width="31.14" height="29.71"/><rect class="cls-6" x="240.57" y="61.86" width="28.86" height="29.71"/><rect class="cls-5" x="269.29" y="61.86" width="31.14" height="29.71"/><rect class="cls-7" x="300.29" y="61.86" width="31.14" height="29.71"/><rect class="cls-8" x="331.29" y="61.86" width="31.14" height="29.71"/><rect class="cls-7" x="362.29" y="61.86" width="31.14" height="29.71"/><rect class="cls-8" x="393.29" y="61.86" width="31.14" height="29.71"/><rect class="cls-7" x="424.29" y="61.86" width="31.14" height="29.71"/><rect class="cls-8" x="455.28" y="61.86" width="31.14" height="29.71"/><rect class="cls-7" x="486.28" y="61.86" width="62.14" height="29.71"/><rect class="cls-8" x="548.28" y="61.86" width="31.14" height="29.71"/><rect class="cls-2" x="1.57" y="91.43" width="577.86" height="13.86"/><rect class="cls-2" x="1.57" y="105.14" width="88.71" height="14.57"/><rect class="cls-5" x="90.14" y="105.14" width="28.86" height="14.57"/><rect class="cls-6" x="118.86" y="105.14" width="28.86" height="14.57"/><rect class="cls-5" x="147.57" y="105.14" width="31.14" height="14.57"/><rect class="cls-6" x="178.57" y="105.14" width="31.14" height="14.57"/><rect class="cls-5" x="209.57" y="105.14" width="31.14" height="14.57"/><rect class="cls-6" x="240.57" y="105.14" width="28.86" height="14.57"/><rect class="cls-5" x="269.29" y="105.14" width="31.14" height="14.57"/><rect class="cls-9" x="300.29" y="105.14" width="279.14" height="14.57"/><rect class="cls-2" x="1.57" y="119.57" width="88.71" height="15.29"/><rect class="cls-5" x="90.14" y="119.57" width="28.86" height="15.29"/><rect class="cls-6" x="118.86" y="119.57" width="28.86" height="15.29"/><rect class="cls-5" x="147.57" y="119.57" width="31.14" height="15.29"/><rect class="cls-6" x="178.57" y="119.57" width="31.14" height="15.29"/><rect class="cls-5" x="209.57" y="119.57" width="31.14" height="15.29"/><rect class="cls-6" x="240.57" y="119.57" width="28.86" height="15.29"/><rect class="cls-5" x="269.29" y="119.57" width="62.14" height="15.29"/><rect class="cls-6" x="331.29" y="119.57" width="31.14" height="15.29"/><rect class="cls-5" x="362.29" y="119.57" width="31.14" height="15.29"/><rect class="cls-6" x="393.29" y="119.57" width="31.14" height="15.29"/><rect class="cls-5" x="424.29" y="119.57" width="31.14" height="15.29"/><rect class="cls-6" x="455.28" y="119.57" width="31.14" height="15.29"/><rect class="cls-5" x="486.29" y="119.57" width="62.14" height="15.29"/><rect class="cls-6" x="548.28" y="119.57" width="31.14" height="15.29"/><text class="cls-10" transform="translate(102.71 26.86)">1</text><text class="cls-10" transform="translate(131.43 26.86)">2</text><text class="cls-10" transform="translate(161.28 26.86)">3</text><text class="cls-10" transform="translate(192.28 26.86)">4</text><text class="cls-10" transform="translate(223.28 26.86)">5</text><text class="cls-10" transform="translate(253.14 26.86)">6</text><text class="cls-10" transform="translate(282.99 26.86)">7</text><text class="cls-10" transform="translate(313.99 26.86)">8</text><text class="cls-10" transform="translate(344.99 26.86)">9</text><text class="cls-10" transform="translate(373.71 26.86)"><tspan class="cls-11">1</tspan><tspan x="4.56" y="0">0</tspan></text><text class="cls-10" transform="translate(404.71 26.86)"><tspan class="cls-11">1</tspan><tspan x="4.56" y="0">1</tspan></text><text class="cls-10" transform="translate(435.71 26.86)"><tspan class="cls-11">1</tspan><tspan x="4.56" y="0">2</tspan></text><text class="cls-10" transform="translate(466.71 26.86)"><tspan class="cls-11">1</tspan><tspan x="4.56" y="0">3</tspan></text><text class="cls-10" transform="translate(497.71 26.86)"><tspan class="cls-11">1</tspan><tspan x="4.56" y="0">4</tspan></text><text class="cls-10" transform="translate(528.71 26.86)"><tspan class="cls-11">1</tspan><tspan x="4.56" y="0">5</tspan></text><text class="cls-10" transform="translate(559.71 26.86)"><tspan class="cls-11">1</tspan><tspan x="4.56" y="0">6</tspan></text><g class="cls-12"><text class="cls-13" transform="translate(91.14 40.71)"><tspan class="cls-14">14</tspan><tspan class="cls-15" x="11.4" y="0">.</tspan><tspan class="cls-16" x="13.83" y="0">03</tspan><tspan x="25.23" y="0">.</tspan></text></g><g class="cls-17"><text class="cls-13" transform="translate(119.86 40.71)"><tspan class="cls-11">21</tspan><tspan class="cls-15" x="11.4" y="0">.</tspan><tspan class="cls-16" x="13.83" y="0">03</tspan><tspan x="25.23" y="0">.</tspan></text></g><g class="cls-18"><text class="cls-13" transform="translate(149.71 40.71)"><tspan class="cls-14">28</tspan><tspan class="cls-15" x="11.4" y="0">.</tspan><tspan class="cls-16" x="13.83" y="0">03</tspan><tspan x="25.23" y="0">.</tspan></text><text class="cls-13" transform="translate(180.71 40.71)"><tspan class="cls-14">04</tspan><tspan class="cls-15" x="11.4" y="0">.</tspan><tspan class="cls-19" x="13.83" y="0">0</tspan><tspan class="cls-16" x="19.54" y="0">4</tspan><tspan x="25.24" y="0">.</tspan></text><text class="cls-13" transform="translate(211.71 40.71)"><tspan class="cls-14">11</tspan><tspan class="cls-15" x="11.4" y="0">.</tspan><tspan class="cls-16" x="13.83" y="0">04</tspan><tspan x="25.23" y="0">.</tspan></text><text class="cls-13" transform="translate(253.71 40.71)">-</text><text class="cls-13" transform="translate(271.43 40.71)"><tspan class="cls-11">25</tspan><tspan class="cls-15" x="11.4" y="0">.</tspan><tspan class="cls-16" x="13.83" y="0">04</tspan><tspan x="25.23" y="0">.</tspan></text><text class="cls-13" transform="translate(302.43 40.71)"><tspan class="cls-16">02</tspan><tspan class="cls-20" x="11.4" y="0">.</tspan><tspan class="cls-19" x="13.83" y="0">0</tspan><tspan class="cls-11" x="19.54" y="0">5</tspan><tspan x="25.24" y="0">.</tspan></text><text class="cls-13" transform="translate(333.43 40.71)"><tspan class="cls-16">09</tspan><tspan class="cls-20" x="11.4" y="0">.</tspan><tspan class="cls-19" x="13.83" y="0">0</tspan><tspan class="cls-11" x="19.54" y="0">5</tspan><tspan x="25.24" y="0">.</tspan></text><text class="cls-13" transform="translate(364.43 40.71)"><tspan class="cls-16">16</tspan><tspan class="cls-20" x="11.4" y="0">.</tspan><tspan class="cls-19" x="13.83" y="0">0</tspan><tspan class="cls-11" x="19.54" y="0">5</tspan><tspan x="25.24" y="0">.</tspan></text><text class="cls-13" transform="translate(395.43 40.71)"><tspan class="cls-16">23</tspan><tspan class="cls-20" x="11.4" y="0">.</tspan><tspan class="cls-19" x="13.83" y="0">0</tspan><tspan class="cls-11" x="19.54" y="0">5</tspan><tspan x="25.24" y="0">.</tspan></text><text class="cls-13" transform="translate(426.43 40.71)"><tspan class="cls-16">30</tspan><tspan class="cls-20" x="11.4" y="0">.</tspan><tspan class="cls-19" x="13.83" y="0">0</tspan><tspan class="cls-11" x="19.54" y="0">5</tspan><tspan x="25.24" y="0">.</tspan></text><text class="cls-13" transform="translate(469.57 40.71)">-</text><text class="cls-21" transform="translate(488.43 40.71)">1<tspan class="cls-16" x="5.71" y="0">3</tspan><tspan class="cls-15" x="11.41" y="0">.</tspan><tspan class="cls-16" x="13.84" y="0">0</tspan><tspan x="19.54" y="0">6</tspan><tspan class="cls-22" x="25.25" y="0">.</tspan></text><text class="cls-21" transform="translate(519.43 40.71)">2<tspan class="cls-16" x="5.71" y="0">0</tspan><tspan class="cls-15" x="11.41" y="0">.</tspan><tspan class="cls-16" x="13.84" y="0">0</tspan><tspan x="19.54" y="0">6</tspan><tspan class="cls-22" x="25.25" y="0">.</tspan></text><text class="cls-21" transform="translate(550.43 40.71)">2<tspan class="cls-16" x="5.71" y="0">7</tspan><tspan class="cls-15" x="11.41" y="0">.</tspan><tspan class="cls-16" x="13.84" y="0">0</tspan><tspan x="19.54" y="0">6</tspan><tspan class="cls-22" x="25.25" y="0">.</tspan></text></g><text class="cls-23" transform="translate(34.86 57.43)"><tspan class="cls-24">M</tspan><tspan class="cls-25" x="10.73" y="0">I</tspan><tspan x="14.58" y="0">B</tspan></text><text class="cls-26" transform="translate(3 72.71)"><tspan class="cls-27">2</tspan><tspan class="cls-28" x="5.58" y="0"> </tspan><tspan class="cls-29" x="7.88" y="0">S</tspan><tspan x="13.18" y="0">W</tspan><tspan class="cls-29" x="22.47" y="0">S </tspan><tspan class="cls-30" x="30.06" y="0">V</tspan><tspan class="cls-31" x="36.77" y="0">o</tspan><tspan x="42.63" y="0">r</tspan><tspan class="cls-32" x="46.49" y="0">l</tspan><tspan class="cls-28" x="49.34" y="0">e</tspan><tspan class="cls-29" x="54.92" y="0">sun</tspan><tspan x="70.8" y="0">g</tspan></text><text class="cls-26" transform="translate(3 86.85)"><tspan class="cls-27">2</tspan><tspan class="cls-28" x="5.58" y="0"> </tspan><tspan class="cls-29" x="7.88" y="0">S</tspan><tspan x="13.18" y="0">W</tspan><tspan class="cls-29" x="22.47" y="0">S Übun</tspan><tspan x="54.23" y="0">g</tspan></text><g class="cls-33"><text class="cls-23" transform="translate(11.57 100.71)"><tspan class="cls-34">O</tspan><tspan class="cls-35" x="9.43" y="0">M</tspan><tspan class="cls-36" x="20.16" y="0">B</tspan><tspan class="cls-37" x="28.16" y="0"> </tspan><tspan class="cls-38" x="31.03" y="0">&amp;</tspan><tspan class="cls-37" x="39.47" y="0"> </tspan><tspan class="cls-35" x="42.34" y="0">M</tspan><tspan class="cls-36" x="53.06" y="0">K</tspan><tspan x="61.21" y="0">B</tspan></text></g><text class="cls-26" transform="translate(3 116)"><tspan class="cls-27">1</tspan><tspan class="cls-28" x="5.58" y="0"> </tspan><tspan class="cls-29" x="7.88" y="0">S</tspan><tspan x="13.18" y="0">W</tspan><tspan class="cls-29" x="22.47" y="0">S </tspan><tspan class="cls-30" x="30.06" y="0">V</tspan><tspan class="cls-31" x="36.77" y="0">o</tspan><tspan x="42.63" y="0">r</tspan><tspan class="cls-32" x="46.49" y="0">l</tspan><tspan class="cls-28" x="49.34" y="0">e</tspan><tspan class="cls-29" x="54.92" y="0">sun</tspan><tspan x="70.8" y="0">g</tspan></text><text class="cls-26" transform="translate(3 130.14)"><tspan class="cls-27">2</tspan><tspan class="cls-28" x="5.58" y="0"> </tspan><tspan class="cls-29" x="7.88" y="0">S</tspan><tspan x="13.18" y="0">W</tspan><tspan class="cls-29" x="22.47" y="0">S Übun</tspan><tspan x="54.23" y="0">g</tspan></text><g class="cls-39"><text class="cls-13" transform="translate(131.43 100.71)"><tspan class="cls-19">M</tspan><tspan class="cls-40" x="9" y="0">o</tspan><tspan class="cls-15" x="15" y="0">d</tspan><tspan class="cls-41" x="21.01" y="0">e</tspan><tspan class="cls-28" x="26.86" y="0">ll</tspan><tspan class="cls-29" x="33.16" y="0">in</tspan><tspan class="cls-42" x="41.9" y="0">g</tspan><tspan class="cls-43" x="47.9" y="0"> </tspan><tspan x="50.33" y="0">T</tspan><tspan class="cls-44" x="56.47" y="0">h</tspan><tspan class="cls-41" x="62.34" y="0">e</tspan><tspan class="cls-40" x="68.19" y="0">o</tspan><tspan class="cls-45" x="74.19" y="0">r</tspan><tspan class="cls-46" x="78.47" y="0">i</tspan><tspan class="cls-41" x="81.34" y="0">e</tspan><tspan class="cls-43" x="87.19" y="0"> </tspan><tspan class="cls-31" x="89.62" y="0">&amp;</tspan><tspan class="cls-19" x="96.63" y="0"> </tspan><tspan class="cls-28" x="99.06" y="0">P</tspan><tspan class="cls-42" x="105.49" y="0">r</tspan><tspan class="cls-47" x="109.77" y="0">a</tspan><tspan class="cls-43" x="115.34" y="0">x</tspan><tspan class="cls-46" x="120.91" y="0">i</tspan><tspan class="cls-48" x="123.78" y="0">s</tspan></text></g><text class="cls-49" transform="translate(14.57 28)">WS<tspan class="cls-50" x="21.42" y="0"> </tspan><tspan class="cls-51" x="24.85" y="0">2</tspan><tspan class="cls-11" x="32.84" y="0">1</tspan><tspan class="cls-52" x="40.82" y="0">/</tspan><tspan class="cls-11" x="46.96" y="0">2</tspan><tspan x="54.94" y="0">2</tspan></text><g class="cls-53"><text class="cls-23" transform="translate(144.43 13.14)"><tspan class="cls-54">1</tspan><tspan class="cls-55" x="6.85" y="0">.</tspan><tspan class="cls-56" x="9.98" y="0"> </tspan><tspan class="cls-57" x="12.85" y="0">S</tspan><tspan class="cls-56" x="19.85" y="0">e</tspan><tspan class="cls-58" x="26.84" y="0">m</tspan><tspan class="cls-37" x="37.27" y="0">e</tspan><tspan class="cls-59" x="44.27" y="0">s</tspan><tspan class="cls-60" x="50.12" y="0">t</tspan><tspan class="cls-61" x="55.55" y="0">e</tspan><tspan class="cls-62" x="62.56" y="0">r</tspan><tspan class="cls-36" x="67.69" y="0">hä</tspan><tspan class="cls-63" x="81.27" y="0">l</tspan><tspan class="cls-62" x="85.13" y="0">f</tspan><tspan class="cls-60" x="90.26" y="0">t</tspan><tspan x="95.69" y="0">e</tspan></text></g><text class="cls-13" transform="translate(131.43 57.43)"><tspan class="cls-19">M</tspan><tspan class="cls-40" x="9" y="0">o</tspan><tspan class="cls-15" x="15" y="0">d</tspan><tspan class="cls-41" x="21.01" y="0">e</tspan><tspan class="cls-28" x="26.86" y="0">ll</tspan><tspan class="cls-29" x="33.16" y="0">in</tspan><tspan class="cls-42" x="41.9" y="0">g</tspan><tspan class="cls-43" x="47.9" y="0"> </tspan><tspan x="50.33" y="0">T</tspan><tspan class="cls-44" x="56.47" y="0">h</tspan><tspan class="cls-41" x="62.34" y="0">e</tspan><tspan class="cls-40" x="68.19" y="0">o</tspan><tspan class="cls-45" x="74.19" y="0">r</tspan><tspan class="cls-46" x="78.47" y="0">i</tspan><tspan class="cls-41" x="81.34" y="0">e</tspan><tspan class="cls-43" x="87.19" y="0"> </tspan><tspan class="cls-31" x="89.62" y="0">&amp;</tspan><tspan class="cls-19" x="96.63" y="0"> </tspan><tspan class="cls-28" x="99.06" y="0">P</tspan><tspan class="cls-42" x="105.49" y="0">r</tspan><tspan class="cls-47" x="109.77" y="0">a</tspan><tspan class="cls-43" x="115.34" y="0">x</tspan><tspan class="cls-46" x="120.91" y="0">i</tspan><tspan class="cls-48" x="123.78" y="0">s</tspan></text><g class="cls-64"><text class="cls-23" transform="translate(389 13.14)"><tspan class="cls-54">2</tspan><tspan class="cls-65" x="6.85" y="0">.</tspan><tspan class="cls-37" x="9.98" y="0"> </tspan><tspan class="cls-66" x="12.85" y="0">S</tspan><tspan x="19.85" y="0">e</tspan><tspan class="cls-67" x="26.86" y="0">m</tspan><tspan x="37.28" y="0">e</tspan><tspan class="cls-68" x="44.29" y="0">s</tspan><tspan class="cls-69" x="50.15" y="0">t</tspan><tspan x="55.57" y="0">e</tspan><tspan class="cls-70" x="62.58" y="0">r</tspan><tspan class="cls-71" x="67.71" y="0">hä</tspan><tspan class="cls-25" x="81.3" y="0">l</tspan><tspan class="cls-72" x="85.15" y="0">f</tspan><tspan class="cls-69" x="90.29" y="0">t</tspan><tspan x="95.71" y="0">e</tspan></text></g><g class="cls-73"><text class="cls-74" transform="translate(379.29 100.71)">P<tspan class="cls-75" x="6.43" y="0">r</tspan><tspan class="cls-76" x="10.71" y="0">o</tspan><tspan class="cls-15" x="16.72" y="0">d</tspan><tspan class="cls-46" x="22.73" y="0">u</tspan><tspan class="cls-45" x="28.6" y="0">k</tspan><tspan class="cls-77" x="34.45" y="0">t</tspan><tspan class="cls-46" x="39.02" y="0">i</tspan><tspan class="cls-78" x="41.89" y="0">o</tspan><tspan class="cls-44" x="47.89" y="0">n</tspan><tspan class="cls-19" x="53.76" y="0" xml:space="preserve"> 3</tspan><tspan class="cls-79" x="61.9" y="0">D</tspan><tspan class="cls-11" x="69.32" y="0">-</tspan><tspan class="cls-76" x="72.74" y="0">A</tspan><tspan class="cls-46" x="79.89" y="0">ni</tspan><tspan class="cls-31" x="88.63" y="0">m</tspan><tspan class="cls-80" x="97.21" y="0">a</tspan><tspan class="cls-77" x="102.78" y="0">t</tspan><tspan class="cls-46" x="107.35" y="0">i</tspan><tspan class="cls-81" x="110.22" y="0">o</tspan><tspan class="cls-82" x="116.22" y="0">n</tspan></text></g><text class="cls-13" transform="translate(370.29 57.43)"><tspan class="cls-19">3</tspan><tspan class="cls-79" x="5.71" y="0">D</tspan><tspan class="cls-11" x="13.13" y="0">-</tspan><tspan class="cls-83" x="16.55" y="0">E</tspan><tspan x="22.56" y="0">c</tspan><tspan class="cls-46" x="27.56" y="0">h</tspan><tspan class="cls-84" x="33.43" y="0">t</tspan><tspan x="38" y="0">z</tspan><tspan class="cls-85" x="43" y="0">e</tspan><tspan class="cls-46" x="48.85" y="0">i</tspan><tspan class="cls-84" x="51.72" y="0">t</tspan><tspan class="cls-11" x="56.29" y="0">-</tspan><tspan class="cls-86" x="59.71" y="0">P</tspan><tspan class="cls-75" x="66.14" y="0">r</tspan><tspan class="cls-78" x="70.42" y="0">o</tspan><tspan class="cls-45" x="76.42" y="0">gr</tspan><tspan class="cls-80" x="86.7" y="0">a</tspan><tspan class="cls-31" x="92.27" y="0">mm</tspan><tspan class="cls-46" x="109.43" y="0">i</tspan><tspan class="cls-87" x="112.3" y="0">e</tspan><tspan class="cls-75" x="118.15" y="0">r</tspan><tspan class="cls-46" x="122.43" y="0">un</tspan><tspan x="134.17" y="0">g</tspan></text><rect x="91.14" y="17.14" width="208.14" height="1"/><rect x="91.14" y="30.86" width="208.14" height="1"/><rect width="2" height="135.71"/><rect x="89.14" y="2" width="2" height="133.71"/><rect x="299.29" y="2" width="2" height="133.71"/><rect x="578.28" y="2" width="2" height="133.71"/><rect x="118.43" y="18.14" width="1" height="13.71"/><rect x="147.14" y="18.14" width="1" height="13.71"/><rect x="178.14" y="18.14" width="1" height="13.71"/><rect x="209.14" y="18.14" width="1" height="13.71"/><rect x="240.14" y="18.14" width="1" height="13.71"/><rect x="268.86" y="18.14" width="1" height="13.71"/><rect x="330.86" y="18.14" width="1" height="13.71"/><rect x="361.86" y="18.14" width="1" height="13.71"/><rect x="392.86" y="18.14" width="1" height="13.71"/><rect x="423.86" y="18.14" width="1" height="13.71"/><rect x="454.86" y="18.14" width="1" height="13.71"/><rect x="485.86" y="18.14" width="1" height="13.71"/><rect x="516.86" y="18.14" width="1" height="13.71"/><rect x="2" width="578.29" height="2"/><rect x="301.29" y="17.14" width="277" height="1"/><rect x="301.29" y="30.86" width="277" height="1"/><rect x="2" y="44.28" width="578.29" height="2"/><rect x="2" y="90.43" width="578.29" height="2"/><rect x="2" y="133.71" width="578.29" height="2"/></svg>