<svg id="Layer_1" data-name="Layer 1" xmlns="http://www.w3.org/2000/svg" viewBox="0 0 461.4 110.28"><defs><style>.cls-1{fill:#fff;}.cls-2{fill:#dbdbdb;}.cls-3{fill:#d0cece;}.cls-4{fill:#c6e0b4;}.cls-5{fill:#e2efda;}.cls-6{fill:#b4c6e7;}.cls-7{fill:#d9e1f2;}.cls-8{fill:#f2f2f2;}.cls-9{font-size:6.72px;}.cls-15,.cls-24,.cls-26,.cls-9{font-family:Arial-BoldMT, Arial;font-weight:700;}.cls-10{letter-spacing:3.03em;}.cls-11{letter-spacing:3.17em;}.cls-12{letter-spacing:3.32em;}.cls-13{letter-spacing:2.76em;}.cls-14{letter-spacing:2.76em;}.cls-15,.cls-25{font-size:8.4px;}.cls-16{letter-spacing:0.09em;}.cls-17{letter-spacing:0em;}.cls-18{letter-spacing:0.2em;}.cls-19{letter-spacing:0.32em;}.cls-20{letter-spacing:0.32em;}.cls-21{letter-spacing:0.21em;}.cls-22{letter-spacing:0em;}.cls-23{letter-spacing:0.32em;}.cls-24{font-size:10.08px;}.cls-25{font-family:ArialMT, Arial;}.cls-26{font-size:11.76px;}</style></defs><rect class="cls-1" x="1.32" y="1.32" width="459.36" height="22.56"/><rect class="cls-1" x="1.32" y="23.76" width="74.52" height="11.88"/><rect class="cls-2" x="75.72" y="23.76" width="24.24" height="11.88"/><rect class="cls-3" x="99.84" y="23.76" width="24.24" height="11.88"/><rect class="cls-2" x="123.96" y="23.76" width="26.16" height="11.88"/><rect class="cls-3" x="150" y="23.76" width="26.16" height="11.88"/><rect class="cls-2" x="176.04" y="23.76" width="26.16" height="11.88"/><rect class="cls-3" x="202.08" y="23.76" width="24.24" height="11.88"/><rect class="cls-2" x="226.2" y="23.76" width="52.2" height="11.88"/><rect class="cls-3" x="278.28" y="23.76" width="26.16" height="11.88"/><rect class="cls-2" x="304.32" y="23.76" width="26.16" height="11.88"/><rect class="cls-3" x="330.36" y="23.76" width="26.16" height="11.88"/><rect class="cls-2" x="356.4" y="23.76" width="26.16" height="11.88"/><rect class="cls-3" x="382.44" y="23.76" width="26.16" height="11.88"/><rect class="cls-2" x="408.48" y="23.76" width="52.2" height="11.88"/><rect class="cls-1" x="1.32" y="35.52" width="459.36" height="12.84"/><rect class="cls-1" x="1.32" y="48.24" width="74.52" height="24.96"/><rect class="cls-4" x="75.72" y="48.24" width="24.24" height="24.96"/><rect class="cls-5" x="99.84" y="48.24" width="24.24" height="24.96"/><rect class="cls-4" x="123.96" y="48.24" width="26.16" height="24.96"/><rect class="cls-5" x="150" y="48.24" width="26.16" height="24.96"/><rect class="cls-4" x="176.04" y="48.24" width="26.16" height="24.96"/><rect class="cls-5" x="202.08" y="48.24" width="24.24" height="24.96"/><rect class="cls-4" x="226.2" y="48.24" width="26.16" height="24.96"/><rect class="cls-6" x="252.24" y="48.24" width="26.16" height="24.96"/><rect class="cls-7" x="278.28" y="48.24" width="26.16" height="24.96"/><rect class="cls-6" x="304.32" y="48.24" width="26.16" height="24.96"/><rect class="cls-7" x="330.36" y="48.24" width="26.16" height="24.96"/><rect class="cls-6" x="356.4" y="48.24" width="26.16" height="24.96"/><rect class="cls-7" x="382.44" y="48.24" width="26.16" height="24.96"/><rect class="cls-6" x="408.48" y="48.24" width="26.16" height="24.96"/><rect class="cls-7" x="434.52" y="48.24" width="26.16" height="24.96"/><rect class="cls-1" x="1.32" y="73.08" width="459.36" height="11.64"/><rect class="cls-1" x="1.32" y="84.6" width="74.52" height="12.24"/><rect class="cls-4" x="75.72" y="84.6" width="24.24" height="12.24"/><rect class="cls-5" x="99.84" y="84.6" width="24.24" height="12.24"/><rect class="cls-4" x="123.96" y="84.6" width="26.16" height="12.24"/><rect class="cls-5" x="150" y="84.6" width="26.16" height="12.24"/><rect class="cls-4" x="176.04" y="84.6" width="26.16" height="12.24"/><rect class="cls-5" x="202.08" y="84.6" width="24.24" height="12.24"/><rect class="cls-4" x="226.2" y="84.6" width="26.16" height="12.24"/><rect class="cls-8" x="252.24" y="84.6" width="208.44" height="12.24"/><rect class="cls-1" x="1.32" y="96.72" width="74.52" height="12.84"/><rect class="cls-4" x="75.72" y="96.72" width="24.24" height="12.84"/><rect class="cls-5" x="99.84" y="96.72" width="24.24" height="12.84"/><rect class="cls-4" x="123.96" y="96.72" width="26.16" height="12.84"/><rect class="cls-5" x="150" y="96.72" width="26.16" height="12.84"/><rect class="cls-4" x="176.04" y="96.72" width="26.16" height="12.84"/><rect class="cls-5" x="202.08" y="96.72" width="24.24" height="12.84"/><rect class="cls-4" x="226.2" y="96.72" width="52.2" height="12.84"/><rect class="cls-5" x="278.28" y="96.72" width="26.16" height="12.84"/><rect class="cls-4" x="304.32" y="96.72" width="26.16" height="12.84"/><rect class="cls-5" x="330.36" y="96.72" width="26.16" height="12.84"/><rect class="cls-4" x="356.4" y="96.72" width="26.16" height="12.84"/><rect class="cls-5" x="382.44" y="96.72" width="26.16" height="12.84"/><rect class="cls-4" x="408.48" y="96.72" width="26.16" height="12.84"/><rect class="cls-5" x="434.52" y="96.72" width="26.16" height="12.84"/><text class="cls-9" transform="translate(86.4 21.36)"><tspan class="cls-10">1</tspan><tspan class="cls-11" x="24.11" y="0">2</tspan><tspan class="cls-12" x="49.19" y="0">34</tspan><tspan class="cls-11" x="101.25" y="0">56</tspan><tspan class="cls-12" x="151.4" y="0">78</tspan><tspan class="cls-10" x="203.47" y="0">9</tspan><tspan x="227.58" y="0">1</tspan><tspan class="cls-13" x="231.32" y="0">0</tspan><tspan x="253.62" y="0">1</tspan><tspan class="cls-13" x="257.35" y="0">1</tspan><tspan x="279.65" y="0">1</tspan><tspan class="cls-13" x="283.39" y="0">2</tspan><tspan x="305.69" y="0">1</tspan><tspan class="cls-14" x="309.42" y="0">3</tspan><tspan x="331.72" y="0">1</tspan><tspan class="cls-13" x="335.46" y="0">4</tspan><tspan x="357.76" y="0">15</tspan></text><text class="cls-15" transform="translate(76.56 32.28)">04.10<tspan class="cls-16" x="21.02" y="0">.</tspan><tspan class="cls-17" x="24.12" y="0">11.10</tspan><tspan class="cls-18" x="45.14" y="0">.</tspan><tspan x="49.19" y="0">18.10</tspan><tspan class="cls-19" x="70.22" y="0">.</tspan><tspan x="75.23" y="0">25.10</tspan><tspan class="cls-20" x="96.25" y="0">.</tspan><tspan class="cls-17" x="101.26" y="0">01.11</tspan><tspan class="cls-21" x="122.28" y="0">.</tspan><tspan class="cls-17" x="126.34" y="0">08.11</tspan><tspan class="cls-21" x="147.36" y="0">.</tspan><tspan class="cls-17" x="151.42" y="0">15.11</tspan><tspan class="cls-20" x="172.44" y="0">.</tspan><tspan x="177.45" y="0">22.11</tspan><tspan class="cls-20" x="198.47" y="0">.</tspan><tspan class="cls-22" x="203.48" y="0">29.11</tspan><tspan class="cls-23" x="224.5" y="0">.</tspan><tspan x="229.52" y="0">06.12</tspan><tspan class="cls-20" x="250.54" y="0">.</tspan><tspan x="255.55" y="0">13.12</tspan><tspan class="cls-23" x="276.57" y="0">.</tspan><tspan x="281.58" y="0">20.12</tspan><tspan class="cls-20" x="302.6" y="0">.</tspan><tspan x="307.62" y="0">10.01</tspan><tspan class="cls-20" x="328.64" y="0">.</tspan><tspan x="333.65" y="0">17.01</tspan><tspan class="cls-23" x="354.67" y="0">.</tspan><tspan x="359.69" y="0">24.01.</tspan></text><text class="cls-24" transform="translate(29.4 45.24)">MIB</text><text class="cls-25" transform="translate(2.52 57.96)">2 SWS Vorlesung</text><text class="cls-25" transform="translate(2.52 69.84)">2 SWS Übung</text><text class="cls-24" transform="translate(8.88 81.6)">OMB &amp; MKB</text><text class="cls-25" transform="translate(2.52 94.32)">1 SWS Vorlesung</text><text class="cls-25" transform="translate(2.52 106.2)">2 SWS Übung</text><text class="cls-15" transform="translate(110.52 81.6)">Modelling Theorie &amp; Praxis</text><text class="cls-26" transform="translate(12.96 22.08)">WS 21/22</text><text class="cls-24" transform="translate(122.64 10.56)">1. Semesterhälfte</text><text class="cls-15" transform="translate(110.52 45.24)">Modelling Theorie &amp; Praxis</text><text class="cls-24" transform="translate(315 10.56)">2. Semesterhälfte</text><text class="cls-15" transform="translate(306.36 81.6)">Produktion 3D-Animation</text><text class="cls-15" transform="translate(298.8 45.24)">3D-Echtzeit-Programmierung</text><rect x="76.56" y="13.2" width="174.84" height="0.84"/><rect x="76.56" y="23.4" width="174.84" height="0.84"/><rect width="1.68" height="110.28"/><rect x="74.88" y="1.68" width="1.68" height="108.6"/><rect x="251.4" y="1.68" width="1.68" height="108.6"/><rect x="459.72" y="1.68" width="1.68" height="108.6"/><rect x="99.48" y="14.04" width="0.84" height="10.2"/><rect x="123.6" y="14.04" width="0.84" height="10.2"/><rect x="149.64" y="14.04" width="0.84" height="10.2"/><rect x="175.68" y="14.04" width="0.84" height="10.2"/><rect x="201.72" y="14.04" width="0.84" height="10.2"/><rect x="225.84" y="14.04" width="0.84" height="10.2"/><rect x="277.92" y="14.04" width="0.84" height="10.2"/><rect x="303.96" y="14.04" width="0.84" height="10.2"/><rect x="330" y="14.04" width="0.84" height="10.2"/><rect x="356.04" y="14.04" width="0.84" height="10.2"/><rect x="382.08" y="14.04" width="0.84" height="10.2"/><rect x="408.12" y="14.04" width="0.84" height="10.2"/><rect x="434.16" y="14.04" width="0.84" height="10.2"/><rect x="1.68" width="459.72" height="1.68"/><rect x="253.08" y="13.2" width="206.64" height="0.84"/><rect x="253.08" y="23.4" width="206.64" height="0.84"/><rect x="1.68" y="34.68" width="459.72" height="1.68"/><rect x="1.68" y="72.24" width="459.72" height="1.68"/><rect x="1.68" y="108.6" width="459.72" height="1.68"/></svg>