<?xml version="1.0" encoding="UTF-8"?>
<svg id="Layer_1" data-name="Layer 1" xmlns="http://www.w3.org/2000/svg" xmlns:xlink="http://www.w3.org/1999/xlink" viewBox="0 0 580.29 131.29">
  <defs>
    <style>
      .cls-1 {
        font-family: ArialMT, Arial;
      }

      .cls-1, .cls-2 {
        font-size: 10px;
      }

      .cls-2, .cls-3, .cls-4, .cls-5 {
        font-family: Arial-BoldMT, Arial;
        font-weight: 700;
      }

      .cls-6 {
        letter-spacing: .02em;
      }

      .cls-7 {
        clip-path: url(#clippath-11);
      }

      .cls-8 {
        letter-spacing: 0em;
      }

      .cls-9 {
        letter-spacing: 0em;
      }

      .cls-10 {
        letter-spacing: 0em;
      }

      .cls-11 {
        letter-spacing: 0em;
      }

      .cls-12 {
        letter-spacing: 0em;
      }

      .cls-13 {
        letter-spacing: .06em;
      }

      .cls-14 {
        letter-spacing: 0em;
      }

      .cls-15 {
        fill: #d9e1f2;
      }

      .cls-15, .cls-16, .cls-17, .cls-18, .cls-19, .cls-20, .cls-21, .cls-22, .cls-23, .cls-24, .cls-25 {
        stroke-width: 0px;
      }

      .cls-26 {
        clip-path: url(#clippath-2);
      }

      .cls-16 {
        fill: #d0cece;
      }

      .cls-27 {
        letter-spacing: 0em;
      }

      .cls-17 {
        fill: #b4c6e7;
      }

      .cls-28 {
        letter-spacing: 0em;
      }

      .cls-29 {
        clip-path: url(#clippath-6);
      }

      .cls-30 {
        letter-spacing: 0em;
      }

      .cls-31 {
        letter-spacing: .01em;
      }

      .cls-3 {
        font-size: 12px;
      }

      .cls-32 {
        letter-spacing: 0em;
      }

      .cls-19 {
        fill: none;
      }

      .cls-33 {
        clip-path: url(#clippath-7);
      }

      .cls-34 {
        letter-spacing: 0em;
      }

      .cls-35 {
        clip-path: url(#clippath-1);
      }

      .cls-36 {
        clip-path: url(#clippath-4);
      }

      .cls-20 {
        fill: #c6e0b4;
      }

      .cls-37 {
        letter-spacing: 0em;
      }

      .cls-38 {
        letter-spacing: 0em;
      }

      .cls-39 {
        letter-spacing: 0em;
      }

      .cls-21 {
        fill: #e2efda;
      }

      .cls-22 {
        fill: #fff;
      }

      .cls-4 {
        font-size: 14px;
      }

      .cls-40 {
        letter-spacing: 0em;
      }

      .cls-41 {
        letter-spacing: 0em;
      }

      .cls-42 {
        letter-spacing: 0em;
      }

      .cls-23 {
        fill: #ededed;
      }

      .cls-43 {
        letter-spacing: -.01em;
      }

      .cls-5 {
        font-size: 8px;
      }

      .cls-44 {
        letter-spacing: 0em;
      }

      .cls-45 {
        letter-spacing: 0em;
      }

      .cls-46 {
        clip-path: url(#clippath-9);
      }

      .cls-47 {
        clip-path: url(#clippath);
      }

      .cls-48 {
        letter-spacing: 0em;
      }

      .cls-49 {
        letter-spacing: 0em;
      }

      .cls-50 {
        clip-path: url(#clippath-3);
      }

      .cls-51 {
        letter-spacing: 0em;
      }

      .cls-24 {
        fill: #dbdbdb;
      }

      .cls-52 {
        clip-path: url(#clippath-8);
      }

      .cls-53 {
        letter-spacing: 0em;
      }

      .cls-54 {
        letter-spacing: 0em;
      }

      .cls-55 {
        letter-spacing: 0em;
      }

      .cls-56 {
        clip-path: url(#clippath-5);
      }

      .cls-57 {
        letter-spacing: 0em;
      }

      .cls-58 {
        clip-path: url(#clippath-10);
      }

      .cls-59 {
        letter-spacing: 0em;
      }

      .cls-60 {
        letter-spacing: 0em;
      }

      .cls-61 {
        letter-spacing: 0em;
      }

      .cls-25 {
        fill: #f2f2f2;
      }

      .cls-62 {
        letter-spacing: -.02em;
      }

      .cls-63 {
        letter-spacing: 0em;
      }
    </style>
    <clipPath id="clippath">
      <rect class="cls-19" x="1.57" y="16.72" width="578.29" height="11.14"/>
    </clipPath>
    <clipPath id="clippath-1">
      <rect class="cls-19" x="90.71" y="28.86" width="27.71" height="13"/>
    </clipPath>
    <clipPath id="clippath-2">
      <rect class="cls-19" x="119.43" y="28.86" width="27.71" height="13"/>
    </clipPath>
    <clipPath id="clippath-3">
      <rect class="cls-19" x="241.14" y="28.86" width="27.71" height="13"/>
    </clipPath>
    <clipPath id="clippath-4">
      <rect class="cls-19" x="1.57" y="42.86" width="578.29" height="14.14"/>
    </clipPath>
    <clipPath id="clippath-5">
      <rect class="cls-19" x="1.57" y="87.57" width="578.29" height="12.71"/>
    </clipPath>
    <clipPath id="clippath-6">
      <rect class="cls-19" x="90.28" y="87.14" width="210" height="13.57"/>
    </clipPath>
    <clipPath id="clippath-7">
      <rect class="cls-19" x="90.28" y="1.57" width="210" height="14.57"/>
    </clipPath>
    <clipPath id="clippath-8">
      <rect class="cls-19" x="90.28" y="42.43" width="210" height="15"/>
    </clipPath>
    <clipPath id="clippath-9">
      <rect class="cls-19" x="300.43" y="42.43" width="278.86" height="15"/>
    </clipPath>
    <clipPath id="clippath-10">
      <rect class="cls-19" x="300.43" y="87.14" width="278.86" height="13.57"/>
    </clipPath>
    <clipPath id="clippath-11">
      <rect class="cls-19" x="300.43" y="1.57" width="278.86" height="14.57"/>
    </clipPath>
  </defs>
  <rect class="cls-22" x="1.57" y="1.57" width="577.86" height="26.86"/>
  <rect class="cls-22" x="1.57" y="28.29" width="88.71" height="14.14"/>
  <rect class="cls-24" x="90.14" y="28.29" width="28.86" height="14.14"/>
  <rect class="cls-23" x="118.86" y="28.29" width="28.86" height="14.14"/>
  <rect class="cls-24" x="147.57" y="28.29" width="31.14" height="14.14"/>
  <rect class="cls-23" x="178.57" y="28.29" width="31.14" height="14.14"/>
  <rect class="cls-16" x="209.57" y="28.29" width="31.14" height="14.14"/>
  <rect class="cls-23" x="240.57" y="28.29" width="28.86" height="14.14"/>
  <rect class="cls-24" x="269.29" y="28.29" width="31.14" height="14.14"/>
  <rect class="cls-23" x="300.29" y="28.29" width="31.14" height="14.14"/>
  <rect class="cls-24" x="331.29" y="28.29" width="31.14" height="14.14"/>
  <rect class="cls-23" x="362.29" y="28.29" width="31.14" height="14.14"/>
  <rect class="cls-24" x="393.29" y="28.29" width="31.14" height="14.14"/>
  <rect class="cls-23" x="424.29" y="28.29" width="31.14" height="14.14"/>
  <rect class="cls-24" x="455.28" y="28.29" width="31.14" height="14.14"/>
  <rect class="cls-23" x="486.28" y="28.29" width="31.14" height="14.14"/>
  <rect class="cls-24" x="517.28" y="28.29" width="31.14" height="14.14"/>
  <rect class="cls-23" x="548.28" y="28.29" width="31.14" height="14.14"/>
  <rect class="cls-22" x="1.57" y="42.29" width="577.86" height="15.29"/>
  <rect class="cls-22" x="1.57" y="57.43" width="88.71" height="29.71"/>
  <rect class="cls-20" x="90.14" y="57.43" width="28.86" height="29.71"/>
  <rect class="cls-21" x="118.86" y="57.43" width="28.86" height="29.71"/>
  <rect class="cls-20" x="147.57" y="57.43" width="31.14" height="29.71"/>
  <rect class="cls-21" x="178.57" y="57.43" width="31.14" height="29.71"/>
  <rect class="cls-20" x="209.57" y="57.43" width="31.14" height="29.71"/>
  <rect class="cls-21" x="240.57" y="57.43" width="28.86" height="29.71"/>
  <rect class="cls-20" x="269.29" y="57.43" width="31.14" height="29.71"/>
  <rect class="cls-17" x="300.29" y="57.43" width="31.14" height="29.71"/>
  <rect class="cls-15" x="331.29" y="57.43" width="31.14" height="29.71"/>
  <rect class="cls-17" x="362.29" y="57.43" width="31.14" height="29.71"/>
  <rect class="cls-15" x="393.29" y="57.43" width="31.14" height="29.71"/>
  <rect class="cls-25" x="424.29" y="57.43" width="62.14" height="29.71"/>
  <rect class="cls-17" x="486.28" y="57.43" width="31.14" height="29.71"/>
  <rect class="cls-15" x="517.28" y="57.43" width="31.14" height="29.71"/>
  <rect class="cls-17" x="548.28" y="57.43" width="31.14" height="29.71"/>
  <rect class="cls-22" x="1.57" y="87" width="577.86" height="13.86"/>
  <rect class="cls-22" x="1.57" y="100.72" width="88.71" height="14.57"/>
  <rect class="cls-20" x="90.14" y="100.72" width="28.86" height="14.57"/>
  <rect class="cls-21" x="118.86" y="100.72" width="28.86" height="14.57"/>
  <rect class="cls-20" x="147.57" y="100.72" width="31.14" height="14.57"/>
  <rect class="cls-21" x="178.57" y="100.72" width="31.14" height="14.57"/>
  <rect class="cls-20" x="209.57" y="100.72" width="31.14" height="14.57"/>
  <rect class="cls-21" x="240.57" y="100.72" width="28.86" height="14.57"/>
  <rect class="cls-20" x="269.29" y="100.72" width="31.14" height="14.57"/>
  <rect class="cls-25" x="300.29" y="100.72" width="279.14" height="14.57"/>
  <rect class="cls-22" x="1.57" y="115.14" width="88.71" height="15.29"/>
  <rect class="cls-20" x="90.14" y="115.14" width="28.86" height="15.29"/>
  <rect class="cls-21" x="118.86" y="115.14" width="28.86" height="15.29"/>
  <rect class="cls-20" x="147.57" y="115.14" width="31.14" height="15.29"/>
  <rect class="cls-21" x="178.57" y="115.14" width="31.14" height="15.29"/>
  <rect class="cls-20" x="209.57" y="115.14" width="31.14" height="15.29"/>
  <rect class="cls-21" x="240.57" y="115.14" width="28.86" height="15.29"/>
  <rect class="cls-20" x="269.29" y="115.14" width="62.14" height="15.29"/>
  <rect class="cls-21" x="331.29" y="115.14" width="31.14" height="15.29"/>
  <rect class="cls-20" x="362.29" y="115.14" width="31.14" height="15.29"/>
  <rect class="cls-21" x="393.29" y="115.14" width="31.14" height="15.29"/>
  <rect class="cls-25" x="424.29" y="115.14" width="62.14" height="15.29"/>
  <rect class="cls-20" x="486.28" y="115.14" width="31.14" height="15.29"/>
  <rect class="cls-21" x="517.28" y="115.14" width="31.14" height="15.29"/>
  <rect class="cls-20" x="548.28" y="115.14" width="31.14" height="15.29"/>
  <g class="cls-47">
    <text class="cls-5" transform="translate(102.86 25.43)"><tspan x="0" y="0">1</tspan></text>
    <text class="cls-5" transform="translate(131.57 25.43)"><tspan x="0" y="0">2</tspan></text>
    <text class="cls-5" transform="translate(161.43 25.43)"><tspan x="0" y="0">3</tspan></text>
    <text class="cls-5" transform="translate(192.43 25.43)"><tspan x="0" y="0">4</tspan></text>
    <text class="cls-5" transform="translate(223.43 25.43)"><tspan x="0" y="0">5</tspan></text>
    <text class="cls-5" transform="translate(253.29 25.43)"><tspan x="0" y="0">6</tspan></text>
    <text class="cls-5" transform="translate(283.14 25.43)"><tspan x="0" y="0">7</tspan></text>
    <text class="cls-5" transform="translate(314.14 25.43)"><tspan x="0" y="0">8</tspan></text>
    <text class="cls-5" transform="translate(345.14 25.43)"><tspan x="0" y="0">9</tspan></text>
    <text class="cls-5" transform="translate(373.86 25.43)"><tspan class="cls-48" x="0" y="0">1</tspan><tspan x="4.43" y="0">0</tspan></text>
    <text class="cls-5" transform="translate(404.86 25.43)"><tspan class="cls-48" x="0" y="0">1</tspan><tspan x="4.43" y="0">1</tspan></text>
    <text class="cls-5" transform="translate(435.86 25.43)"><tspan class="cls-48" x="0" y="0">1</tspan><tspan x="4.43" y="0">2</tspan></text>
    <text class="cls-5" transform="translate(466.86 25.43)"><tspan class="cls-48" x="0" y="0">1</tspan><tspan x="4.43" y="0">3</tspan></text>
    <text class="cls-5" transform="translate(497.86 25.43)"><tspan class="cls-48" x="0" y="0">1</tspan><tspan x="4.43" y="0">4</tspan></text>
    <text class="cls-5" transform="translate(528.86 25.43)"><tspan class="cls-48" x="0" y="0">1</tspan><tspan x="4.43" y="0">5</tspan></text>
    <text class="cls-5" transform="translate(559.86 25.43)"><tspan class="cls-48" x="0" y="0">1</tspan><tspan x="4.43" y="0">6</tspan></text>
  </g>
  <g class="cls-35">
    <text class="cls-2" transform="translate(91.14 38.43)"><tspan x="0" y="0">09</tspan><tspan class="cls-27" x="11.12" y="0">.</tspan><tspan x="13.84" y="0">10.</tspan></text>
  </g>
  <g class="cls-26">
    <text class="cls-2" transform="translate(119.86 38.43)"><tspan x="0" y="0">16</tspan><tspan class="cls-27" x="11.12" y="0">.</tspan><tspan x="13.84" y="0">10.</tspan></text>
  </g>
  <text class="cls-2" transform="translate(149.71 38.43)"><tspan x="0" y="0">23</tspan><tspan class="cls-27" x="11.12" y="0">.</tspan><tspan x="13.84" y="0">10.</tspan></text>
  <text class="cls-2" transform="translate(180.71 38.43)"><tspan x="0" y="0">30</tspan><tspan class="cls-27" x="11.12" y="0">.</tspan><tspan x="13.84" y="0">10.</tspan></text>
  <text class="cls-2" transform="translate(211.71 38.43)"><tspan x="0" y="0">06</tspan><tspan class="cls-27" x="11.12" y="0">.</tspan><tspan x="13.84" y="0">11.</tspan></text>
  <g class="cls-50">
    <text class="cls-2" transform="translate(241.57 38.43)"><tspan x="0" y="0">13</tspan><tspan class="cls-27" x="11.12" y="0">.</tspan><tspan x="13.84" y="0">11.</tspan></text>
  </g>
  <text class="cls-2" transform="translate(271.43 38.43)"><tspan x="0" y="0">20</tspan><tspan class="cls-27" x="11.12" y="0">.</tspan><tspan x="13.84" y="0">11.</tspan></text>
  <text class="cls-2" transform="translate(302.43 38.43)"><tspan x="0" y="0">27</tspan><tspan class="cls-8" x="11.12" y="0">.</tspan><tspan x="13.84" y="0">11.</tspan></text>
  <text class="cls-2" transform="translate(333.43 38.43)"><tspan x="0" y="0">04</tspan><tspan class="cls-8" x="11.12" y="0">.</tspan><tspan x="13.84" y="0">11.</tspan></text>
  <text class="cls-2" transform="translate(364.43 38.43)"><tspan x="0" y="0">11</tspan><tspan class="cls-8" x="11.12" y="0">.</tspan><tspan x="13.84" y="0">11.</tspan></text>
  <text class="cls-2" transform="translate(396.86 38.43)"><tspan x="0" y="0">18</tspan><tspan class="cls-8" x="11.12" y="0">.</tspan><tspan x="13.84" y="0">11</tspan></text>
  <text class="cls-2" transform="translate(427.15 38.43)"><tspan class="cls-43" x="0" y="0">W</tspan><tspan x="9.3" y="0">e</tspan><tspan class="cls-10" x="14.86" y="0">i</tspan><tspan class="cls-37" x="17.58" y="0">h</tspan><tspan x="23.72" y="0">.</tspan></text>
  <text class="cls-2" transform="translate(459.01 38.43)"><tspan class="cls-32" x="0" y="0">N</tspan><tspan x="7.28" y="0">e</tspan><tspan class="cls-37" x="12.84" y="0">u</tspan><tspan class="cls-14" x="18.98" y="0">j</tspan><tspan x="21.83" y="0">.</tspan></text>
  <text class="cls-2" transform="translate(488.44 38.43)"><tspan x="0" y="0">08</tspan><tspan class="cls-8" x="11.12" y="0">.</tspan><tspan x="13.84" y="0">01.</tspan></text>
  <text class="cls-2" transform="translate(519.44 38.43)"><tspan x="0" y="0">15</tspan><tspan class="cls-8" x="11.12" y="0">.</tspan><tspan x="13.84" y="0">01.</tspan></text>
  <text class="cls-2" transform="translate(550.44 38.43)"><tspan x="0" y="0">22</tspan><tspan class="cls-8" x="11.12" y="0">.</tspan><tspan x="13.84" y="0">01.</tspan></text>
  <g class="cls-36">
    <text class="cls-3" transform="translate(35 53.86)"><tspan class="cls-31" x="0" y="0">M</tspan><tspan class="cls-39" x="10.14" y="0">I</tspan><tspan x="13.44" y="0">B</tspan></text>
  </g>
  <text class="cls-1" transform="translate(3 69)"><tspan x="0" y="0">2</tspan><tspan class="cls-27" x="5.56" y="0"> </tspan><tspan class="cls-12" x="8.28" y="0">S</tspan><tspan class="cls-13" x="14.99" y="0">W</tspan><tspan class="cls-12" x="24.99" y="0">S</tspan><tspan class="cls-27" x="31.7" y="0"> </tspan><tspan class="cls-12" x="34.42" y="0">V</tspan><tspan x="41.13" y="0">o</tspan><tspan class="cls-55" x="46.69" y="0">r</tspan><tspan class="cls-44" x="49.98" y="0">l</tspan><tspan x="52.26" y="0">esung</tspan></text>
  <text class="cls-1" transform="translate(3 83.14)"><tspan x="0" y="0">2</tspan><tspan class="cls-27" x="5.56" y="0"> </tspan><tspan class="cls-12" x="8.28" y="0">S</tspan><tspan class="cls-13" x="14.99" y="0">W</tspan><tspan class="cls-12" x="24.99" y="0">S</tspan><tspan class="cls-27" x="31.7" y="0"> </tspan><tspan class="cls-44" x="34.42" y="0">Ü</tspan><tspan x="41.7" y="0">bung</tspan></text>
  <g class="cls-56">
    <text class="cls-3" transform="translate(10.57 97.14)"><tspan class="cls-28" x="0" y="0">O</tspan><tspan class="cls-31" x="9.29" y="0">M</tspan><tspan class="cls-40" x="19.43" y="0">B</tspan><tspan class="cls-57" x="28.13" y="0"> </tspan><tspan class="cls-40" x="31.43" y="0">&amp;</tspan><tspan class="cls-57" x="40.13" y="0"> </tspan><tspan class="cls-31" x="43.43" y="0">M</tspan><tspan class="cls-40" x="53.57" y="0">K</tspan><tspan x="62.27" y="0">B</tspan></text>
  </g>
  <text class="cls-1" transform="translate(3 112.29)"><tspan x="0" y="0">1</tspan><tspan class="cls-27" x="5.56" y="0"> </tspan><tspan class="cls-12" x="8.28" y="0">S</tspan><tspan class="cls-13" x="14.99" y="0">W</tspan><tspan class="cls-12" x="24.99" y="0">S</tspan><tspan class="cls-27" x="31.7" y="0"> </tspan><tspan class="cls-12" x="34.42" y="0">V</tspan><tspan x="41.13" y="0">o</tspan><tspan class="cls-55" x="46.69" y="0">r</tspan><tspan class="cls-44" x="49.98" y="0">l</tspan><tspan x="52.26" y="0">esung</tspan></text>
  <text class="cls-1" transform="translate(3 126.43)"><tspan x="0" y="0">2</tspan><tspan class="cls-27" x="5.56" y="0"> </tspan><tspan class="cls-12" x="8.28" y="0">S</tspan><tspan class="cls-13" x="14.99" y="0">W</tspan><tspan class="cls-12" x="24.99" y="0">S</tspan><tspan class="cls-27" x="31.7" y="0"> </tspan><tspan class="cls-44" x="34.42" y="0">Ü</tspan><tspan x="41.7" y="0">bung</tspan></text>
  <g class="cls-29">
    <text class="cls-2" transform="translate(131.57 97.14)"><tspan class="cls-41" x="0" y="0">M</tspan><tspan class="cls-37" x="8.42" y="0">od</tspan><tspan x="20.7" y="0">e</tspan><tspan class="cls-27" x="26.26" y="0">lli</tspan><tspan class="cls-11" x="34.41" y="0">ng</tspan><tspan class="cls-8" x="46.69" y="0"> </tspan><tspan class="cls-6" x="49.41" y="0">T</tspan><tspan class="cls-11" x="55.69" y="0">h</tspan><tspan class="cls-63" x="61.83" y="0">e</tspan><tspan class="cls-11" x="67.4" y="0">o</tspan><tspan class="cls-38" x="73.54" y="0">r</tspan><tspan class="cls-27" x="77.4" y="0">i</tspan><tspan x="80.12" y="0">e</tspan><tspan class="cls-27" x="85.68" y="0"> </tspan><tspan class="cls-44" x="88.4" y="0">&amp;</tspan><tspan class="cls-27" x="95.68" y="0"> </tspan><tspan class="cls-12" x="98.4" y="0">P</tspan><tspan class="cls-59" x="105.1" y="0">r</tspan><tspan x="108.97" y="0">ax</tspan><tspan class="cls-27" x="120.09" y="0">i</tspan><tspan class="cls-9" x="122.81" y="0">s</tspan></text>
  </g>
  <text class="cls-4" transform="translate(29 26.29)"><tspan class="cls-34" x="0" y="0">SS</tspan><tspan class="cls-60" x="18.59" y="0">2</tspan><tspan x="26.45" y="0">3</tspan></text>
  <g class="cls-33">
    <text class="cls-3" transform="translate(146 12.57)"><tspan class="cls-49" x="0" y="0">1</tspan><tspan class="cls-28" x="6.7" y="0">.</tspan><tspan class="cls-39" x="9.98" y="0"> </tspan><tspan x="13.28" y="0">S</tspan><tspan class="cls-49" x="21.29" y="0">e</tspan><tspan class="cls-54" x="27.98" y="0">m</tspan><tspan class="cls-49" x="38.69" y="0">es</tspan><tspan x="52.08" y="0">t</tspan><tspan class="cls-49" x="56.08" y="0">e</tspan><tspan class="cls-54" x="62.78" y="0">r</tspan><tspan class="cls-39" x="67.48" y="0">h</tspan><tspan class="cls-54" x="74.78" y="0">ä</tspan><tspan class="cls-28" x="81.49" y="0">l</tspan><tspan x="84.77" y="0">fte</tspan></text>
  </g>
  <g class="cls-52">
    <text class="cls-2" transform="translate(131.57 53.86)"><tspan class="cls-41" x="0" y="0">M</tspan><tspan class="cls-37" x="8.42" y="0">od</tspan><tspan x="20.7" y="0">e</tspan><tspan class="cls-27" x="26.26" y="0">lli</tspan><tspan class="cls-11" x="34.41" y="0">ng</tspan><tspan class="cls-8" x="46.69" y="0"> </tspan><tspan class="cls-6" x="49.41" y="0">T</tspan><tspan class="cls-11" x="55.69" y="0">h</tspan><tspan class="cls-63" x="61.83" y="0">e</tspan><tspan class="cls-11" x="67.4" y="0">o</tspan><tspan class="cls-38" x="73.54" y="0">r</tspan><tspan class="cls-27" x="77.4" y="0">i</tspan><tspan x="80.12" y="0">e</tspan><tspan class="cls-27" x="85.68" y="0"> </tspan><tspan class="cls-44" x="88.4" y="0">&amp;</tspan><tspan class="cls-27" x="95.68" y="0"> </tspan><tspan class="cls-12" x="98.4" y="0">P</tspan><tspan class="cls-59" x="105.1" y="0">r</tspan><tspan x="108.97" y="0">ax</tspan><tspan class="cls-27" x="120.09" y="0">i</tspan><tspan class="cls-9" x="122.81" y="0">s</tspan></text>
  </g>
  <g class="cls-46">
    <text class="cls-2" transform="translate(371.14 53.86)"><tspan x="0" y="0">3</tspan><tspan class="cls-32" x="5.56" y="0">D</tspan><tspan class="cls-55" x="12.84" y="0">-</tspan><tspan class="cls-12" x="16.13" y="0">E</tspan><tspan class="cls-51" x="22.84" y="0">c</tspan><tspan class="cls-45" x="28.42" y="0">h</tspan><tspan class="cls-55" x="34.55" y="0">t</tspan><tspan x="37.84" y="0">ze</tspan><tspan class="cls-8" x="48.4" y="0">i</tspan><tspan class="cls-55" x="51.12" y="0">t-</tspan><tspan class="cls-12" x="57.7" y="0">P</tspan><tspan class="cls-59" x="64.41" y="0">r</tspan><tspan class="cls-37" x="68.27" y="0">og</tspan><tspan class="cls-59" x="80.55" y="0">r</tspan><tspan x="84.41" y="0">a</tspan><tspan class="cls-59" x="89.97" y="0">mm</tspan><tspan class="cls-10" x="107.7" y="0">i</tspan><tspan x="110.42" y="0">e</tspan><tspan class="cls-59" x="115.98" y="0">r</tspan><tspan class="cls-37" x="119.84" y="0">un</tspan><tspan x="132.12" y="0">g</tspan></text>
  </g>
  <g class="cls-58">
    <text class="cls-2" transform="translate(380.14 97.14)"><tspan class="cls-12" x="0" y="0">P</tspan><tspan class="cls-59" x="6.71" y="0">r</tspan><tspan class="cls-37" x="10.57" y="0">odu</tspan><tspan x="28.99" y="0">k</tspan><tspan class="cls-55" x="34.55" y="0">t</tspan><tspan class="cls-8" x="37.84" y="0">i</tspan><tspan class="cls-37" x="40.56" y="0">on</tspan><tspan class="cls-8" x="52.83" y="0"> </tspan><tspan x="55.55" y="0">3</tspan><tspan class="cls-32" x="61.11" y="0">D</tspan><tspan class="cls-55" x="68.39" y="0">-</tspan><tspan class="cls-62" x="71.68" y="0">A</tspan><tspan class="cls-37" x="78.69" y="0">n</tspan><tspan class="cls-10" x="84.83" y="0">i</tspan><tspan class="cls-42" x="87.54" y="0">m</tspan><tspan x="96.41" y="0">a</tspan><tspan class="cls-55" x="101.97" y="0">t</tspan><tspan class="cls-10" x="105.26" y="0">i</tspan><tspan class="cls-37" x="107.97" y="0">o</tspan><tspan x="114.11" y="0">n</tspan></text>
  </g>
  <g class="cls-7">
    <text class="cls-3" transform="translate(390.57 12.57)"><tspan class="cls-61" x="0" y="0">2</tspan><tspan class="cls-30" x="6.7" y="0">.</tspan><tspan class="cls-42" x="9.98" y="0"> </tspan><tspan x="13.28" y="0">S</tspan><tspan class="cls-53" x="21.29" y="0">e</tspan><tspan class="cls-54" x="27.98" y="0">m</tspan><tspan class="cls-61" x="38.69" y="0">es</tspan><tspan x="52.08" y="0">t</tspan><tspan class="cls-61" x="56.08" y="0">e</tspan><tspan class="cls-54" x="62.78" y="0">r</tspan><tspan class="cls-39" x="67.49" y="0">h</tspan><tspan class="cls-54" x="74.78" y="0">ä</tspan><tspan class="cls-30" x="81.49" y="0">l</tspan><tspan x="84.77" y="0">fte</tspan></text>
  </g>
  <rect class="cls-18" x="91.14" y="15.72" width="208.14" height="1"/>
  <rect class="cls-18" x="91.14" y="27.86" width="208.14" height="1"/>
  <rect class="cls-18" width="2" height="131.29"/>
  <rect class="cls-18" x="89.14" y="2" width="2" height="129.29"/>
  <rect class="cls-18" x="299.29" y="2" width="2" height="129.29"/>
  <rect class="cls-18" x="578.28" y="2" width="2" height="129.29"/>
  <rect class="cls-18" x="118.43" y="16.72" width="1" height="12.14"/>
  <rect class="cls-18" x="147.14" y="16.72" width="1" height="12.14"/>
  <rect class="cls-18" x="178.14" y="16.72" width="1" height="12.14"/>
  <rect class="cls-18" x="209.14" y="16.72" width="1" height="12.14"/>
  <rect class="cls-18" x="240.14" y="16.72" width="1" height="12.14"/>
  <rect class="cls-18" x="268.86" y="16.72" width="1" height="12.14"/>
  <rect class="cls-18" x="330.86" y="16.72" width="1" height="12.14"/>
  <rect class="cls-18" x="361.86" y="16.72" width="1" height="12.14"/>
  <rect class="cls-18" x="392.86" y="16.72" width="1" height="12.14"/>
  <rect class="cls-18" x="423.86" y="16.72" width="1" height="12.14"/>
  <rect class="cls-18" x="454.86" y="16.72" width="1" height="12.14"/>
  <rect class="cls-18" x="485.86" y="16.72" width="1" height="12.14"/>
  <rect class="cls-18" x="516.86" y="16.72" width="1" height="12.14"/>
  <rect class="cls-18" x="547.86" y="16.72" width="1" height="12.14"/>
  <rect class="cls-18" x="2" y="0" width="578.29" height="2"/>
  <rect class="cls-18" x="301.29" y="15.72" width="277" height="1"/>
  <rect class="cls-18" x="301.29" y="27.86" width="277" height="1"/>
  <rect class="cls-18" x="2" y="41.29" width="578.29" height="2"/>
  <rect class="cls-18" x="2" y="86" width="578.29" height="2"/>
  <rect class="cls-18" x="2" y="129.29" width="578.29" height="2"/>
</svg>