<?xml version="1.0" encoding="utf-8"?>
<!-- Generator: Adobe Illustrator 26.2.1, SVG Export Plug-In . SVG Version: 6.00 Build 0)  -->
<svg version="1.1" id="Layer_1" xmlns="http://www.w3.org/2000/svg" xmlns:xlink="http://www.w3.org/1999/xlink" x="0px" y="0px"
	 viewBox="0 0 580.29 135.71" style="enable-background:new 0 0 580.29 135.71;" xml:space="preserve">
<style type="text/css">
	.st0{fill:#FFFFFF;}
	.st1{fill-rule:evenodd;clip-rule:evenodd;fill:#DBDBDB;}
	.st2{fill-rule:evenodd;clip-rule:evenodd;fill:#D0CECE;}
	.st3{fill-rule:evenodd;clip-rule:evenodd;fill:#C6E0B4;}
	.st4{fill-rule:evenodd;clip-rule:evenodd;fill:#E2EFDA;}
	.st5{fill-rule:evenodd;clip-rule:evenodd;fill:#D9E1F2;}
	.st6{fill-rule:evenodd;clip-rule:evenodd;fill:#B4C6E7;}
	.st7{fill-rule:evenodd;clip-rule:evenodd;fill:#F2F2F2;}
	.st8{fill:#C6E0B4;}
	.st9{fill:#E2EFDA;}
	.st10{font-family:'Ubuntu-Bold';}
	.st11{font-size:8px;}
	.st12{clip-path:url(#SVGID_00000133531287649526100840000018434366557505599373_);}
	.st13{font-size:10px;}
	.st14{clip-path:url(#SVGID_00000176730474195441942470000015873695810376509871_);}
	.st15{clip-path:url(#SVGID_00000066488878412753389930000004774926424649612696_);}
	.st16{font-size:12px;}
	.st17{font-family:'Ubuntu-Regular';}
	.st18{clip-path:url(#SVGID_00000019662139668565249280000006443737333750155440_);}
	.st19{font-size:14px;}
	.st20{clip-path:url(#SVGID_00000180352163165541805690000006722020969184274579_);}
	.st21{clip-path:url(#SVGID_00000121967561729817349690000012142682558993938320_);}
	.st22{clip-path:url(#SVGID_00000165201710183346511740000009237313435619398316_);}
	.st23{clip-path:url(#SVGID_00000021119121655326545380000016529126568044015801_);}
	.st24{fill-rule:evenodd;clip-rule:evenodd;}
	.st25{fill:none;stroke:#000000;stroke-width:0;stroke-linecap:square;stroke-miterlimit:10;}
</style>
<rect x="1.57" y="1.57" class="st0" width="577.86" height="29.86"/>
<rect x="1.57" y="31.29" class="st0" width="88.71" height="14.14"/>
<rect x="90.14" y="31.28" class="st1" width="28.86" height="14.14"/>
<rect x="118.86" y="31.28" class="st2" width="28.86" height="14.14"/>
<rect x="147.57" y="31.28" class="st1" width="31.14" height="14.14"/>
<rect x="178.57" y="31.28" class="st2" width="31.14" height="14.14"/>
<rect x="209.57" y="31.28" class="st1" width="31.14" height="14.14"/>
<rect x="240.57" y="31.28" class="st2" width="28.86" height="14.14"/>
<rect x="269.29" y="31.28" class="st1" width="31.14" height="14.14"/>
<rect x="300.29" y="31.28" class="st2" width="31.14" height="14.14"/>
<rect x="331.29" y="31.28" class="st1" width="31.14" height="14.14"/>
<rect x="362.29" y="31.28" class="st2" width="31.14" height="14.14"/>
<rect x="393.29" y="31.28" class="st1" width="31.14" height="14.14"/>
<rect x="424.29" y="31.28" class="st2" width="31.14" height="14.14"/>
<rect x="455.28" y="31.28" class="st1" width="31.14" height="14.14"/>
<rect x="486.28" y="31.28" class="st2" width="31.14" height="14.14"/>
<rect x="517.28" y="31.28" class="st1" width="31.14" height="14.14"/>
<rect x="548.28" y="31.28" class="st2" width="31.14" height="14.14"/>
<rect x="1.57" y="45.28" class="st0" width="577.86" height="16.71"/>
<rect x="1.57" y="61.86" class="st0" width="88.71" height="29.71"/>
<rect x="90.14" y="61.86" class="st3" width="28.86" height="29.71"/>
<rect x="118.86" y="61.86" class="st4" width="28.86" height="29.71"/>
<rect x="147.57" y="61.86" class="st3" width="31.14" height="29.71"/>
<rect x="178.57" y="61.86" class="st4" width="31.14" height="29.71"/>
<rect x="209.57" y="61.86" class="st3" width="31.14" height="29.71"/>
<rect x="240.57" y="61.86" class="st4" width="28.86" height="29.71"/>
<rect x="269.29" y="61.86" class="st3" width="31.14" height="29.71"/>
<rect x="300.29" y="61.86" class="st4" width="31.14" height="29.71"/>
<rect x="331.29" y="61.86" class="st5" width="31.14" height="29.71"/>
<rect x="362.29" y="61.86" class="st6" width="31.14" height="29.71"/>
<rect x="393.29" y="61.86" class="st5" width="31.14" height="29.71"/>
<rect x="424.29" y="61.86" class="st6" width="31.14" height="29.71"/>
<rect x="455.28" y="61.86" class="st5" width="31.14" height="29.71"/>
<rect x="486.28" y="61.86" class="st6" width="31.14" height="29.71"/>
<rect x="517.28" y="61.86" class="st5" width="31.14" height="29.71"/>
<rect x="548.28" y="61.86" class="st6" width="31.14" height="29.71"/>
<rect x="1.57" y="91.43" class="st0" width="577.86" height="13.86"/>
<rect x="1.57" y="105.14" class="st0" width="88.71" height="14.57"/>
<rect x="90.14" y="105.14" class="st3" width="28.86" height="14.57"/>
<rect x="118.86" y="105.14" class="st4" width="28.86" height="14.57"/>
<rect x="147.57" y="105.14" class="st3" width="31.14" height="14.57"/>
<rect x="178.57" y="105.14" class="st4" width="31.14" height="14.57"/>
<rect x="209.57" y="105.14" class="st3" width="31.14" height="14.57"/>
<rect x="240.57" y="105.14" class="st4" width="28.86" height="14.57"/>
<rect x="269.29" y="105.14" class="st3" width="31.14" height="14.57"/>
<rect x="300.29" y="105.14" class="st4" width="31.14" height="14.57"/>
<rect x="331.29" y="105.14" class="st7" width="248.14" height="14.57"/>
<rect x="1.57" y="119.57" class="st0" width="88.71" height="15.29"/>
<rect x="90.14" y="119.57" class="st8" width="28.86" height="15.29"/>
<rect x="118.86" y="119.57" class="st9" width="28.86" height="15.29"/>
<rect x="147.57" y="119.57" class="st8" width="31.14" height="15.29"/>
<rect x="178.57" y="119.57" class="st9" width="31.14" height="15.29"/>
<rect x="209.57" y="119.57" class="st8" width="31.14" height="15.29"/>
<rect x="240.57" y="119.57" class="st9" width="28.86" height="15.29"/>
<rect x="269.29" y="119.57" class="st8" width="31.14" height="15.29"/>
<rect x="300.29" y="119.57" class="st9" width="31.14" height="15.29"/>
<rect x="331.29" y="119.57" class="st8" width="31.14" height="15.29"/>
<rect x="362.29" y="119.57" class="st9" width="31.14" height="15.29"/>
<rect x="393.29" y="119.57" class="st8" width="31.14" height="15.29"/>
<rect x="424.29" y="119.57" class="st9" width="31.14" height="15.29"/>
<rect x="455.28" y="119.57" class="st8" width="31.14" height="15.29"/>
<rect x="486.29" y="119.57" class="st9" width="31.14" height="15.29"/>
<rect x="517.28" y="119.57" class="st8" width="31.14" height="15.29"/>
<rect x="548.28" y="119.57" class="st9" width="31.14" height="15.29"/>
<text transform="matrix(1 0 0 1 102.714 26.8571)" class="st10 st11">1</text>
<text transform="matrix(1 0 0 1 131.4259 26.8571)" class="st10 st11">2</text>
<text transform="matrix(1 0 0 1 161.2819 26.8571)" class="st10 st11">3</text>
<text transform="matrix(1 0 0 1 192.2819 26.8571)" class="st10 st11">4</text>
<text transform="matrix(1 0 0 1 223.2819 26.8571)" class="st10 st11">5</text>
<text transform="matrix(1 0 0 1 253.1378 26.8571)" class="st10 st11">6</text>
<text transform="matrix(1 0 0 1 282.9938 26.8571)" class="st10 st11">7</text>
<text transform="matrix(1 0 0 1 313.9943 26.8571)" class="st10 st11">8</text>
<text transform="matrix(1 0 0 1 344.9943 26.8571)" class="st10 st11">9</text>
<text transform="matrix(1 0 0 1 373.7062 26.8571)"><tspan x="0" y="0" class="st10 st11">1</tspan><tspan x="4.56" y="0" class="st10 st11">0</tspan></text>
<text transform="matrix(1 0 0 1 404.7062 26.8571)"><tspan x="0" y="0" class="st10 st11">1</tspan><tspan x="4.56" y="0" class="st10 st11">1</tspan></text>
<text transform="matrix(1 0 0 1 435.7062 26.8571)"><tspan x="0" y="0" class="st10 st11">1</tspan><tspan x="4.56" y="0" class="st10 st11">2</tspan></text>
<text transform="matrix(1 0 0 1 466.7062 26.8571)"><tspan x="0" y="0" class="st10 st11">1</tspan><tspan x="4.56" y="0" class="st10 st11">3</tspan></text>
<text transform="matrix(1 0 0 1 497.7062 26.8571)"><tspan x="0" y="0" class="st10 st11">1</tspan><tspan x="4.56" y="0" class="st10 st11">4</tspan></text>
<text transform="matrix(1 0 0 1 528.7062 26.8571)"><tspan x="0" y="0" class="st10 st11">1</tspan><tspan x="4.56" y="0" class="st10 st11">5</tspan></text>
<text transform="matrix(1 0 0 1 559.7062 26.8571)"><tspan x="0" y="0" class="st10 st11">1</tspan><tspan x="4.56" y="0" class="st10 st11">6</tspan></text>
<g>
	<defs>
		<rect id="SVGID_1_" x="90.71" y="31.86" width="27.71" height="13"/>
	</defs>
	<clipPath id="SVGID_00000127044869135229325360000017578573800205583807_">
		<use xlink:href="#SVGID_1_"  style="overflow:visible;"/>
	</clipPath>
	<g style="clip-path:url(#SVGID_00000127044869135229325360000017578573800205583807_);">
		<text transform="matrix(1 0 0 1 91.1427 40.714)"><tspan x="0" y="0" class="st10 st13">14</tspan><tspan x="11.4" y="0" class="st10 st13">.</tspan><tspan x="13.83" y="0" class="st10 st13">03</tspan><tspan x="25.23" y="0" class="st10 st13">.</tspan></text>
	</g>
</g>
<g>
	<defs>
		<rect id="SVGID_00000019646543159426977510000018053715683025473466_" x="119.43" y="31.86" width="27.71" height="13"/>
	</defs>
	<clipPath id="SVGID_00000024688238666631370550000000760056123756677307_">
		<use xlink:href="#SVGID_00000019646543159426977510000018053715683025473466_"  style="overflow:visible;"/>
	</clipPath>
	<g style="clip-path:url(#SVGID_00000024688238666631370550000000760056123756677307_);">
		<text transform="matrix(1 0 0 1 119.8571 40.714)"><tspan x="0" y="0" class="st10 st13">21</tspan><tspan x="11.4" y="0" class="st10 st13">.</tspan><tspan x="13.83" y="0" class="st10 st13">03</tspan><tspan x="25.23" y="0" class="st10 st13">.</tspan></text>
	</g>
</g>
<g>
	<defs>
		<rect id="SVGID_00000125575580820274769880000010123350740410948538_" x="1.57" y="31.86" width="578.29" height="13"/>
	</defs>
	<clipPath id="SVGID_00000055709256443440115260000012430514557806373808_">
		<use xlink:href="#SVGID_00000125575580820274769880000010123350740410948538_"  style="overflow:visible;"/>
	</clipPath>
	<g style="clip-path:url(#SVGID_00000055709256443440115260000012430514557806373808_);">
		<text transform="matrix(1 0 0 1 149.714 40.714)"><tspan x="0" y="0" class="st10 st13">28</tspan><tspan x="11.4" y="0" class="st10 st13">.</tspan><tspan x="13.83" y="0" class="st10 st13">03</tspan><tspan x="25.23" y="0" class="st10 st13">.</tspan></text>
	</g>
	<g style="clip-path:url(#SVGID_00000055709256443440115260000012430514557806373808_);">
		<text transform="matrix(1 0 0 1 180.714 40.714)"><tspan x="0" y="0" class="st10 st13">04</tspan><tspan x="11.4" y="0" class="st10 st13">.</tspan><tspan x="13.83" y="0" class="st10 st13">0</tspan><tspan x="19.54" y="0" class="st10 st13">4</tspan><tspan x="25.24" y="0" class="st10 st13">.</tspan></text>
	</g>
	<g style="clip-path:url(#SVGID_00000055709256443440115260000012430514557806373808_);">
		<text transform="matrix(1 0 0 1 211.714 40.714)"><tspan x="0" y="0" class="st10 st13">11</tspan><tspan x="11.4" y="0" class="st10 st13">.</tspan><tspan x="13.83" y="0" class="st10 st13">04</tspan><tspan x="25.23" y="0" class="st10 st13">.</tspan></text>
	</g>
	<g style="clip-path:url(#SVGID_00000055709256443440115260000012430514557806373808_);">
		<text transform="matrix(1 0 0 1 253.714 40.714)" class="st10 st13">-</text>
	</g>
	<g style="clip-path:url(#SVGID_00000055709256443440115260000012430514557806373808_);">
		<text transform="matrix(1 0 0 1 271.4283 40.714)"><tspan x="0" y="0" class="st10 st13">25</tspan><tspan x="11.4" y="0" class="st10 st13">.</tspan><tspan x="13.83" y="0" class="st10 st13">04</tspan><tspan x="25.23" y="0" class="st10 st13">.</tspan></text>
	</g>
	<g style="clip-path:url(#SVGID_00000055709256443440115260000012430514557806373808_);">
		<text transform="matrix(1 0 0 1 302.4288 40.714)"><tspan x="0" y="0" class="st10 st13">02</tspan><tspan x="11.4" y="0" class="st10 st13">.</tspan><tspan x="13.83" y="0" class="st10 st13">0</tspan><tspan x="19.54" y="0" class="st10 st13">5</tspan><tspan x="25.24" y="0" class="st10 st13">.</tspan></text>
	</g>
	<g style="clip-path:url(#SVGID_00000055709256443440115260000012430514557806373808_);">
		<text transform="matrix(1 0 0 1 333.4288 40.714)"><tspan x="0" y="0" class="st10 st13">09</tspan><tspan x="11.4" y="0" class="st10 st13">.</tspan><tspan x="13.83" y="0" class="st10 st13">0</tspan><tspan x="19.54" y="0" class="st10 st13">5</tspan><tspan x="25.24" y="0" class="st10 st13">.</tspan></text>
	</g>
	<g style="clip-path:url(#SVGID_00000055709256443440115260000012430514557806373808_);">
		<text transform="matrix(1 0 0 1 364.4288 40.714)"><tspan x="0" y="0" class="st10 st13">16</tspan><tspan x="11.4" y="0" class="st10 st13">.</tspan><tspan x="13.83" y="0" class="st10 st13">0</tspan><tspan x="19.54" y="0" class="st10 st13">5</tspan><tspan x="25.24" y="0" class="st10 st13">.</tspan></text>
	</g>
	<g style="clip-path:url(#SVGID_00000055709256443440115260000012430514557806373808_);">
		<text transform="matrix(1 0 0 1 395.4288 40.714)"><tspan x="0" y="0" class="st10 st13">23</tspan><tspan x="11.4" y="0" class="st10 st13">.</tspan><tspan x="13.83" y="0" class="st10 st13">0</tspan><tspan x="19.54" y="0" class="st10 st13">5</tspan><tspan x="25.24" y="0" class="st10 st13">.</tspan></text>
	</g>
	<g style="clip-path:url(#SVGID_00000055709256443440115260000012430514557806373808_);">
		<text transform="matrix(1 0 0 1 426.4288 40.714)"><tspan x="0" y="0" class="st10 st13">30</tspan><tspan x="11.4" y="0" class="st10 st13">.</tspan><tspan x="13.83" y="0" class="st10 st13">0</tspan><tspan x="19.54" y="0" class="st10 st13">5</tspan><tspan x="25.24" y="0" class="st10 st13">.</tspan></text>
	</g>
	<g style="clip-path:url(#SVGID_00000055709256443440115260000012430514557806373808_);">
		<text transform="matrix(1 0 0 1 469.5714 40.714)" class="st10 st13">-</text>
	</g>
	<g style="clip-path:url(#SVGID_00000055709256443440115260000012430514557806373808_);">
		<text transform="matrix(1 0 0 1 488.4279 40.714)"><tspan x="0" y="0" class="st10 st13">1</tspan><tspan x="5.71" y="0" class="st10 st13">3</tspan><tspan x="11.41" y="0" class="st10 st13">.</tspan><tspan x="13.84" y="0" class="st10 st13">0</tspan><tspan x="19.54" y="0" class="st10 st13">6</tspan><tspan x="25.25" y="0" class="st10 st13">.</tspan></text>
	</g>
	<g style="clip-path:url(#SVGID_00000055709256443440115260000012430514557806373808_);">
		<text transform="matrix(1 0 0 1 519.4279 40.714)"><tspan x="0" y="0" class="st10 st13">2</tspan><tspan x="5.71" y="0" class="st10 st13">0</tspan><tspan x="11.41" y="0" class="st10 st13">.</tspan><tspan x="13.84" y="0" class="st10 st13">0</tspan><tspan x="19.54" y="0" class="st10 st13">6</tspan><tspan x="25.25" y="0" class="st10 st13">.</tspan></text>
	</g>
	<g style="clip-path:url(#SVGID_00000055709256443440115260000012430514557806373808_);">
		<text transform="matrix(1 0 0 1 550.4279 40.714)"><tspan x="0" y="0" class="st10 st13">2</tspan><tspan x="5.71" y="0" class="st10 st13">7</tspan><tspan x="11.41" y="0" class="st10 st13">.</tspan><tspan x="13.84" y="0" class="st10 st13">0</tspan><tspan x="19.54" y="0" class="st10 st13">6</tspan><tspan x="25.25" y="0" class="st10 st13">.</tspan></text>
	</g>
</g>
<text transform="matrix(1 0 0 1 34.8571 57.4283)"><tspan x="0" y="0" class="st10 st16">M</tspan><tspan x="10.73" y="0" class="st10 st16">I</tspan><tspan x="14.58" y="0" class="st10 st16">B</tspan></text>
<text transform="matrix(1 0 0 1 2.9996 72.714)"><tspan x="0" y="0" class="st17 st13">2</tspan><tspan x="5.58" y="0" class="st17 st13"> </tspan><tspan x="7.88" y="0" class="st17 st13">S</tspan><tspan x="13.18" y="0" class="st17 st13">W</tspan><tspan x="22.47" y="0" class="st17 st13">S </tspan><tspan x="30.06" y="0" class="st17 st13">V</tspan><tspan x="36.77" y="0" class="st17 st13">o</tspan><tspan x="42.63" y="0" class="st17 st13">r</tspan><tspan x="46.49" y="0" class="st17 st13">l</tspan><tspan x="49.34" y="0" class="st17 st13">e</tspan><tspan x="54.92" y="0" class="st17 st13">sun</tspan><tspan x="70.8" y="0" class="st17 st13">g</tspan></text>
<text transform="matrix(1 0 0 1 2.9996 86.8536)"><tspan x="0" y="0" class="st17 st13">2</tspan><tspan x="5.58" y="0" class="st17 st13"> </tspan><tspan x="7.88" y="0" class="st17 st13">S</tspan><tspan x="13.18" y="0" class="st17 st13">W</tspan><tspan x="22.47" y="0" class="st17 st13">S Übun</tspan><tspan x="54.23" y="0" class="st17 st13">g</tspan></text>
<g>
	<defs>
		<rect id="SVGID_00000108307534548739902780000015485481337486202517_" x="1.57" y="92" width="578.29" height="12.71"/>
	</defs>
	<clipPath id="SVGID_00000086690947212555139950000012491484384222374571_">
		<use xlink:href="#SVGID_00000108307534548739902780000015485481337486202517_"  style="overflow:visible;"/>
	</clipPath>
	<g style="clip-path:url(#SVGID_00000086690947212555139950000012491484384222374571_);">
		<text transform="matrix(1 0 0 1 11.5709 100.714)"><tspan x="0" y="0" class="st10 st16">O</tspan><tspan x="9.43" y="0" class="st10 st16">M</tspan><tspan x="20.16" y="0" class="st10 st16">B</tspan><tspan x="28.16" y="0" class="st10 st16"> </tspan><tspan x="31.03" y="0" class="st10 st16">&amp;</tspan><tspan x="39.47" y="0" class="st10 st16"> </tspan><tspan x="42.34" y="0" class="st10 st16">M</tspan><tspan x="53.06" y="0" class="st10 st16">K</tspan><tspan x="61.21" y="0" class="st10 st16">B</tspan></text>
	</g>
</g>
<text transform="matrix(1 0 0 1 2.9996 115.9996)"><tspan x="0" y="0" class="st17 st13">1</tspan><tspan x="5.58" y="0" class="st17 st13"> </tspan><tspan x="7.88" y="0" class="st17 st13">S</tspan><tspan x="13.18" y="0" class="st17 st13">W</tspan><tspan x="22.47" y="0" class="st17 st13">S </tspan><tspan x="30.06" y="0" class="st17 st13">V</tspan><tspan x="36.77" y="0" class="st17 st13">o</tspan><tspan x="42.63" y="0" class="st17 st13">r</tspan><tspan x="46.49" y="0" class="st17 st13">l</tspan><tspan x="49.34" y="0" class="st17 st13">e</tspan><tspan x="54.92" y="0" class="st17 st13">sun</tspan><tspan x="70.8" y="0" class="st17 st13">g</tspan></text>
<text transform="matrix(1 0 0 1 2.9996 130.1398)"><tspan x="0" y="0" class="st17 st13">2</tspan><tspan x="5.58" y="0" class="st17 st13"> </tspan><tspan x="7.88" y="0" class="st17 st13">S</tspan><tspan x="13.18" y="0" class="st17 st13">W</tspan><tspan x="22.47" y="0" class="st17 st13">S Übun</tspan><tspan x="54.23" y="0" class="st17 st13">g</tspan></text>
<text transform="matrix(1 0 0 1 28.2853 27.9996)"><tspan x="0" y="0" class="st10 st19">SS</tspan><tspan x="16.3" y="0" class="st10 st19"> </tspan><tspan x="19.73" y="0" class="st10 st19">2</tspan><tspan x="27.72" y="0" class="st10 st19">2</tspan></text>
<text transform="matrix(1 0 0 1 385.714 57.4283)"><tspan x="0" y="0" class="st10 st13">3</tspan><tspan x="5.71" y="0" class="st10 st13">D</tspan><tspan x="13.13" y="0" class="st10 st13">-</tspan><tspan x="16.55" y="0" class="st10 st13">E</tspan><tspan x="22.56" y="0" class="st10 st13">c</tspan><tspan x="27.56" y="0" class="st10 st13">h</tspan><tspan x="33.43" y="0" class="st10 st13">t</tspan><tspan x="38" y="0" class="st10 st13">z</tspan><tspan x="43" y="0" class="st10 st13">e</tspan><tspan x="48.85" y="0" class="st10 st13">i</tspan><tspan x="51.72" y="0" class="st10 st13">t</tspan><tspan x="56.29" y="0" class="st10 st13">-</tspan><tspan x="59.71" y="0" class="st10 st13">P</tspan><tspan x="66.14" y="0" class="st10 st13">r</tspan><tspan x="70.42" y="0" class="st10 st13">o</tspan><tspan x="76.42" y="0" class="st10 st13">gr</tspan><tspan x="86.7" y="0" class="st10 st13">a</tspan><tspan x="92.27" y="0" class="st10 st13">mm</tspan><tspan x="109.43" y="0" class="st10 st13">i</tspan><tspan x="112.3" y="0" class="st10 st13">e</tspan><tspan x="118.15" y="0" class="st10 st13">r</tspan><tspan x="122.43" y="0" class="st10 st13">un</tspan><tspan x="134.17" y="0" class="st10 st13">g</tspan></text>
<g>
	<defs>
		<rect id="SVGID_00000170992989635709500790000016123624926417520054_" x="331.43" y="91.57" width="247.86" height="13.57"/>
	</defs>
	<clipPath id="SVGID_00000150824313415889026460000013932815167905993381_">
		<use xlink:href="#SVGID_00000170992989635709500790000016123624926417520054_"  style="overflow:visible;"/>
	</clipPath>
	<g style="clip-path:url(#SVGID_00000150824313415889026460000013932815167905993381_);">
		<text transform="matrix(1 0 0 1 394.714 100.714)"><tspan x="0" y="0" class="st10 st13">P</tspan><tspan x="6.43" y="0" class="st10 st13">r</tspan><tspan x="10.71" y="0" class="st10 st13">o</tspan><tspan x="16.72" y="0" class="st10 st13">d</tspan><tspan x="22.73" y="0" class="st10 st13">u</tspan><tspan x="28.6" y="0" class="st10 st13">k</tspan><tspan x="34.45" y="0" class="st10 st13">t</tspan><tspan x="39.02" y="0" class="st10 st13">i</tspan><tspan x="41.89" y="0" class="st10 st13">o</tspan><tspan x="47.89" y="0" class="st10 st13">n</tspan><tspan x="53.76" y="0" class="st10 st13"> 3</tspan><tspan x="61.9" y="0" class="st10 st13">D</tspan><tspan x="69.32" y="0" class="st10 st13">-</tspan><tspan x="72.74" y="0" class="st10 st13">A</tspan><tspan x="80.02" y="0" class="st10 st13">ni</tspan><tspan x="88.76" y="0" class="st10 st13">m</tspan><tspan x="97.34" y="0" class="st10 st13">a</tspan><tspan x="102.91" y="0" class="st10 st13">t</tspan><tspan x="107.48" y="0" class="st10 st13">i</tspan><tspan x="110.35" y="0" class="st10 st13">o</tspan><tspan x="116.35" y="0" class="st10 st13">n</tspan></text>
	</g>
</g>
<g>
	<defs>
		<rect id="SVGID_00000113325714460474042070000010030693065930049188_" x="90.29" y="91.57" width="241" height="13.57"/>
	</defs>
	<clipPath id="SVGID_00000163780678345619226110000004070121969570718655_">
		<use xlink:href="#SVGID_00000113325714460474042070000010030693065930049188_"  style="overflow:visible;"/>
	</clipPath>
	<g style="clip-path:url(#SVGID_00000163780678345619226110000004070121969570718655_);">
		<text transform="matrix(1 0 0 1 146.9996 100.714)"><tspan x="0" y="0" class="st10 st13">M</tspan><tspan x="8.86" y="0" class="st10 st13">o</tspan><tspan x="14.87" y="0" class="st10 st13">d</tspan><tspan x="20.88" y="0" class="st10 st13">e</tspan><tspan x="26.73" y="0" class="st10 st13">ll</tspan><tspan x="33.03" y="0" class="st10 st13">in</tspan><tspan x="41.77" y="0" class="st10 st13">g</tspan><tspan x="47.76" y="0" class="st10 st13"> </tspan><tspan x="50.19" y="0" class="st10 st13">T</tspan><tspan x="56.33" y="0" class="st10 st13">h</tspan><tspan x="62.2" y="0" class="st10 st13">e</tspan><tspan x="68.05" y="0" class="st10 st13">o</tspan><tspan x="74.05" y="0" class="st10 st13">r</tspan><tspan x="78.33" y="0" class="st10 st13">i</tspan><tspan x="81.2" y="0" class="st10 st13">e</tspan><tspan x="87.05" y="0" class="st10 st13"> </tspan><tspan x="89.48" y="0" class="st10 st13">&amp;</tspan><tspan x="96.49" y="0" class="st10 st13"> </tspan><tspan x="98.92" y="0" class="st10 st13">P</tspan><tspan x="105.35" y="0" class="st10 st13">r</tspan><tspan x="109.63" y="0" class="st10 st13">a</tspan><tspan x="115.2" y="0" class="st10 st13">x</tspan><tspan x="120.77" y="0" class="st10 st13">i</tspan><tspan x="123.64" y="0" class="st10 st13">s</tspan></text>
	</g>
</g>
<text transform="matrix(1 0 0 1 146.9996 57.4283)"><tspan x="0" y="0" class="st10 st13">M</tspan><tspan x="8.86" y="0" class="st10 st13">o</tspan><tspan x="14.87" y="0" class="st10 st13">d</tspan><tspan x="20.88" y="0" class="st10 st13">e</tspan><tspan x="26.73" y="0" class="st10 st13">ll</tspan><tspan x="33.03" y="0" class="st10 st13">in</tspan><tspan x="41.77" y="0" class="st10 st13">g</tspan><tspan x="47.76" y="0" class="st10 st13"> </tspan><tspan x="50.19" y="0" class="st10 st13">T</tspan><tspan x="56.33" y="0" class="st10 st13">h</tspan><tspan x="62.2" y="0" class="st10 st13">e</tspan><tspan x="68.05" y="0" class="st10 st13">o</tspan><tspan x="74.05" y="0" class="st10 st13">r</tspan><tspan x="78.33" y="0" class="st10 st13">i</tspan><tspan x="81.2" y="0" class="st10 st13">e</tspan><tspan x="87.05" y="0" class="st10 st13"> </tspan><tspan x="89.48" y="0" class="st10 st13">&amp;</tspan><tspan x="96.49" y="0" class="st10 st13"> </tspan><tspan x="98.92" y="0" class="st10 st13">P</tspan><tspan x="105.35" y="0" class="st10 st13">r</tspan><tspan x="109.63" y="0" class="st10 st13">a</tspan><tspan x="115.2" y="0" class="st10 st13">x</tspan><tspan x="120.77" y="0" class="st10 st13">i</tspan><tspan x="123.64" y="0" class="st10 st13">s</tspan></text>
<g>
	<defs>
		<rect id="SVGID_00000156584391203035516660000013823017385820230058_" x="331.43" y="1.57" width="247.86" height="16"/>
	</defs>
	<clipPath id="SVGID_00000055683123189710839680000013094263393993435557_">
		<use xlink:href="#SVGID_00000156584391203035516660000013823017385820230058_"  style="overflow:visible;"/>
	</clipPath>
	<g style="clip-path:url(#SVGID_00000055683123189710839680000013094263393993435557_);">
		<text transform="matrix(1 0 0 1 404.4279 13.1427)"><tspan x="0" y="0" class="st10 st16">2</tspan><tspan x="6.85" y="0" class="st10 st16">.</tspan><tspan x="9.98" y="0" class="st10 st16"> </tspan><tspan x="12.85" y="0" class="st10 st16">S</tspan><tspan x="19.85" y="0" class="st10 st16">e</tspan><tspan x="26.86" y="0" class="st10 st16">m</tspan><tspan x="37.28" y="0" class="st10 st16">e</tspan><tspan x="44.29" y="0" class="st10 st16">s</tspan><tspan x="50.15" y="0" class="st10 st16">t</tspan><tspan x="55.57" y="0" class="st10 st16">e</tspan><tspan x="62.57" y="0" class="st10 st16">r</tspan><tspan x="67.7" y="0" class="st10 st16">hä</tspan><tspan x="81.29" y="0" class="st10 st16">l</tspan><tspan x="85.14" y="0" class="st10 st16">f</tspan><tspan x="90.27" y="0" class="st10 st16">t</tspan><tspan x="95.7" y="0" class="st10 st16">e</tspan></text>
	</g>
</g>
<g>
	<defs>
		<rect id="SVGID_00000159461203786107709120000007580779410493830290_" x="90.29" y="1.57" width="241" height="16"/>
	</defs>
	<clipPath id="SVGID_00000026866836533567469760000001129218615483871361_">
		<use xlink:href="#SVGID_00000159461203786107709120000007580779410493830290_"  style="overflow:visible;"/>
	</clipPath>
	<g style="clip-path:url(#SVGID_00000026866836533567469760000001129218615483871361_);">
		<text transform="matrix(1 0 0 1 159.8571 13.1427)"><tspan x="0" y="0" class="st10 st16">1</tspan><tspan x="6.85" y="0" class="st10 st16">.</tspan><tspan x="9.98" y="0" class="st10 st16"> </tspan><tspan x="12.85" y="0" class="st10 st16">S</tspan><tspan x="19.85" y="0" class="st10 st16">e</tspan><tspan x="26.84" y="0" class="st10 st16">m</tspan><tspan x="37.27" y="0" class="st10 st16">e</tspan><tspan x="44.28" y="0" class="st10 st16">s</tspan><tspan x="50.14" y="0" class="st10 st16">t</tspan><tspan x="55.56" y="0" class="st10 st16">e</tspan><tspan x="62.56" y="0" class="st10 st16">r</tspan><tspan x="67.69" y="0" class="st10 st16">hä</tspan><tspan x="81.27" y="0" class="st10 st16">l</tspan><tspan x="85.13" y="0" class="st10 st16">f</tspan><tspan x="90.26" y="0" class="st10 st16">t</tspan><tspan x="95.69" y="0" class="st10 st16">e</tspan></text>
	</g>
</g>
<rect x="91.14" y="17.14" width="239.14" height="1"/>
<rect x="91.14" y="30.86" width="239.14" height="1"/>
<rect class="st24" width="2" height="135.71"/>
<rect x="89.14" y="2" class="st24" width="2" height="133.71"/>
<rect x="330.29" y="2" class="st24" width="2" height="133.71"/>
<rect x="578.28" y="2" class="st24" width="2" height="133.71"/>
<rect x="118.43" y="18.14" width="1" height="13.71"/>
<rect x="147.14" y="18.14" width="1" height="13.71"/>
<line class="st25" x1="178.14" y1="18.14" x2="178.14" y2="31.86"/>
<rect x="178.14" y="18.14" width="1" height="13.71"/>
<rect x="209.14" y="18.14" width="1" height="13.71"/>
<rect x="240.14" y="18.14" width="1" height="13.71"/>
<rect x="268.86" y="18.14" width="1" height="13.71"/>
<rect x="299.86" y="18.14" width="1" height="13.71"/>
<rect x="361.86" y="18.14" width="1" height="13.71"/>
<rect x="392.86" y="18.14" width="1" height="13.71"/>
<rect x="423.86" y="18.14" width="1" height="13.71"/>
<rect x="454.86" y="18.14" width="1" height="13.71"/>
<rect x="485.86" y="18.14" width="1" height="13.71"/>
<rect x="516.86" y="18.14" width="1" height="13.71"/>
<rect x="547.86" y="18.14" width="1" height="13.71"/>
<rect x="2" class="st24" width="578.29" height="2"/>
<rect x="332.29" y="17.14" width="246" height="1"/>
<rect x="332.29" y="30.86" width="246" height="1"/>
<rect x="2" y="44.28" class="st24" width="578.29" height="2"/>
<rect x="2" y="90.43" class="st24" width="578.29" height="2"/>
<rect x="2" y="133.71" class="st24" width="578.29" height="2"/>
</svg>
